<svg width="492" height="633" viewBox="0 0 492 633" fill="none" xmlns="http://www.w3.org/2000/svg">
<path d="M246.113 88.02H314.103C315.103 88.02 316.103 88 317.103 88.02C324.323 88.15 328.013 91.11 328.673 98.34C329.273 104.94 329.383 111.63 329.213 118.26C329.003 126.41 327.853 134.55 327.863 142.69C327.893 162.98 335.463 179.95 351.213 193.06C359.583 200.03 368.703 205.87 378.483 210.57C394.393 218.21 410.543 225.37 426.423 233.09C434.193 236.87 441.643 241.33 449.133 245.67C451.713 247.16 454.023 249.13 456.343 251.03C466.713 259.51 470.773 270.34 467.903 283.48C452.643 353.13 427.933 418.85 386.763 477.65C369.253 502.65 348.893 524.99 323.833 542.73C302.853 557.59 279.873 567.59 254.323 571.57C244.343 573.12 234.733 571.57 225.133 569.38C195.273 562.61 169.943 547.38 147.373 527.17C124.583 506.76 106.113 482.78 90.3431 456.71C58.5631 404.19 36.9231 347.68 24.4631 287.61C23.1031 281.07 22.2331 274.5 23.9631 267.82C25.2531 262.84 27.5331 258.54 31.2531 254.97C40.9931 245.61 52.6031 239.05 64.6131 233.23C74.0531 228.66 83.7531 224.63 93.3331 220.34C105.503 214.89 117.583 209.23 128.663 201.74C133.753 198.3 138.723 194.58 143.283 190.47C159.433 175.93 165.433 157.32 164.233 136.05C163.743 127.41 162.823 118.79 162.443 110.14C162.263 106.17 162.843 102.17 163.183 98.19C163.743 91.74 168.873 88.04 174.633 88.09C198.463 88.28 222.293 88.17 246.123 88.17V88L246.113 88.02ZM53.4631 262.69C43.3631 268.65 41.5231 272.04 43.6731 282.1C45.7231 291.69 48.2731 301.19 50.7331 310.69C63.2631 359.05 82.1631 404.76 108.103 447.48C122.693 471.51 139.613 493.74 160.493 512.74C180.523 530.97 203.103 544.68 229.783 550.79C236.083 552.23 242.443 553.92 249.033 553.03C266.403 550.68 282.673 545.09 297.963 536.55C318.293 525.2 335.363 509.94 350.703 492.62C375.003 465.19 393.223 433.87 408.923 400.97C425.203 366.87 437.143 331.26 446.053 294.59C447.233 289.74 448.423 284.87 449.123 279.94C450.333 271.45 448.963 267.81 439.933 262.97C434.143 271.91 425.593 277.35 415.463 280.42C415.373 291.43 412.333 300.84 404.683 308.48C396.933 316.23 387.283 319.12 376.553 319.25C373.643 330.08 367.793 338.31 358.383 343.76C348.973 349.21 338.893 349.92 328.733 347.17C317.053 365.92 296.103 372.94 275.433 361.66C270.403 364.62 265.723 367.81 260.663 370.2C257.743 371.58 256.813 373.17 256.853 376.22C256.983 387.21 257.043 398.22 256.803 409.21C256.723 412.89 257.933 415.41 260.503 417.93C272.033 429.26 283.413 440.73 294.773 452.22C300.043 457.55 300.083 462.7 294.913 467.9C281.523 481.38 268.103 494.81 254.623 508.2C249.663 513.12 244.243 513.14 239.263 508.22C225.763 494.86 212.303 481.45 198.923 467.97C193.943 462.96 193.973 457.73 198.673 452.52C199.563 451.53 200.543 450.62 201.483 449.68C212.323 438.84 223.123 427.97 234.033 417.2C236.063 415.2 237.093 413.18 237.053 410.23C236.893 398.9 236.993 387.57 236.953 376.24C236.953 374.8 236.733 373.36 236.603 371.75C229.523 369.98 223.883 366.28 218.953 361.18C209.433 366.83 199.493 368.66 188.983 365.84C178.493 363.03 170.803 356.43 165.373 347.09C154.583 350.11 144.563 349.08 135.163 343.57C125.783 338.07 120.143 329.67 117.473 319.48C94.7331 319.08 77.8431 304.07 77.5331 280.17C67.4131 277.53 59.1231 272.04 53.4331 262.67L53.4631 262.69ZM305.843 295.42C313.473 281.78 325.223 275.48 340.773 275.47C344.773 260.49 354.323 250.9 368.643 246.89C369.513 241.08 370.293 235.88 371.113 230.37C369.293 229.33 367.443 228.24 365.573 227.2C355.213 221.45 345.243 215.13 336.213 207.41C316.643 190.68 307.173 169.23 306.933 143.73C306.853 135.1 307.983 126.46 308.583 117.83C308.803 114.73 309.393 111.63 308.663 108.64C301.753 107.53 185.643 107.79 181.713 109.01C181.893 112.17 182.073 115.47 182.283 118.76C182.833 127.39 184.023 136.03 183.853 144.65C183.393 168.38 174.833 188.74 157.163 204.99C147.283 214.08 136.083 221.23 124.483 227.85C122.933 228.74 121.433 229.71 120.063 230.55C120.683 234.81 121.603 238.58 121.673 242.36C121.733 245.86 123.193 247.22 126.353 248.24C138.083 252.05 145.783 260.06 149.723 271.72C150.143 272.95 150.653 274.16 151.173 275.54C166.443 275.54 177.693 282.49 185.773 295.41C201.023 291.59 214.453 294.83 225.303 306.29C239.233 298.06 252.733 298.93 266.383 306.31C277.243 294.67 290.583 291.69 305.813 295.39L305.843 295.42ZM391.773 239.8C389.793 245.43 389.733 247.15 391.033 250.92C394.863 262.01 390.853 267.3 379.003 266.78C368.953 266.34 360.663 274.37 360.783 284.46C360.803 286.12 361.083 287.79 361.023 289.45C360.783 296.21 354.403 300.59 348.013 298.43C346.593 297.95 345.233 297.3 343.793 296.89C334.593 294.27 325.233 299.61 322.813 308.86C322.473 310.14 322.323 311.48 322.063 312.78C320.463 320.83 312.893 323.84 306.103 319.15C304.603 318.11 303.113 316.99 301.453 316.26C292.883 312.48 282.103 317.39 278.993 326.36C276.113 334.68 265.513 335.46 260.583 328.94C252.833 318.7 240.803 319.04 232.473 328.92C226.443 336.06 217.583 335.06 214.353 326.41C210.803 316.94 198.003 310.35 187.693 318.86C182.013 323.55 171.923 321 171.003 311.61C170.523 306.71 168.133 302.75 164.153 299.88C158.583 295.86 152.543 294.92 146.253 297.99C138.243 301.9 130.963 294.08 132.253 287.51C132.383 286.86 132.473 286.19 132.513 285.53C133.223 274.88 124.573 266.15 113.893 266.73C112.733 266.79 111.563 266.97 110.403 266.96C103.263 266.91 98.8531 260.78 100.953 253.98C101.693 251.6 102.453 249.19 102.803 246.74C103.123 244.53 103.533 242.09 101.513 240.32C91.8131 243.12 74.3631 251.43 71.1131 255.06C73.0231 256.8 74.7631 258.79 76.8931 260.23C80.4831 262.65 84.5531 263.24 88.8631 262.47C96.5431 261.1 103.373 269.69 99.5831 276.29C99.1731 277 98.9231 277.82 98.6731 278.61C96.5431 285.3 98.0331 291.21 103.003 296.02C107.853 300.71 113.733 301.76 120.143 299.71C121.093 299.41 121.963 298.87 122.913 298.56C129.663 296.33 135.963 300.79 136.033 307.88C136.053 309.71 135.753 311.54 135.773 313.37C135.853 319.94 138.863 324.89 144.503 328.1C150.193 331.34 155.973 331.12 161.583 327.72C162.573 327.12 163.453 326.32 164.413 325.67C170.403 321.6 178.003 324.36 179.903 331.32C180.253 332.6 180.413 333.93 180.663 335.24C181.933 341.97 185.983 346.25 192.443 348.13C199.143 350.08 204.923 348.17 209.773 343.28C210.593 342.46 211.213 341.44 211.993 340.58C216.553 335.53 224.093 335.94 227.883 341.52C228.803 342.88 229.363 344.49 230.113 345.97C232.433 350.53 236.023 353.62 241.003 354.82C250.813 357.19 259.103 351.45 261.663 344.06C264.463 335.98 275.333 334.73 280.003 341.87C283.913 347.86 289.933 350.09 297.023 348.34C304.333 346.54 308.883 341.92 310.403 334.46C310.673 333.15 310.813 331.81 311.203 330.55C313.093 324.39 319.533 321.78 325.203 324.88C326.373 325.52 327.403 326.39 328.543 327.07C334.973 330.94 341.443 331.2 347.853 327.07C354.053 323.07 357.013 317.3 355.703 310.03C354.343 302.45 361.663 295.15 370.033 298.98C377.153 302.24 383.863 300.76 389.333 295.31C394.823 289.85 396.263 283.13 392.983 276.02C389.153 267.71 396.523 260.39 403.503 261.52C407.213 262.12 410.863 261.52 414.183 259.76C417.063 258.23 419.793 256.43 421.203 252.59C411.223 248.24 401.653 244.07 391.783 239.77L391.773 239.8ZM273.163 461.85C264.213 452.83 255.203 443.75 246.763 435.23C237.823 444.14 228.703 453.23 219.323 462.58C228.033 471.19 236.833 480.6 246.153 489.16C255.473 479.74 264.353 470.76 273.173 461.84L273.163 461.85Z" fill="#E9DDB6"/>
<path d="M336.509 617.336C333.419 617.116 330.929 617.036 328.469 616.726C327.169 616.556 325.779 616.206 324.709 615.506C323.689 614.846 322.299 613.556 322.389 612.686C322.519 611.476 323.659 609.816 324.769 609.386C327.199 608.446 329.879 608.086 332.469 607.626C333.719 607.406 335.029 607.486 336.739 607.406C336.739 605.026 336.539 602.876 336.799 600.776C337.059 598.666 337.419 596.436 338.359 594.576C339.899 591.526 343.109 591.496 344.399 594.626C345.509 597.316 345.709 600.396 346.169 603.326C346.369 604.576 346.199 605.876 346.199 607.606C348.019 607.606 349.489 607.466 350.929 607.636C352.899 607.876 354.999 608.006 356.739 608.826C358.229 609.526 360.099 610.966 360.359 612.356C360.799 614.686 358.499 615.696 356.499 616.086C353.269 616.726 349.989 617.086 346.409 617.606C346.319 618.626 346.229 619.736 346.139 620.846C345.989 622.836 345.999 624.846 345.659 626.796C345.069 630.266 343.469 632.226 341.459 632.316C339.319 632.406 337.599 630.266 336.989 626.536C336.749 625.066 336.769 623.556 336.689 622.066C336.609 620.606 336.559 619.136 336.479 617.336H336.509Z" fill="#E9DDB6"/>
<path d="M14.3087 348.086C14.5187 344.476 14.5188 341.666 14.8788 338.886C15.3788 334.956 17.3488 332.396 19.4188 332.566C21.4688 332.726 23.3288 335.436 23.7288 339.206C24.0088 341.836 23.9987 344.496 24.1487 347.746C25.7787 347.846 27.3788 347.766 28.9188 348.066C31.4888 348.576 34.2087 348.936 36.5187 350.056C39.2087 351.366 39.1788 354.056 36.5388 355.436C34.6888 356.406 32.4687 356.776 30.3687 357.116C28.4487 357.436 26.4688 357.356 23.9088 357.486C23.9088 360.026 24.1188 362.336 23.8488 364.576C23.5888 366.676 23.1687 368.906 22.1787 370.736C20.7387 373.406 17.4788 373.366 16.3288 370.576C15.2188 367.886 14.9588 364.826 14.4788 361.906C14.2688 360.636 14.4388 359.296 14.4388 357.406C12.4488 357.326 10.4987 357.416 8.61875 357.116C6.35875 356.746 3.98875 356.386 1.96875 355.396C-0.651248 354.116 -0.661248 351.296 1.96875 350.006C4.13875 348.946 6.67876 348.536 9.09876 348.116C10.6788 347.846 12.3387 348.066 14.3087 348.066V348.086Z" fill="#E9DDB6"/>
<path d="M221.549 24.486C221.269 28.056 221.199 31.026 220.779 33.936C220.229 37.736 218.529 39.896 216.479 39.926C214.459 39.956 212.599 37.696 212.089 34.006C211.689 31.076 211.709 28.086 211.539 24.836C208.649 24.576 205.869 24.456 203.119 24.056C200.659 23.686 198.019 23.176 197.339 20.216C196.889 18.266 199.319 16.396 203.049 15.706C204.509 15.436 206.029 15.436 207.509 15.306C208.789 15.196 210.059 15.086 211.749 14.936C211.749 12.876 211.599 11.066 211.789 9.29601C212.019 7.16601 212.399 5.026 212.989 2.976C213.469 1.326 214.659 -0.383966 216.479 0.0760342C217.829 0.416034 219.409 1.82602 219.909 3.12602C220.769 5.40602 220.939 7.956 221.239 10.416C221.409 11.836 221.269 13.306 221.269 15.036C223.699 15.166 225.689 15.086 227.609 15.436C229.699 15.816 231.889 16.276 233.719 17.276C236.349 18.716 236.359 21.416 233.669 22.646C231.329 23.716 228.599 23.996 226.009 24.446C224.729 24.666 223.379 24.486 221.569 24.486H221.549Z" fill="#E9DDB6"/>
<path d="M466.589 130.076C468.969 131.086 472.449 129.846 473.799 133.386C472.229 136.406 469.039 135.306 466.379 136.576C466.199 138.086 466.209 139.916 465.689 141.576C465.349 142.666 464.239 143.526 463.479 144.486C462.639 143.596 461.399 142.836 461.059 141.786C460.509 140.106 460.559 138.236 460.369 136.556C457.729 135.246 454.369 136.356 452.529 133.256C454.169 130.196 457.349 130.876 460.049 130.216C461.579 127.586 459.559 123.666 463.229 121.626C467.349 123.146 464.989 127.436 466.579 130.056L466.589 130.076Z" fill="#E9DDB6"/>
</svg>
