<svg width="392" height="100" viewBox="0 0 392 100" fill="none" xmlns="http://www.w3.org/2000/svg">
<path d="M136.528 50.6274C136.692 51.0169 136.741 51.4354 136.672 51.8455C136.606 52.2968 136.415 52.7277 136.115 53.1014C135.791 53.5099 135.363 53.8488 134.864 54.0921C134.291 54.3662 133.639 54.4903 132.987 54.4494C132.315 54.4201 131.658 54.2611 131.066 53.9838C130.407 53.6699 129.837 53.2336 129.396 52.7062C128.878 52.0917 128.49 51.4025 128.251 50.6708C127.969 49.7756 127.896 48.8405 128.038 47.9207C128.188 46.3668 128.805 44.8739 129.828 43.5899C130.841 42.3528 132.138 41.3097 133.638 40.5259C135.244 39.6893 136.986 39.0652 138.805 38.6745C140.702 38.2601 142.648 38.0348 144.605 38.0032C146.537 37.974 148.467 38.143 150.354 38.5067C152.119 38.8334 153.82 39.3805 155.403 40.1307C156.827 40.8128 158.066 41.7505 159.038 42.8808C159.98 43.9994 160.506 45.3403 160.545 46.7243C160.585 47.5575 160.41 48.3877 160.032 49.155C159.664 49.91 159.138 50.6 158.481 51.1905C157.797 51.809 157.003 52.3281 156.129 52.7279C155.212 53.1486 154.233 53.4582 153.219 53.6482C154.759 53.8596 156.203 54.4326 157.392 55.3047C158.483 56.0999 159.34 57.1072 159.895 58.2442C160.42 59.3546 160.634 60.5565 160.52 61.7522C160.415 62.9681 159.929 64.136 159.113 65.1302C158.195 66.2184 156.978 67.0912 155.572 67.6691C153.757 68.3955 151.77 68.7423 149.772 68.6814C148.809 68.6871 147.848 68.587 146.913 68.3837C146.109 68.212 145.333 67.9518 144.605 67.6095C143.969 67.3185 143.39 66.9421 142.89 66.4944C142.471 66.1284 142.154 65.6839 141.965 65.1951C141.845 64.9055 141.796 64.5978 141.821 64.2911C141.842 64.0542 141.925 63.8245 142.065 63.6198C142.167 63.4599 142.325 63.3317 142.515 63.2531C142.706 63.1745 142.92 63.1494 143.128 63.1813C143.141 63.6117 143.267 64.0339 143.497 64.4156C143.76 64.8758 144.13 65.2834 144.586 65.612C145.135 66.006 145.775 66.2939 146.463 66.4565C147.365 66.6589 148.306 66.7013 149.228 66.581C150.48 66.4774 151.673 66.0702 152.669 65.4063C153.573 64.7972 154.31 64.0226 154.827 63.138C155.334 62.2688 155.624 61.3171 155.678 60.3447C155.751 59.4066 155.578 58.4665 155.171 57.5946C154.754 56.7376 154.083 55.9908 153.226 55.4292C152.249 54.7978 151.072 54.439 149.854 54.4006C149.352 54.3775 148.849 54.3974 148.352 54.4602C147.77 54.5306 147.157 54.6226 146.475 54.7363C145.793 54.85 145.186 54.9799 144.536 55.1315C143.885 55.283 143.285 55.4509 142.79 55.6187C141.627 59.9819 140.017 63.2914 137.961 65.547C135.904 67.8026 133.377 68.7771 130.378 68.4703C129.24 68.4144 128.155 68.0337 127.294 67.3876C126.633 66.871 126.192 66.1768 126.043 65.4171C125.921 64.6763 126.062 63.9209 126.449 63.2517C126.858 62.526 127.513 61.9255 128.326 61.5302C128.747 61.3296 129.232 61.25 129.709 61.3028C130.243 61.3461 130.574 61.4652 130.703 61.6601C130.461 61.7034 130.231 61.791 130.031 61.917C129.83 62.043 129.663 62.2046 129.54 62.3909C129.257 62.7703 129.083 63.2028 129.033 63.6523C128.987 64.055 129.087 64.4601 129.321 64.8108C129.442 64.9908 129.615 65.1401 129.824 65.2436C130.032 65.3472 130.269 65.4014 130.509 65.4008C131.374 65.4321 132.224 65.2003 132.912 64.7458C133.721 64.2024 134.397 63.5253 134.901 62.7537C135.567 61.759 136.12 60.7111 136.553 59.6247C137.094 58.2817 137.555 56.9157 137.936 55.5321C138.582 53.2981 139.195 51.3673 139.775 49.7396C140.257 48.3519 140.881 47.004 141.639 45.712C142.146 44.8048 142.864 43.9977 143.748 43.3409C144.517 42.8231 145.469 42.5498 146.444 42.5668C147.095 42.5444 147.741 42.6675 148.321 42.9241C148.743 43.1078 149.097 43.3912 149.341 43.7415C148.623 43.8594 147.95 44.1249 147.376 44.5156C146.754 45.0013 146.257 45.5953 145.918 46.2588C145.409 47.25 144.99 48.2745 144.667 49.3228C144.25 50.586 143.781 52.1811 143.26 54.1083C144.227 53.9748 145.27 53.7943 146.388 53.567C147.52 53.3288 148.509 53.096 149.347 52.8741C151.088 52.4489 152.659 51.6129 153.883 50.4596C154.8 49.5828 155.355 48.4668 155.459 47.2873C155.538 46.2924 155.251 45.3014 154.64 44.4561C153.998 43.5846 153.144 42.8455 152.137 42.2907C150.996 41.6555 149.755 41.1668 148.452 40.8399C147.05 40.4615 145.605 40.2164 144.142 40.1091C142.68 40.0103 141.211 40.0594 139.762 40.2552C138.406 40.4286 137.089 40.7829 135.858 41.3054C134.73 41.7845 133.737 42.4719 132.949 43.3193C132.159 44.1885 131.686 45.2422 131.592 46.3454C131.522 46.9842 131.611 47.6285 131.855 48.2347C132.075 48.7887 132.441 49.2909 132.924 49.7017C133.391 50.0953 133.956 50.39 134.576 50.5625C135.206 50.7447 135.883 50.7673 136.528 50.6274Z" fill="url(#paint0_linear_681_355)"/>
<path d="M263.986 45.1707C263.225 45.2896 262.513 45.5789 261.921 46.0098C261.259 46.5523 260.738 47.2113 260.395 47.9424C259.838 49.0627 259.392 50.2217 259.062 51.407C258.645 52.8506 258.134 54.6767 257.529 56.8854C256.366 61.3064 254.758 64.6574 252.706 66.9383C250.654 69.2192 248.089 70.2062 245.011 69.8994C243.874 69.8436 242.792 69.4628 241.933 68.8168C241.275 68.298 240.835 67.6049 240.681 66.8463C240.559 66.1049 240.703 65.3489 241.094 64.6809C241.501 63.954 242.156 63.353 242.971 62.9594C243.392 62.7584 243.877 62.6788 244.354 62.732C244.883 62.7753 245.215 62.8944 245.348 63.0893C245.105 63.1326 244.875 63.2201 244.673 63.3461C244.471 63.472 244.303 63.6336 244.179 63.8201C243.901 64.2017 243.728 64.6331 243.672 65.0815C243.618 65.4972 243.722 65.9168 243.966 66.2778C244.086 66.4582 244.26 66.6078 244.468 66.7114C244.677 66.8151 244.914 66.869 245.155 66.8679C246.016 66.8958 246.862 66.6664 247.551 66.2183C248.362 65.6744 249.038 64.9951 249.54 64.2207C250.208 63.2272 250.761 62.1791 251.192 61.0917C251.735 59.7495 252.197 58.3834 252.574 56.9991C253.225 54.7652 253.84 52.8344 254.42 51.2067C254.893 49.8168 255.511 48.4669 256.266 47.1737C256.769 46.257 257.49 45.4419 258.38 44.7809C259.147 44.2631 260.097 43.9898 261.07 44.0068C261.721 43.9861 262.367 44.1091 262.947 44.3641C263.373 44.5442 263.733 44.8236 263.986 45.1707ZM251.123 52.0566C251.319 52.4386 251.386 52.8609 251.317 53.2747C251.246 53.7257 251.053 54.156 250.754 54.5306C250.428 54.938 250 55.2766 249.503 55.5212C248.93 55.795 248.278 55.9192 247.626 55.8785C246.943 55.8418 246.276 55.6806 245.67 55.4053C245.064 55.1301 244.533 54.7471 244.11 54.2816C243.605 53.715 243.241 53.0644 243.04 52.3706C242.788 51.4855 242.731 50.5673 242.871 49.6639C243.007 48.2245 243.539 46.8343 244.423 45.6092C245.298 44.4211 246.428 43.3885 247.751 42.5668C249.137 41.7066 250.666 41.0348 252.287 40.5746C255.706 39.5775 259.338 39.2466 262.922 39.6056C264.637 39.7782 266.32 40.1421 267.927 40.6883C269.863 41.3106 271.618 42.2917 273.07 43.5629C274.393 44.7499 275.453 46.1371 276.198 47.6555C276.946 49.1832 277.396 50.8076 277.53 52.4626C277.679 54.1464 277.582 55.8397 277.243 57.5026C276.907 59.1573 276.32 60.7663 275.497 62.2881C274.715 63.7567 273.684 65.1161 272.438 66.3211C271.25 67.4629 269.826 68.4028 268.24 69.0928C266.626 69.7829 264.847 70.1352 263.047 70.1214C262.175 70.1336 261.306 70.0201 260.476 69.7858C259.794 69.5879 259.149 69.3052 258.562 68.9467C258.064 68.6384 257.629 68.2617 257.273 67.8315C256.974 67.4669 256.746 67.0629 256.597 66.6351C256.472 66.3468 256.423 66.0379 256.453 65.7311C256.475 65.495 256.556 65.2659 256.691 65.0598C256.805 64.8931 256.975 64.7608 257.179 64.6809C257.362 64.6134 257.564 64.5927 257.761 64.6213C257.767 65.0631 257.882 65.4987 258.099 65.8989C258.33 66.3369 258.659 66.7307 259.068 67.0574C259.515 67.4054 260.036 67.6756 260.601 67.8532C261.246 68.0515 261.938 68.1091 262.616 68.021C264.28 67.8695 265.831 67.216 266.995 66.175C268.319 65.0113 269.38 63.6434 270.123 62.1419C270.969 60.4707 271.54 58.7049 271.818 56.8963C272.126 55.049 272.1 53.1717 271.743 51.3312C271.404 49.5673 270.671 47.8774 269.585 46.3562C268.512 44.8529 266.952 43.6557 265.099 42.9132C263.897 42.4235 262.639 42.0443 261.346 41.7818C260.008 41.5043 258.641 41.3483 257.267 41.3163C255.948 41.2854 254.63 41.3853 253.338 41.614C252.136 41.8184 250.982 42.1934 249.922 42.7238C248.924 43.2339 248.069 43.929 247.419 44.7592C246.732 45.6639 246.322 46.7055 246.231 47.7854C246.162 48.4246 246.254 49.0689 246.5 49.6747C246.718 50.2282 247.083 50.7303 247.563 51.1417C248.023 51.5315 248.579 51.8258 249.19 52.0025C249.815 52.1813 250.486 52.2001 251.123 52.0566Z" fill="url(#paint1_linear_681_355)"/>
<path d="M177.994 68.4703C177.447 68.4688 176.91 68.3392 176.441 68.0952C175.972 67.8512 175.587 67.502 175.329 67.0844C174.671 66.0533 174.296 64.9048 174.234 63.7281C174.051 60.653 174.859 57.5943 176.568 54.8933C177.425 53.5387 178.559 52.33 179.915 51.3258C181.244 50.3342 182.897 49.725 184.644 49.5827C185.853 49.4328 187.086 49.5713 188.211 49.9832C189.14 50.2716 189.91 50.8512 190.369 51.6073C190.576 51.9892 190.691 52.4037 190.707 52.8253C190.743 53.2866 190.644 53.7483 190.419 54.1679C190.173 54.6074 189.763 54.9623 189.255 55.1748C188.538 55.4474 187.74 55.5211 186.972 55.3859C187.015 55.0949 186.986 54.7992 186.886 54.519C186.785 54.2387 186.616 53.9805 186.39 53.7619C186.121 53.5418 185.797 53.3784 185.443 53.2845C185.09 53.1906 184.716 53.1687 184.35 53.2205C183.339 53.3342 182.405 53.7496 181.71 54.3952C180.843 55.1439 180.121 56.0085 179.571 56.9558C178.961 57.9959 178.467 59.0834 178.094 60.2039C177.731 61.2378 177.488 62.3005 177.369 63.3762C177.259 64.1823 177.307 64.9986 177.512 65.7906C177.706 66.4348 178.094 66.7542 178.676 66.7542C179.358 66.7542 180.052 66.3753 180.766 65.6228C181.535 64.7832 182.199 63.876 182.749 62.9161C183.371 61.8617 183.923 60.7772 184.4 59.668C184.888 58.5636 185.276 57.6758 185.564 57.0045C185.648 56.7802 185.8 56.5797 186.005 56.4243C186.21 56.269 186.46 56.1645 186.728 56.1221C187.309 56.0073 187.917 56.0373 188.48 56.2087C189.039 56.362 189.535 56.6537 189.906 57.0478C190.089 57.238 190.206 57.4686 190.245 57.7136C190.284 57.9586 190.242 58.2081 190.125 58.4337C189.806 59.1862 189.405 60.0577 188.936 60.9943C188.467 61.9308 188.079 62.8403 187.773 63.701C187.494 64.3979 187.346 65.129 187.335 65.8664C187.32 65.987 187.337 66.1089 187.385 66.2229C187.433 66.3369 187.51 66.44 187.611 66.5245C187.711 66.6089 187.833 66.6725 187.966 66.7104C188.099 66.7483 188.241 66.7596 188.379 66.7434C188.775 66.7111 189.158 66.6112 189.508 66.4495C189.859 66.2878 190.168 66.0675 190.419 65.8014C191.168 65.1362 191.842 64.4112 192.433 63.636C193.029 62.8599 193.57 62.0537 194.054 61.2216C194.511 60.4367 194.817 59.8899 194.98 59.5976C195.086 59.3477 195.25 59.1193 195.461 58.9263C195.577 58.7987 195.741 58.7105 195.924 58.6773C196.037 58.6773 196.112 58.7531 196.143 58.9047C196.154 59.1467 196.087 59.3867 195.949 59.5976C195.818 59.825 195.637 60.1985 195.393 60.7344C195.149 61.2704 194.848 61.8658 194.492 62.5371C194.135 63.2084 193.716 63.9013 193.241 64.6159C192.773 65.3061 192.237 65.96 191.639 66.5702C191.097 67.1275 190.465 67.6143 189.762 68.0156C189.115 68.3867 188.355 68.5845 187.579 68.584C186.892 68.6168 186.214 68.4385 185.664 68.0805C185.195 67.7456 184.835 67.3109 184.619 66.8192C184.389 66.2891 184.267 65.7288 184.257 65.1626C184.239 64.5797 184.278 63.9965 184.375 63.4195C184.064 64.1282 183.692 64.8158 183.262 65.4766C182.876 66.0839 182.394 66.6414 181.829 67.1332C181.323 67.5774 180.733 67.9436 180.084 68.2159C179.423 68.4514 178.704 68.5389 177.994 68.4703Z" fill="url(#paint2_linear_681_355)"/>
<path d="M212.535 59.4839C212.854 58.9425 213.16 58.6123 213.479 58.5419C213.798 58.4716 213.792 58.7855 213.479 59.4839C212.87 60.9632 212.012 62.3568 210.933 63.6198C210.005 64.7015 208.91 65.6686 207.68 66.4943C206.608 67.2094 205.402 67.7589 204.114 68.1184C202.965 68.4453 201.756 68.5866 200.548 68.5352C199.456 68.4898 198.389 68.2405 197.42 67.8044C196.452 67.3612 195.639 66.7012 195.067 65.8934C194.429 65.0208 194.093 64.0083 194.098 62.9756C194.071 61.7827 194.25 60.593 194.629 59.446C195.041 58.1792 195.627 56.9597 196.375 55.8135C197.115 54.6578 198.018 53.5867 199.065 52.625C200.031 51.7347 201.154 50.9836 202.393 50.4001C203.518 49.8598 204.794 49.6011 206.078 49.653C207.747 49.7396 208.96 50.1745 209.719 50.9576C210.46 51.7321 210.87 52.7028 210.883 53.7077C210.903 54.8074 210.638 55.897 210.107 56.8962C209.626 57.8942 208.877 58.7791 207.924 59.4785C207.283 59.9509 206.515 60.2766 205.69 60.4258C205.004 60.5577 204.289 60.5202 203.626 60.3176C203.057 60.1433 202.577 59.8024 202.268 59.354C202.116 59.119 202.026 58.8576 202.006 58.5888C201.985 58.3199 202.034 58.0506 202.149 57.8003C202.568 57.8052 202.984 57.7374 203.372 57.6007C203.76 57.464 204.112 57.2612 204.408 57.0045C205.081 56.4692 205.618 55.8184 205.984 55.0935C206.323 54.4634 206.448 53.7635 206.347 53.0743C206.306 52.7808 206.153 52.5077 205.911 52.2986C205.67 52.0896 205.354 51.9567 205.015 51.9212C204.474 51.831 203.918 51.8368 203.381 51.9382C202.843 52.0397 202.335 52.2346 201.887 52.5113C200.916 53.1028 200.105 53.8693 199.509 54.7579C198.844 55.7349 198.361 56.7963 198.077 57.9031C197.777 58.982 197.703 60.0985 197.858 61.1999C197.991 62.1762 198.437 63.1007 199.146 63.8688C199.523 64.2508 199.988 64.5614 200.51 64.7812C201.032 65.0011 201.601 65.1253 202.181 65.1464C203.399 65.2684 204.634 65.1838 205.815 64.8974C206.843 64.6331 207.811 64.2214 208.681 63.6793C209.52 63.1469 210.264 62.5103 210.889 61.79C211.521 61.0683 212.072 60.2961 212.535 59.4839Z" fill="url(#paint3_linear_681_355)"/>
<path d="M234.187 59.4839C233.671 60.6366 232.988 61.728 232.154 62.732C231.305 63.7734 230.327 64.7318 229.239 65.5903C228.231 66.3932 227.106 67.0776 225.892 67.6258C224.88 68.1085 223.749 68.374 222.595 68.3999C221.672 68.422 220.768 68.1782 220.023 67.707C219.758 67.5471 219.511 67.3659 219.285 67.1656C218.88 66.7871 218.547 66.356 218.297 65.888C217.876 65.0839 217.662 64.2102 217.671 63.3275C217.686 62.3201 217.969 61.3292 218.497 60.4312C219.501 60.5993 220.534 60.5845 221.531 60.3879C222.446 60.2066 223.322 59.9015 224.127 59.4839C224.882 59.0954 225.568 58.616 226.167 58.0601C226.695 57.5793 227.136 57.0317 227.474 56.4361C227.742 55.9805 227.891 55.4798 227.912 54.969C227.926 54.7755 227.885 54.5821 227.792 54.4056C227.699 54.2291 227.558 54.075 227.381 53.9567C226.955 53.7348 226.286 53.751 225.366 54C224.262 54.3365 223.229 54.8265 222.307 55.4508C221.064 56.2681 219.925 57.1972 218.91 58.2225C218.312 58.8123 217.766 59.4402 217.277 60.101C216.776 60.772 216.324 61.47 215.925 62.1906L214.049 66.765C213.936 67.0579 213.792 67.3407 213.617 67.6095C213.429 67.9296 213.132 68.1922 212.766 68.362C212.547 68.4612 212.293 68.4879 212.052 68.4371C211.812 68.3863 211.601 68.2615 211.459 68.0859C211.007 67.5102 210.762 66.8326 210.752 66.137C210.694 64.9429 210.874 63.749 211.283 62.6075C211.446 62.0661 211.684 61.3461 211.99 60.4421C212.297 59.538 212.653 58.4878 213.054 57.3564C213.354 56.5281 213.679 55.6457 214.024 54.72C214.149 54.3844 214.28 54.0379 214.418 53.6806C214.918 52.3652 215.444 51.0389 215.994 49.6909C216.463 48.5432 216.933 47.4822 217.389 46.5023C217.64 46.053 217.896 45.6145 218.159 45.2031C219.954 43.7469 221.45 43.9255 222.776 44.9433C222.359 45.7878 221.942 46.7135 221.525 47.7204C220.98 48.9925 220.455 50.3026 219.954 51.6019C219.704 52.2569 219.479 52.9227 219.254 53.5832C219.029 54.2436 217.934 57.0424 217.934 57.0424L218.19 56.7284C219.224 55.4855 220.346 54.2995 221.55 53.1772C222.484 52.2843 223.496 51.4554 224.578 50.6978C225.312 50.2323 226.145 49.8974 227.03 49.7125C227.911 49.5058 228.838 49.4927 229.727 49.6747C230.565 49.8537 231.302 50.2831 231.81 50.8873C232.361 51.5206 232.554 52.4626 232.392 53.7239C232.219 54.8644 231.746 55.9553 231.009 56.9125C230.251 57.9208 229.288 58.8028 228.169 59.5164C227.081 60.2153 225.873 60.7633 224.59 61.1404C224.515 61.1404 224.44 61.1891 224.365 61.2054C222.997 61.5942 221.554 61.7523 220.117 61.6709C220.12 62.0717 220.202 62.4692 220.361 62.8456C220.68 63.6117 221.327 64.2419 222.169 64.605C222.235 64.6382 222.304 64.6671 222.376 64.6916C222.708 64.819 223.06 64.9046 223.42 64.9461C223.661 64.9728 223.903 64.9855 224.146 64.984C225.072 64.9798 225.99 64.8388 226.861 64.5671C227.771 64.284 228.629 63.8883 229.408 63.3924C230.207 62.8824 230.939 62.2978 231.591 61.6493C232.237 61.0144 232.768 60.299 233.168 59.5272C233.493 58.9155 233.793 58.6231 234.093 58.6664C234.394 58.7097 234.45 58.9534 234.187 59.4839Z" fill="url(#paint4_linear_681_355)"/>
<path d="M282.617 69.8614C282.068 69.8614 281.53 69.7325 281.059 69.4884C280.589 69.2444 280.204 68.8942 279.945 68.4755C279.286 67.4451 278.913 66.296 278.857 65.1192C278.753 63.6465 278.89 62.1685 279.263 60.7288C279.646 59.1717 280.293 57.6721 281.184 56.279C282.041 54.9244 283.175 53.7157 284.531 52.7115C285.86 51.7199 287.513 51.1107 289.261 50.9683C290.469 50.8185 291.702 50.957 292.827 51.3689C293.756 51.6573 294.526 52.2369 294.985 52.993C295.192 53.3754 295.308 53.7893 295.329 54.211C295.363 54.6728 295.262 55.1344 295.035 55.5535C294.79 55.9931 294.379 56.3479 293.871 56.5605C293.154 56.8331 292.356 56.9068 291.588 56.7716C291.634 56.4805 291.606 56.1843 291.505 55.9037C291.405 55.623 291.234 55.3649 291.006 55.1475C290.738 54.9279 290.415 54.7648 290.063 54.6709C289.71 54.577 289.337 54.5549 288.973 54.6062C287.96 54.7213 287.025 55.1364 286.327 55.7809C285.459 56.5284 284.739 57.3933 284.193 58.3415C283.579 59.3803 283.083 60.4681 282.71 61.5896C282.348 62.6236 282.104 63.6862 281.985 64.7619C281.875 65.5679 281.923 66.3843 282.129 67.1763C282.323 67.8205 282.71 68.1399 283.292 68.1399C283.974 68.1399 284.669 67.7609 285.382 67.0085C286.15 66.1672 286.816 65.2602 287.371 64.3017C287.987 63.2457 288.537 62.1614 289.017 61.0536C289.505 59.9493 289.893 59.0615 290.18 58.3902C290.265 58.1655 290.419 57.9648 290.625 57.8094C290.831 57.6541 291.081 57.5499 291.35 57.5078C291.93 57.3958 292.534 57.4258 293.096 57.5944C293.657 57.7488 294.154 58.0402 294.528 58.4335C294.711 58.6239 294.827 58.8548 294.865 59.1C294.903 59.3451 294.86 59.5944 294.741 59.8194C294.422 60.5718 294.022 61.4434 293.552 62.38C293.083 63.3165 292.695 64.226 292.389 65.0867C292.108 65.783 291.962 66.5147 291.957 67.2521C291.942 67.3724 291.958 67.4942 292.005 67.6083C292.052 67.7223 292.129 67.8256 292.229 67.9101C292.329 67.9947 292.45 68.0584 292.583 68.0963C292.716 68.1343 292.857 68.1455 292.996 68.1291C293.391 68.0973 293.775 67.9977 294.125 67.8359C294.475 67.6742 294.785 67.4536 295.035 67.1871C295.784 66.5219 296.458 65.7968 297.05 65.0217C297.646 64.2451 298.189 63.4389 298.676 62.6073C299.127 61.8242 299.433 61.2828 299.596 60.9833C299.706 60.7341 299.872 60.506 300.084 60.312C300.278 60.1442 300.428 60.063 300.541 60.063C300.653 60.063 300.728 60.1388 300.76 60.2903C300.771 60.5324 300.703 60.7724 300.566 60.9833C300.434 61.2106 300.253 61.5896 300.009 62.1201C299.765 62.6506 299.465 63.2515 299.108 63.9228C298.751 64.5941 298.332 65.287 297.857 66.0016C297.389 66.6918 296.853 67.3456 296.255 67.9558C295.713 68.5132 295.081 69 294.378 69.4012C293.731 69.773 292.972 69.9708 292.195 69.9696C291.508 70.0025 290.83 69.8242 290.28 69.4662C289.812 69.1313 289.452 68.6966 289.236 68.2048C289.006 67.6748 288.883 67.1144 288.873 66.5483C288.857 65.9653 288.899 65.3821 288.998 64.8052C288.683 65.5135 288.309 66.201 287.878 66.8623C287.492 67.4695 287.01 68.0271 286.445 68.5188C285.939 68.9631 285.349 69.3293 284.7 69.6015C284.042 69.8389 283.325 69.9283 282.617 69.8614Z" fill="url(#paint5_linear_681_355)"/>
<path d="M305.058 52.2677C304.801 53.2205 304.476 54.3086 304.088 55.5158C303.7 56.723 303.281 57.9898 302.837 59.3053C303.95 57.629 305.214 56.0308 306.615 54.5252C307.534 53.5203 308.64 52.6549 309.887 51.9646C310.819 51.4387 311.871 51.0951 312.972 50.9577C313.791 50.8516 314.628 51.0075 315.324 51.3962C315.649 51.6038 315.916 51.8723 316.105 52.1817C316.293 52.491 316.398 52.8331 316.413 53.1826C316.493 54.0132 316.378 54.8492 316.075 55.6403C315.72 56.6658 315.303 57.6742 314.824 58.6611C314.323 59.7113 313.798 60.7615 313.247 61.8117C312.696 62.8619 312.227 63.8093 311.839 64.6646C311.504 65.3588 311.269 66.0861 311.139 66.83C311.057 67.4038 311.226 67.7449 311.645 67.8586C311.925 67.9031 312.212 67.8963 312.488 67.8384C312.764 67.7806 313.022 67.6731 313.247 67.5229C313.966 67.1085 314.618 66.6134 315.186 66.0505C315.932 65.3324 316.606 64.561 317.201 63.7443C317.875 62.8321 318.467 61.8765 318.971 60.886C319.159 60.4699 319.405 60.0754 319.703 59.7113C319.929 59.4623 320.104 59.3323 320.235 59.3323C320.367 59.3323 320.41 59.4623 320.379 59.7113C320.294 60.118 320.147 60.5131 319.941 60.886C319.685 61.4274 319.265 62.2286 318.69 63.2409C318.079 64.2881 317.372 65.291 316.575 66.24C315.778 67.2132 314.834 68.089 313.766 68.8438C312.842 69.541 311.664 69.9339 310.438 69.9536C310.067 69.9685 309.696 69.9165 309.349 69.8009C309.003 69.6854 308.687 69.5088 308.423 69.2823C307.879 68.7605 307.526 68.1104 307.41 67.4147C307.228 66.4775 307.228 65.5206 307.41 64.5834C307.622 63.3574 307.954 62.1494 308.405 60.9726C308.599 60.4962 308.818 59.9766 309.03 59.419L309.737 57.7949C309.963 57.2806 310.175 56.8097 310.363 56.3874C310.551 55.9652 310.682 55.662 310.751 55.4671C310.125 55.4671 309.343 55.8028 308.373 56.474C307.247 57.2811 306.222 58.1883 305.314 59.1808C304.174 60.4057 303.145 61.7052 302.236 63.0676C301.259 64.5009 300.422 66.002 299.734 67.5554L299.49 68.1455C299.133 69.0116 298.689 69.5476 298.157 69.7695C297.921 69.8683 297.653 69.8948 297.397 69.8446C297.142 69.7944 296.913 69.6706 296.749 69.4934C296.259 68.9264 295.964 68.2507 295.899 67.5446C295.77 66.3545 295.919 65.1543 296.337 64.015C296.499 63.5115 296.768 62.8349 297.137 61.9795C297.506 61.1242 297.944 60.166 298.451 59.105C298.958 58.0439 299.477 56.9017 300.028 55.6837C300.578 54.4656 301.091 53.2097 301.579 51.9267C301.769 51.4106 302.122 50.9509 302.599 50.6004C302.957 50.3133 303.419 50.143 303.907 50.1186C304.112 50.1184 304.315 50.1648 304.494 50.2531C304.673 50.3414 304.822 50.4686 304.926 50.6221C305.205 51.1375 305.252 51.7241 305.058 52.2677Z" fill="url(#paint6_linear_681_355)"/>
<path d="M342.52 61.9687C341.677 62.4151 340.731 62.6943 339.748 62.7861C338.895 62.8606 338.033 62.8038 337.202 62.6183C336.441 62.447 335.714 62.1788 335.044 61.8225C334.464 61.5205 333.941 61.1446 333.492 60.7073C333.428 61.4082 333.46 62.1132 333.586 62.8078C333.704 63.4433 333.952 64.0556 334.318 64.6159C334.665 65.1374 335.146 65.5821 335.726 65.9151C336.368 66.2705 337.1 66.486 337.859 66.5431C339.088 66.6641 340.333 66.5796 341.525 66.294C342.559 66.0321 343.534 65.6203 344.409 65.076C345.249 64.5436 345.993 63.907 346.618 63.1867C347.243 62.4626 347.788 61.6886 348.244 60.8752C348.377 60.6324 348.547 60.4066 348.751 60.2039C348.859 60.075 349.013 59.98 349.189 59.9332C349.301 59.9332 349.377 59.9873 349.408 60.1443C349.417 60.3983 349.35 60.6499 349.214 60.8752C348.571 62.3365 347.697 63.7138 346.618 64.9677C345.684 66.0545 344.581 67.0237 343.339 67.8477C342.254 68.5647 341.041 69.1242 339.748 69.5042C338.62 69.8443 337.426 69.9932 336.232 69.9427C335.141 69.8991 334.073 69.6496 333.104 69.2119C332.136 68.7687 331.324 68.1088 330.752 67.301C330.114 66.4269 329.77 65.4167 329.757 64.3831C329.715 63.1895 329.894 61.9977 330.289 60.8535C330.718 59.5903 331.312 58.3735 332.059 57.2265C332.797 56.0668 333.704 54.9935 334.756 54.0325C335.727 53.1503 336.849 52.4034 338.084 51.8184C339.197 51.2731 340.466 51.0122 341.744 51.0659C342.801 51.0647 343.837 51.3259 344.728 51.8184C345.426 52.2336 345.968 52.8172 346.286 53.4966C346.599 54.2127 346.723 54.9803 346.649 55.7432C346.579 56.573 346.357 57.388 345.992 58.1576C345.621 58.9446 345.131 59.6856 344.534 60.3609C343.987 61.003 343.304 61.5487 342.52 61.9687ZM340.724 53.3071C339.891 53.1927 339.037 53.2964 338.272 53.6048C337.486 53.9266 336.783 54.3834 336.207 54.9474C335.568 55.5659 335.044 56.2673 334.656 57.0262C334.236 57.8237 333.928 58.6614 333.736 59.5218C334.124 59.8311 334.576 60.0736 335.069 60.2364C335.874 60.4737 336.739 60.5168 337.571 60.3609C338.195 60.2924 338.784 60.0749 339.273 59.7329C339.826 59.3663 340.316 58.9345 340.73 58.4499C341.147 57.964 341.496 57.437 341.769 56.88C342.028 56.3732 342.192 55.8342 342.257 55.283C342.319 54.8322 342.217 54.3758 341.963 53.9784C341.829 53.7932 341.648 53.6373 341.433 53.5227C341.218 53.4081 340.976 53.3381 340.724 53.3179V53.3071Z" fill="url(#paint7_linear_681_355)"/>
<path d="M372.65 59.9385C372.465 59.9815 372.302 60.0767 372.187 60.2092C371.987 60.4073 371.831 60.6346 371.724 60.8804C371.356 61.5947 370.938 62.289 370.472 62.9592C370.335 63.1595 370.197 63.3598 370.053 63.5601C369.649 64.1402 369.21 64.7021 368.74 65.2437C368.152 65.9172 367.486 66.5359 366.75 67.0897C366.258 67.5208 365.607 67.789 364.911 67.8476C364.391 67.8476 364.016 67.5499 363.791 66.9652C363.542 66.187 363.444 65.3783 363.503 64.5724C363.555 63.3822 363.71 62.197 363.966 61.0266C364.264 59.5646 364.659 58.1186 365.148 56.6958C365.68 55.1476 366.268 53.5723 366.938 52.0673L368.114 49.4093L368.79 47.8827C369.184 47.0111 369.559 46.2262 369.928 45.5224C368.521 44.2881 366.938 43.9525 364.998 45.5224C364.22 46.7712 363.541 48.0644 362.965 49.393C361.856 51.8924 360.965 54.4602 360.3 57.0748C359.986 58.3154 359.748 59.5695 359.587 60.8317C359.493 61.595 359.437 62.3259 359.424 63.0242V63.6251C359.371 65.2137 359.78 66.7885 360.613 68.2049C360.959 68.7532 361.478 69.2054 362.109 69.5091C362.74 69.8128 363.458 69.9556 364.179 69.921C365.26 69.8945 366.287 69.5064 367.044 68.8383C367.995 68.0676 368.835 67.2006 369.547 66.256C369.759 65.98 369.966 65.7147 370.172 65.4169C370.663 64.7171 371.107 63.9942 371.505 63.2516C372.034 62.2446 372.452 61.4471 372.756 60.8588C372.892 60.6336 372.959 60.3819 372.95 60.128C372.856 59.9872 372.775 59.9385 372.65 59.9385Z" fill="url(#paint8_linear_681_355)"/>
<path d="M360.337 59.9386C360.152 59.9816 359.989 60.0769 359.874 60.2093C359.677 60.4088 359.521 60.6358 359.411 60.8806C359.044 61.5949 358.626 62.2891 358.16 62.9594L357.747 63.5603C357.322 64.1395 356.871 64.7079 356.39 65.2493C355.799 65.9202 355.133 66.5386 354.4 67.0953C353.906 67.5268 353.253 67.7949 352.555 67.8532C352.035 67.8532 351.666 67.5554 351.441 66.9708C351.186 66.1935 351.087 65.3843 351.147 64.578C351.202 63.388 351.357 62.2029 351.61 61.0322C351.91 59.57 352.307 58.1241 352.799 56.7014C353.324 55.1531 353.912 53.5778 354.582 52.0729L355.758 49.4148L356.433 47.8882C356.826 47.0185 357.207 46.2317 357.578 45.528C356.164 44.2937 354.588 43.9581 352.642 45.528C351.868 46.778 351.191 48.0711 350.615 49.3986C349.504 51.8979 348.612 54.4657 347.944 57.0803C347.63 58.321 347.392 59.575 347.231 60.8373C347.137 61.6006 347.087 62.3314 347.074 63.0297C347.074 63.2355 347.074 63.4358 347.074 63.6306C347.023 65.2198 347.434 66.7945 348.269 68.2104C348.614 68.7596 349.133 69.2125 349.764 69.5164C350.396 69.8202 351.114 69.9625 351.835 69.9265C352.914 69.8986 353.939 69.5107 354.694 68.8438C355.643 68.0716 356.483 67.2048 357.197 66.2616C357.409 65.9855 357.61 65.7202 357.822 65.4225C358.315 64.7239 358.76 64.0008 359.155 63.2571C359.685 62.2502 360.102 61.4526 360.406 60.8643C360.539 60.6382 360.606 60.3872 360.6 60.1335C360.55 59.9819 360.462 59.917 360.337 59.9386Z" fill="url(#paint9_linear_681_355)"/>
<path d="M392 60.1823C391.969 60.0307 391.9 59.9549 391.787 59.9549C391.675 59.9549 391.518 60.0361 391.324 60.2039C391.112 60.3979 390.947 60.626 390.836 60.8752C390.674 61.1856 390.367 61.7269 389.917 62.4992C389.429 63.3309 388.886 64.1371 388.29 64.9137C387.699 65.6888 387.024 66.4138 386.276 67.079C386.025 67.3461 385.716 67.5674 385.366 67.73C385.016 67.8927 384.632 67.9934 384.236 68.0264C384.097 68.0419 383.956 68.0299 383.823 67.9912C383.69 67.9526 383.569 67.8884 383.469 67.8034C383.369 67.7185 383.293 67.615 383.246 67.5008C383.199 67.3865 383.182 67.2645 383.197 67.144C383.203 66.4066 383.349 65.6749 383.629 64.9786C383.942 64.1413 384.332 63.2391 384.799 62.2719C385.262 61.3191 385.662 60.4638 385.988 59.7113C386.103 59.4854 386.144 59.2362 386.105 58.9915C386.067 58.7468 385.95 58.5161 385.769 58.3254C385.395 57.9321 384.897 57.6407 384.336 57.4864C383.774 57.3205 383.171 57.2905 382.591 57.3997C382.323 57.4421 382.073 57.5466 381.868 57.7019C381.663 57.8573 381.511 58.0578 381.427 58.2821L380.263 61.0214C379.779 62.1284 379.228 63.2126 378.612 64.2694C378.062 65.2303 377.395 66.1377 376.622 66.9762C375.909 67.7287 375.215 68.1076 374.533 68.1076C373.951 68.1076 373.563 67.7882 373.369 67.144C373.164 66.352 373.115 65.5357 373.225 64.7296C373.345 63.654 373.589 62.5914 373.951 61.5573C374.323 60.4358 374.82 59.348 375.434 58.3092C375.979 57.361 376.7 56.4962 377.567 55.7486C378.266 55.1041 379.201 54.689 380.213 54.5739C380.577 54.5222 380.951 54.5441 381.303 54.638C381.656 54.7319 381.979 54.8953 382.247 55.1153C382.475 55.3328 382.646 55.5908 382.747 55.8712C382.849 56.1517 382.879 56.4479 382.835 56.7393C383.6 56.8733 384.395 56.8015 385.112 56.5336C385.619 56.3179 386.029 55.9616 386.276 55.5213C386.502 55.1021 386.603 54.6405 386.57 54.1787C386.554 53.757 386.439 53.3426 386.232 52.9607C385.768 52.2055 384.997 51.6266 384.067 51.3366C382.943 50.9247 381.71 50.7862 380.501 50.936C378.754 51.0805 377.102 51.6894 375.771 52.6792C374.417 53.6849 373.283 54.8933 372.424 56.2467C371.533 57.639 370.888 59.1389 370.51 60.6965C370.276 61.6268 370.13 62.5718 370.072 63.5224C370.037 64.0435 370.037 64.5658 370.072 65.0869C370.072 65.1952 370.072 65.298 370.103 65.4009C370.194 66.4697 370.555 67.5083 371.161 68.4432C371.42 68.8616 371.805 69.2114 372.275 69.4554C372.745 69.6994 373.284 69.8286 373.832 69.8291C374.542 69.8618 375.25 69.7389 375.89 69.4718C376.54 69.1984 377.132 68.8324 377.642 68.3891C378.203 67.8958 378.683 67.3385 379.068 66.7326C379.498 66.0708 379.872 65.3833 380.188 64.6755C380.089 65.2524 380.047 65.8355 380.063 66.4186C380.072 66.9853 380.197 67.5462 380.432 68.0751C380.646 68.5665 381.004 69.0012 381.471 69.3365C382.022 69.6952 382.703 69.8736 383.391 69.8399C384.168 69.8394 384.927 69.6418 385.575 69.2715C386.277 68.8692 386.909 68.3826 387.452 67.8261C388.052 67.2173 388.588 66.5632 389.053 65.8718C389.535 65.1573 389.96 64.4643 390.305 63.7931C390.649 63.1218 390.93 62.5209 391.199 61.9904C391.468 61.4599 391.631 61.0809 391.756 60.8535C391.907 60.6536 391.992 60.4212 392 60.1823Z" fill="url(#paint10_linear_681_355)"/>
<path d="M341.587 46.6431C341.115 46.5188 340.623 46.4621 340.13 46.4752C339.642 46.4752 338.691 46.4752 337.264 46.4374L332.122 46.3074L330.426 46.2262C330.07 46.2262 329.732 46.2262 329.407 46.2262C329.081 46.2262 328.819 46.1937 328.506 46.1721H328.387C328.475 45.9795 328.542 45.7801 328.587 45.5766C327.179 44.3423 325.597 44.0067 323.657 45.5766C323.576 45.7011 323.501 45.831 323.419 45.961C321.017 45.8491 318.621 45.7174 316.231 45.5658C313.841 45.4142 311.587 45.2338 309.468 45.0244C308.43 44.9108 307.773 45.0244 307.504 45.398C307.369 45.59 307.31 45.815 307.336 46.0387C307.362 46.2624 307.471 46.4726 307.648 46.6376C308.155 47.1996 308.812 47.6471 309.562 47.9423C310.603 48.3756 311.758 48.5624 312.909 48.4836L322.206 48.1913C322.012 48.5973 321.818 49.0142 321.624 49.4472C320.111 52.799 319.028 56.2846 318.396 59.8411C317.945 62.5479 317.62 65.7635 319.272 68.2591C319.634 68.8205 320.171 69.2821 320.823 69.5908C321.691 69.9293 322.648 70.0601 323.595 69.9697C324.494 69.9268 325.368 69.6946 326.141 69.2931C326.36 69.1787 326.569 69.0502 326.766 68.9087C327.826 68.1747 328.765 67.3186 329.557 66.3644C330.363 65.4178 331.077 64.4146 331.69 63.3653C332.291 62.344 332.737 61.5247 333.029 60.9076C333.165 60.6824 333.232 60.4307 333.223 60.1768C333.192 60.0198 333.117 59.9494 333.004 59.9656C332.823 60.0165 332.663 60.1103 332.541 60.2363C332.329 60.4292 332.165 60.6577 332.059 60.9076C331.676 61.6433 331.228 62.3527 330.72 63.0297C330.464 63.3815 330.201 63.728 329.92 64.0636C329.638 64.3993 329.407 64.6645 329.138 64.9569L328.731 65.3791C328.054 66.0804 327.281 66.7075 326.429 67.2468C325.793 67.7044 324.977 67.9314 324.151 67.8802H324.026H323.932C323.657 67.8106 323.404 67.6848 323.196 67.5134C322.988 67.3419 322.831 67.1298 322.737 66.8949C322.554 66.486 322.432 66.0584 322.375 65.6227C322.329 65.2632 322.306 64.9017 322.306 64.54C322.325 63.3769 322.463 62.2175 322.719 61.0754C322.944 59.9927 323.232 58.91 323.563 57.8273C323.895 56.7446 324.352 55.6619 324.771 54.5792C325.19 53.4965 325.653 52.4138 326.022 51.3311C326.391 50.2484 326.91 49.2848 327.373 48.2671C327.387 48.2277 327.416 48.1934 327.455 48.1697C327.492 48.15 327.536 48.1405 327.58 48.1426C329.557 48.1426 331.534 48.0181 333.511 47.964L338.672 47.8232L340.092 47.7853C340.619 47.7827 341.142 47.7116 341.644 47.5742C341.969 47.4605 342.125 47.336 342.107 47.1952C342.088 47.0545 341.944 46.7567 341.587 46.6431ZM310.726 46.9408C309.868 46.9408 309.168 46.7513 309.168 46.5185C309.168 46.2858 309.868 46.0963 310.726 46.0963C311.583 46.0963 312.29 46.2858 312.29 46.5185C312.29 46.7513 311.589 46.9462 310.726 46.9462V46.9408Z" fill="url(#paint11_linear_681_355)"/>
<path d="M175.948 58.5039C175.763 58.5494 175.6 58.6464 175.485 58.78C175.285 58.9776 175.128 59.2051 175.022 59.4513C174.652 60.1645 174.234 60.8586 173.771 61.5301C173.634 61.7304 173.496 61.9307 173.352 62.1255C172.935 62.7092 172.482 63.273 171.994 63.8145C171.409 64.4909 170.742 65.1115 170.005 65.666C169.521 66.0988 168.877 66.3708 168.184 66.4347C167.665 66.4347 167.29 66.1423 167.065 65.5523C166.811 64.7747 166.714 63.9655 166.777 63.1595C166.83 61.9696 166.983 60.7846 167.233 59.6137C167.537 58.1611 167.933 56.7242 168.422 55.31C168.954 53.7617 169.542 52.1864 170.211 50.676L171.388 48.0234C171.613 47.5146 171.832 47.0003 172.063 46.4914C172.457 45.6253 172.833 44.8403 173.202 44.1365C171.794 42.9023 170.211 42.5666 168.272 44.1365C167.494 45.3853 166.814 46.6785 166.239 48.0072C165.13 50.5066 164.239 53.0743 163.574 55.6889C163.26 56.9277 163.021 58.1799 162.86 59.4404C162.767 60.2092 162.71 60.94 162.698 61.6329V62.2392C162.645 63.8261 163.054 65.3989 163.886 66.8136C164.232 67.3625 164.751 67.8154 165.382 68.1201C166.013 68.4247 166.731 68.5686 167.452 68.5351C168.534 68.5103 169.562 68.1219 170.318 67.4524C171.269 66.6837 172.109 65.8185 172.82 64.8756C173.033 64.5941 173.239 64.3342 173.446 64.0365C173.935 63.3372 174.378 62.6142 174.772 61.8711C175.31 60.8642 175.723 60.063 176.023 59.4783C176.16 59.2514 176.227 58.9979 176.217 58.7421C176.155 58.5635 176.048 58.4931 175.948 58.5039Z" fill="url(#paint12_linear_681_355)"/>
<path d="M48.3359 38.7907V32.4286C47.5623 32.4705 46.8343 32.5352 46.1517 32.6225C45.562 32.6959 45.008 32.7876 44.4857 32.8937L44.33 32.9265C44.0958 32.9763 43.8698 33.0313 43.652 33.0876C43.5335 33.1191 43.415 33.1518 43.2979 33.1872C41.2894 33.7654 39.4137 34.6988 37.7694 35.9385C37.1193 36.4274 36.5046 36.9575 35.9297 37.5251C35.577 37.8697 35.2339 38.2313 34.9004 38.6139C33.0955 40.6965 31.7176 43.0825 30.838 45.6481C29.8809 48.3828 29.4006 51.2479 29.4159 54.1301C29.3995 56.7003 29.7954 59.2578 30.59 61.7146C31.3232 64.001 32.481 66.1442 34.0088 68.0426C36.9481 71.6573 41.6953 73.1103 46.3667 73.1064C47.024 73.1064 47.6841 73.0815 48.3386 73.0251V72.4513C49.0546 72.8024 49.7976 73.1011 50.5613 73.3448V74.2619H44.4775C41.6742 74.265 38.8767 74.0233 36.1199 73.54C32.4645 72.8919 29.4141 71.3739 26.9686 68.9859C25.2305 67.2897 23.8704 65.159 22.8884 62.5937C21.8986 59.9692 21.4014 57.1998 21.4194 54.4117C21.4194 50.4551 22.2784 46.7962 23.9963 43.4352C25.7142 40.0743 28.1147 37.3574 31.1977 35.2848C31.9735 34.7639 32.7877 34.2967 33.634 33.8868C34.0929 33.6628 34.5669 33.4545 35.0492 33.2632L35.3 33.1636C35.4378 33.1112 35.5687 33.0614 35.7051 33.0116C35.8415 32.9619 35.9807 32.9121 36.1268 32.8636C36.2729 32.8151 36.4024 32.7706 36.5402 32.726C36.6477 32.6906 36.7565 32.6579 36.8668 32.6251C36.9164 32.6081 36.9674 32.5937 37.0184 32.578C37.101 32.5544 37.1837 32.5295 37.2664 32.5072C37.327 32.4889 37.3877 32.4719 37.4483 32.4561C37.553 32.4247 37.6578 32.3972 37.7639 32.3697L37.8741 32.3408L38.2324 32.2517L38.3137 32.2308L38.734 32.1351C38.8842 32.1011 39.0357 32.0683 39.1887 32.0382C39.3417 32.0081 39.4643 31.9819 39.6021 31.9556L39.7123 31.936C39.8405 31.9111 39.97 31.8888 40.1009 31.8666H40.1368C40.2842 31.8404 40.4344 31.8168 40.5832 31.7945C40.7321 31.7722 40.8836 31.7486 41.0352 31.7277L41.4803 31.6713C41.5961 31.6569 41.7132 31.6438 41.8303 31.632L41.9916 31.6137C42.1569 31.5954 42.3237 31.5809 42.4904 31.5652H42.5248C42.6888 31.5508 42.8542 31.5364 43.0195 31.5259L43.1339 31.5167H43.2304H43.3365H43.3723L43.4881 31.5102L43.6879 31.501H43.8146L44.0792 31.4905H44.228H44.33H44.4802C44.9543 31.4774 45.511 31.4657 46.1462 31.4578C46.7815 31.4499 47.5242 31.4421 48.3304 31.4368C49.012 31.4368 49.7529 31.4368 50.5531 31.4368V38.6427C50.1741 38.6846 49.7924 38.7213 49.4148 38.7541H49.4024L48.9008 38.7934H48.854H48.8278H48.7865C48.668 38.8038 48.5495 38.8117 48.4296 38.8183L48.3359 38.7907Z" fill="url(#paint13_linear_681_355)"/>
<path d="M72.8849 67.6195C69.7513 70.2084 65.7992 71.681 61.7313 72.2798C58.6997 72.7226 55.4105 72.775 52.3899 72.0479C50.4469 71.5828 48.6156 70.7953 47.0295 69.5848C46.8457 69.4468 46.6703 69.304 46.5031 69.1563C42.5069 65.687 41.6897 59.8372 43.9745 55.2163C46.1214 50.8679 52.0054 47.1208 57.0751 49.2682C57.7886 49.5467 58.3934 50.0293 58.8059 50.6491C59.1958 51.2792 59.3474 52.0418 58.9437 52.7099C58.3759 53.6559 57.2391 53.9114 56.1601 53.8354C54.2061 53.6978 52.5263 52.9183 50.5461 53.4423C48.9725 53.8642 47.662 54.9267 46.7911 56.2526C46.4064 56.8562 46.1434 57.5227 46.0153 58.2178C44.6373 65.2272 52.2369 69.121 58.6019 68.0165C63.7763 67.119 67.2268 63.6353 68.6144 58.8847C70.173 53.5484 68.7771 46.7435 63.2513 43.7236C60.2638 42.0911 56.7003 41.7832 52.8171 41.7216C52.3913 41.7138 48.5191 41.7217 47.3643 41.7413V40.5805C47.7584 40.5622 48.1581 40.5399 48.5591 40.515L48.9463 40.4875L49.0427 40.4796C49.2219 40.4678 49.3996 40.4534 49.5788 40.4364C50.0546 40.3971 50.5296 40.3495 51.0036 40.2936C51.2627 40.2648 51.5204 40.2333 51.7781 40.1966C51.982 40.1691 52.1915 40.1403 52.3885 40.1075C53.4812 39.9457 54.5616 39.7159 55.6227 39.4197C58.4186 38.6258 60.8742 36.9461 62.1682 34.407C63.017 32.7431 63.3643 31.0177 63.3684 29.1756C63.3765 27.2077 62.9698 25.2583 62.1723 23.4423C61.3786 21.6867 60.5297 20.3229 58.9643 19.1411C57.6015 18.1113 56.7485 17.6999 54.8303 17.2715C52.9122 16.8431 50.4207 16.8169 48.0933 16.7933C47.3313 16.7854 45.3166 16.7933 44.3644 16.7933C44.2997 20.0268 44.3314 25.4547 44.3327 29.7049H44.2721C43.6534 29.7245 43.2083 29.7455 42.8803 29.7704C40.0416 29.9774 37.411 30.5146 35.045 31.3753C35.045 29.9591 35.045 28.5847 35.045 28.3318C35.045 26.3024 34.9651 23.9454 34.5889 22.2776C34.2127 20.6098 33.7056 19.9639 32.752 18.8712C31.9252 17.9161 31.1866 17.6082 30.0291 17.1287C28.9267 16.6701 27.5336 16.6282 26.3085 16.4802C26.3609 16.1723 26.1955 15.8539 26.4008 15.5434C34.9541 15.5355 45.2023 15.5434 53.2911 15.529C56.5818 15.529 57.7407 15.529 58.8031 15.5997C62.7015 15.8814 64.7202 16.3858 67.4073 17.8087C71.3884 19.9154 73.1866 23.8354 73.2459 27.906C73.3079 32.2453 70.647 36.1509 66.7803 38.3467C65.372 39.1459 63.7887 39.6883 62.2646 40.253C64.9311 40.8425 67.6912 41.3338 70.1426 42.5379C72.1215 43.5051 73.8624 44.8599 75.2509 46.5129C77.0189 48.642 78.1322 51.1951 78.4671 53.8891C78.7782 56.4366 78.4326 59.0178 77.46 61.41C76.4875 63.8021 74.9172 65.9333 72.8849 67.6195Z" fill="url(#paint14_linear_681_355)"/>
<path d="M98.7719 56.7805C98.1591 59.6307 97.2669 62.4199 96.1069 65.1118L96.3163 65.1944C98.6422 59.7702 99.8883 53.9825 99.9915 48.1256C100.015 47.3959 99.9846 46.6661 99.9667 45.9364C99.9556 45.5708 99.9529 45.2053 99.935 44.8411L99.8495 43.7484L99.7627 42.6571C99.7297 42.2928 99.6718 41.9312 99.6249 41.5696C99.5271 40.8451 99.4485 40.118 99.2983 39.4C97.7743 30.6907 93.6957 22.5673 87.5316 15.9639C81.322 9.32656 73.2827 4.47375 64.3232 1.95441C55.3636 -0.564928 45.8414 -0.650259 36.8335 1.70807C27.8256 4.0664 19.6915 8.77427 13.3514 15.2992C7.01131 21.8241 2.71811 29.9056 0.957476 38.6296C0.368768 41.5489 0.0496948 44.5115 0.00390061 47.4837C-0.111018 56.5205 2.31522 65.4224 7.03169 73.2689C10.2238 78.5869 14.3719 83.3316 19.2876 87.2875C24.3301 91.3449 30.0905 94.5184 36.3004 96.6604L36.8888 96.87C37.0845 96.9408 37.2856 97.001 37.4841 97.0587L38.6816 97.4268L39.281 97.6116C39.3816 97.6417 39.4822 97.6745 39.5828 97.702L39.8859 97.7819L41.1055 98.0963C41.5189 98.1998 41.9199 98.3151 42.3305 98.4081L43.5707 98.6702L44.8109 98.9322C45.2243 99.0056 45.646 99.0632 46.0649 99.1392L47.3244 99.3462L47.6399 99.3973L47.9569 99.4353L48.5907 99.5113L49.864 99.6607C50.0762 99.6842 50.2884 99.7118 50.502 99.7314L51.1414 99.7747C51.9958 99.831 52.8543 99.9057 53.7169 99.9489L56.3103 100C58.0438 99.9843 59.7925 99.9437 61.5384 99.7799C61.9752 99.7445 62.4162 99.7196 62.8544 99.6738L64.1635 99.51L65.4795 99.341C65.7 99.3174 65.9177 99.2794 66.1354 99.2414L66.79 99.1287C70.3363 98.5467 73.8206 97.6632 77.2008 96.4888C80.668 95.2859 84.0232 93.809 87.2312 92.0735C90.5347 90.2782 93.6906 88.2478 96.6719 85.9997C96.6719 85.9997 94.7206 79.8917 90.5219 80.8534C90.4406 80.873 90.3606 80.8874 90.2821 80.8992C89.3175 81.8373 88.284 82.7112 87.2312 83.5615C86.6249 84.041 86.0094 84.5105 85.3847 84.9699L84.9162 85.3131L84.4394 85.6472C84.1211 85.8686 83.8014 86.0901 83.4748 86.3023C82.1863 87.1722 80.8566 87.9872 79.4924 88.7523C78.1282 89.5174 76.724 90.2131 75.2922 90.859C72.4259 92.1602 69.413 93.1466 66.3118 93.799C64.7619 94.1196 63.1896 94.3333 61.6073 94.4384L60.4209 94.4869C60.2238 94.4986 60.0268 94.496 59.8283 94.4934L59.2358 94.4855C58.4462 94.4921 57.658 94.4056 56.8767 94.3467C57.2694 94.327 57.6621 94.3152 58.0548 94.2982C58.2505 94.289 58.4462 94.2982 58.6419 94.2733L59.2275 94.2248L59.8118 94.1777C60.0075 94.1646 60.2018 94.1515 60.3947 94.1226L61.5563 93.9785C61.7506 93.9589 61.9422 93.9261 62.1351 93.8947L62.7111 93.8003L63.2871 93.7073C63.4786 93.6732 63.6674 93.63 63.859 93.592L65 93.3588L66.1313 93.085C69.1346 92.3076 72.0592 91.2776 74.8706 90.0074C76.2789 89.3772 77.6638 88.6973 79.0266 87.978C80.3894 87.2587 81.7247 86.4883 83.0448 85.6944C83.3769 85.4979 83.7035 85.2935 84.0287 85.0891C84.3539 84.8847 84.6792 84.6764 85.0044 84.4694C85.6562 84.058 86.2942 83.6283 86.9336 83.1959C88.0167 82.4657 89.0805 81.7076 90.125 80.9215C86.3603 81.346 86.8357 74.5345 83.76 75.1961C83.6705 75.2144 83.5809 75.2289 83.4941 75.2393C83.2378 75.5302 82.9778 75.818 82.7141 76.1027C82.0747 76.7879 81.405 77.4483 80.7188 78.0929C79.3408 79.3796 77.88 80.5838 76.345 81.6984C74.8062 82.8178 73.1929 83.8414 71.5151 84.7629C69.8325 85.6834 68.0852 86.4928 66.2856 87.1853C65.383 87.5286 64.4653 87.8404 63.5393 88.1103C62.6133 88.3802 61.6748 88.6344 60.7254 88.8361C60.2528 88.9423 59.7746 89.0248 59.2978 89.1139C58.821 89.203 58.3401 89.2737 57.8592 89.3327C57.3782 89.3917 56.8946 89.4493 56.4123 89.5004C55.93 89.5515 55.4477 89.5803 54.9599 89.5973C53.9953 89.6484 53.0196 89.6537 52.0523 89.6209L51.3261 89.5882C51.0849 89.5764 50.8438 89.5541 50.6026 89.5371C50.1189 89.507 49.638 89.4506 49.1585 89.4061C48.6789 89.3615 48.2063 89.2751 47.7323 89.2017C44.6708 89.3709 41.599 89.2144 38.5741 88.7353C32.926 87.8342 27.5283 85.8549 22.7064 82.9169C15.2324 78.3569 9.34953 71.7911 5.80252 64.0506C4.60878 61.4486 3.68795 58.7409 3.05341 55.9669C2.41333 53.1798 2.06164 50.3398 2.00338 47.4876C1.95424 44.627 2.19187 41.7684 2.71305 38.9506C4.30316 30.4069 8.38902 22.4607 14.5038 16.0201C20.6185 9.57942 28.5156 4.90408 37.2925 2.52825C43.909 0.730851 50.8494 0.278793 57.6618 1.20153C64.4743 2.12426 71.0058 4.40108 76.8311 7.88369C82.6564 11.3663 87.6447 15.9766 91.4711 21.4142C95.2975 26.8519 97.8763 32.9949 99.0393 39.4432C99.1922 40.156 99.2735 40.8779 99.3741 41.5984C99.4196 41.9587 99.4789 42.3177 99.5119 42.6806L99.6001 43.7668L99.6883 44.8529C99.7062 45.2158 99.7104 45.58 99.7228 45.9429C99.7407 46.6687 99.7724 47.3959 99.7517 48.123C99.7083 51.0315 99.3803 53.9298 98.7719 56.7805Z" fill="url(#paint15_linear_681_355)"/>
<path d="M78.4699 70.7704C77.4206 72.8804 76.0996 74.8582 74.5371 76.6582C72.9339 78.5195 71.1221 80.2091 69.1339 81.6971L67.5864 82.7937L65.9631 83.8038C65.8942 83.8458 65.8253 83.8903 65.7578 83.9348L65.547 84.0488L65.1239 84.2794L64.2737 84.7445L63.8465 84.9764L63.407 85.1821L62.5237 85.5974L62.0799 85.8084C61.9325 85.8791 61.7837 85.9499 61.6307 86.0075L60.7171 86.3704L59.798 86.7386C59.4879 86.8539 59.1724 86.9508 58.8596 87.0596C57.607 87.505 56.3144 87.8378 55.0012 88.1732C53.4284 88.534 51.8345 88.8052 50.2278 88.9855C51.7851 89.0385 53.3444 88.9982 54.8964 88.865C55.8417 88.7837 56.7843 88.6671 57.7186 88.5191C58.1871 88.4496 58.6515 88.3579 59.1173 88.2728C59.583 88.1876 60.0433 88.0841 60.5021 87.9701C60.961 87.8561 61.4199 87.7461 61.8801 87.6282C62.3404 87.5103 62.7896 87.3779 63.2402 87.2351C64.1414 86.96 65.0316 86.6534 65.9122 86.318C66.7927 85.9826 67.6636 85.6263 68.5207 85.2384C69.3778 84.8506 70.217 84.4288 71.0507 83.9951C72.7163 83.1198 74.3297 82.1576 75.8834 81.1128C76.6633 80.5887 77.424 80.0463 78.1777 79.4908C78.9315 78.9353 79.6673 78.3562 80.3894 77.7601C81.1115 77.1639 81.8212 76.5547 82.5157 75.9259C82.7582 75.7071 82.9966 75.4843 83.2336 75.2603C80.3494 75.3219 78.4699 70.7704 78.4699 70.7704Z" fill="url(#paint16_linear_681_355)"/>
<defs>
<linearGradient id="paint0_linear_681_355" x1="98.9219" y1="-25.6593" x2="169.622" y2="147.12" gradientUnits="userSpaceOnUse">
<stop stop-color="#FFF8A1"/>
<stop offset="1" stop-color="#866D48"/>
</linearGradient>
<linearGradient id="paint1_linear_681_355" x1="192.208" y1="-63.8297" x2="262.908" y2="108.945" gradientUnits="userSpaceOnUse">
<stop stop-color="#FFF8A1"/>
<stop offset="1" stop-color="#866D48"/>
</linearGradient>
<linearGradient id="paint2_linear_681_355" x1="130.297" y1="-38.5001" x2="200.997" y2="134.28" gradientUnits="userSpaceOnUse">
<stop stop-color="#FFF8A1"/>
<stop offset="1" stop-color="#866D48"/>
</linearGradient>
<linearGradient id="paint3_linear_681_355" x1="145.969" y1="-44.9097" x2="216.669" y2="127.865" gradientUnits="userSpaceOnUse">
<stop stop-color="#FFF8A1"/>
<stop offset="1" stop-color="#866D48"/>
</linearGradient>
<linearGradient id="paint4_linear_681_355" x1="161.221" y1="-51.1514" x2="231.921" y2="121.623" gradientUnits="userSpaceOnUse">
<stop stop-color="#FFF8A1"/>
<stop offset="1" stop-color="#866D48"/>
</linearGradient>
<linearGradient id="paint5_linear_681_355" x1="215.175" y1="-73.2277" x2="285.875" y2="99.5521" gradientUnits="userSpaceOnUse">
<stop stop-color="#FFF8A1"/>
<stop offset="1" stop-color="#866D48"/>
</linearGradient>
<linearGradient id="paint6_linear_681_355" x1="229.983" y1="-79.2907" x2="300.683" y2="93.4892" gradientUnits="userSpaceOnUse">
<stop stop-color="#FFF8A1"/>
<stop offset="1" stop-color="#866D48"/>
</linearGradient>
<linearGradient id="paint7_linear_681_355" x1="256.284" y1="-90.0528" x2="326.984" y2="82.7271" gradientUnits="userSpaceOnUse">
<stop stop-color="#FFF8A1"/>
<stop offset="1" stop-color="#866D48"/>
</linearGradient>
<linearGradient id="paint8_linear_681_355" x1="279.701" y1="-99.6346" x2="350.401" y2="73.1452" gradientUnits="userSpaceOnUse">
<stop stop-color="#FFF8A1"/>
<stop offset="1" stop-color="#866D48"/>
</linearGradient>
<linearGradient id="paint9_linear_681_355" x1="269.635" y1="-95.5149" x2="340.335" y2="77.2649" gradientUnits="userSpaceOnUse">
<stop stop-color="#FFF8A1"/>
<stop offset="1" stop-color="#866D48"/>
</linearGradient>
<linearGradient id="paint10_linear_681_355" x1="289.736" y1="-103.743" x2="360.436" y2="69.0365" gradientUnits="userSpaceOnUse">
<stop stop-color="#FFF8A1"/>
<stop offset="1" stop-color="#866D48"/>
</linearGradient>
<linearGradient id="paint11_linear_681_355" x1="251.148" y1="-87.9468" x2="321.848" y2="84.8329" gradientUnits="userSpaceOnUse">
<stop stop-color="#FFF8A1"/>
<stop offset="1" stop-color="#866D48"/>
</linearGradient>
<linearGradient id="paint12_linear_681_355" x1="119.58" y1="-34.1153" x2="190.28" y2="138.664" gradientUnits="userSpaceOnUse">
<stop stop-color="#FFF8A1"/>
<stop offset="1" stop-color="#866D48"/>
</linearGradient>
<linearGradient id="paint13_linear_681_355" x1="-27.2515" y1="25.0393" x2="86.1543" y2="74.1537" gradientUnits="userSpaceOnUse">
<stop stop-color="#FFF8A1"/>
<stop offset="1" stop-color="#866D48"/>
</linearGradient>
<linearGradient id="paint14_linear_681_355" x1="-21.989" y1="12.8864" x2="91.4168" y2="62.0007" gradientUnits="userSpaceOnUse">
<stop stop-color="#FFF8A1"/>
<stop offset="1" stop-color="#866D48"/>
</linearGradient>
<linearGradient id="paint15_linear_681_355" x1="-24.942" y1="19.7057" x2="88.4637" y2="68.82" gradientUnits="userSpaceOnUse">
<stop stop-color="#FFF8A1"/>
<stop offset="1" stop-color="#866D48"/>
</linearGradient>
<linearGradient id="paint16_linear_681_355" x1="-34.2793" y1="41.2643" x2="79.1264" y2="90.3787" gradientUnits="userSpaceOnUse">
<stop stop-color="#FFF8A1"/>
<stop offset="1" stop-color="#866D48"/>
</linearGradient>
</defs>
</svg>
