<svg width="475" height="559" viewBox="0 0 475 559" fill="none" xmlns="http://www.w3.org/2000/svg">
<path d="M403.589 226.971C406.089 227.841 407.789 228.441 409.479 229.031C430.199 236.281 444.229 256.341 444.039 278.031C443.96 286.961 439.939 293.331 432.319 297.481C428.549 299.531 424.489 301.041 420.139 302.981C420.459 304.181 420.659 305.451 421.149 306.601C422.909 310.741 425.039 314.741 426.529 318.971C428.069 323.341 429.419 327.851 430.159 332.421C431.409 340.051 428.77 346.551 423 351.681C420.89 353.551 418.549 355.171 416.269 356.861C407.229 363.561 404.239 372.421 406.759 383.281C407.509 386.521 408.31 389.771 408.799 393.051C409.139 395.341 409.18 397.711 409.049 400.021C408.629 407.491 404.9 413.081 397.669 414.711C388.569 416.771 384.329 422.411 380.99 430.631C370.15 457.361 349.519 471.051 321.069 473.281C315.619 473.711 310.09 473.401 304.609 473.221C298.189 473.011 292.09 471.561 286.669 467.861C285.449 467.031 284.049 466.461 282.43 465.621C281.52 466.691 280.639 467.631 279.879 468.651C277.769 471.441 275.869 474.391 273.599 477.041C268.779 482.661 262.649 484.901 255.269 483.751C245.459 482.211 236.38 478.421 227.25 474.821C219.81 471.891 212.429 468.831 205.029 465.801C199.119 463.371 193.369 463.061 187.069 465.121C172.139 469.991 157.029 470.761 141.979 465.231C131.079 461.231 122.069 454.481 114.369 445.991C106.429 437.231 98.7695 428.211 90.9795 419.311C88.6295 416.631 86.9095 413.691 86.4495 410.041C85.7595 404.651 82.4795 401.431 77.4395 399.801C77.1195 399.701 76.8295 399.501 76.5095 399.451C65.7895 397.731 58.3995 390.851 51.3595 383.341C37.1995 368.251 26.8295 351.051 21.8695 330.801C18.8195 318.351 17.5895 305.851 21.2695 293.341C24.9195 280.951 32.0695 270.941 42.5595 263.351C43.6095 262.591 44.5895 261.721 45.9195 260.661C45.0595 259.231 44.3195 257.991 43.5695 256.751C41.3195 253.061 38.7895 249.501 36.8695 245.651C30.4995 232.881 31.5795 223.591 41.1895 213.111C47.3695 206.371 54.1095 200.121 60.8695 193.951C68.9995 186.551 77.3495 179.391 85.7395 172.281C90.3295 168.391 92.8195 164.071 92.5895 157.651C92.3195 149.991 96.2095 144.031 103.789 141.691C112.519 138.991 121.399 136.731 130.309 134.691C134.949 133.631 138.369 131.811 140.989 127.521C150.039 112.671 163.429 102.651 178.889 95.2706C186.649 91.5706 194.46 92.6606 202.079 96.0506C204.04 96.9206 205.95 97.8906 208.19 98.9606C209.81 96.9006 211.359 95.0006 212.839 93.0406C216.069 88.7506 220.389 87.0306 225.579 88.0506C231.289 89.1706 237.009 90.3606 242.589 92.0006C249.219 93.9406 255.01 93.2106 260.19 88.3706C265.02 83.8606 271.069 82.7306 277.379 83.0506C285.759 83.4706 293.839 85.4706 301.639 88.5306C308.519 91.2306 314.219 95.5006 317.569 102.231C319.499 106.101 322.62 107.931 326.56 108.531C331.49 109.291 336.479 109.611 341.419 110.351C359.599 113.061 371.619 125.551 373.819 143.881C373.879 144.381 373.959 144.881 373.959 145.371C373.889 151.751 377.319 154.761 383.289 156.391C398.799 160.641 409.189 170.881 415.529 185.451C418.979 193.381 417.999 201.131 414.099 208.561C411.709 213.131 408.879 217.471 406.279 221.931C405.459 223.331 404.739 224.791 403.589 226.961V226.971ZM246.269 326.981C244.879 326.771 244.55 326.641 244.25 326.691C243.76 326.761 243.29 326.941 242.81 327.081C233.8 329.761 226.799 335.241 221.609 342.911C208.02 363.001 197.149 384.191 195.629 409.051C195.509 411.051 194.979 413.021 194.629 415.001C187.549 401.131 188.189 385.961 185.269 371.451C184.259 372.431 183.579 373.371 183.199 374.411C181.449 379.261 179.529 384.071 178.129 389.021C174.199 402.941 175.209 416.501 182.619 429.081C185.889 434.641 189.66 440.071 194.049 444.771C206.68 458.331 222.1 467.091 240.62 469.921C242.29 470.181 244.069 470.851 245.979 469.441C243.519 466.561 241.239 463.951 239.019 461.291C232.149 453.061 226.369 444.131 222.139 434.261C221.559 432.901 220.219 431.451 222.009 429.081C223.959 431.651 225.81 433.891 227.44 436.291C232.41 443.591 237.059 451.111 242.299 458.211C245.029 461.911 248.4 465.321 252.06 468.121C257.74 472.461 263.46 471.981 268.94 467.321C273.74 463.241 277.029 458.041 278.969 452.071C281.379 444.631 283.909 437.201 285.879 429.641C289.409 416.111 292.569 402.491 295.849 388.891C296.959 384.271 299.189 380.311 302.339 376.781C305.419 377.871 304.599 380.351 304.649 382.341C305.259 406.991 299.429 430.201 288.819 452.321C288.059 453.911 287.339 455.521 286.479 457.401C295.529 462.231 304.419 463.881 314.649 461.851C312.959 458.481 311.57 455.861 310.31 453.171C308.32 448.931 306.559 444.611 306.839 439.771C306.969 437.531 307.24 435.351 309.289 432.961C309.479 434.591 309.52 435.391 309.669 436.181C310.629 441.221 311 446.491 312.74 451.251C315.49 458.771 322.509 462.201 330.449 460.951C338.359 459.701 345.12 455.661 351.979 451.921C354.349 450.631 355.349 448.261 355.199 445.561C355.099 443.741 354.74 441.931 354.539 440.111C353.589 431.681 352.479 423.271 351.789 414.821C351.479 410.981 352.009 407.071 352.169 402.791C354.719 403.751 354.409 405.381 354.519 406.761C355.279 416.221 356 425.681 356.799 435.141C357.069 438.361 357.569 441.561 358.029 445.351C359.589 444.581 360.72 444.391 361.19 443.731C366.11 436.831 371.479 430.161 375.639 422.811C380.899 413.531 380.619 403.671 375.839 394.051C375.279 392.931 374.779 391.791 373.769 389.621C377.889 391.641 379.799 394.261 381.609 397.001C383.439 399.781 385.229 402.591 387.18 405.291C388.31 406.851 389.71 407.061 391.5 405.921C397.09 402.351 399.889 396.201 398.709 389.581C398.509 388.431 398.28 387.291 398.049 386.151C394.359 367.811 385.859 352.571 370.289 341.511C348.479 326.031 324.159 317.241 297.899 313.341C290.469 312.231 283.249 312.801 276.699 316.941C275.839 317.481 275.169 318.321 273.74 319.651C276.25 319.981 277.849 320.241 279.459 320.401C288.519 321.261 296.539 324.601 303.479 330.491C309.029 335.211 312.779 341.271 316.539 347.421C318.939 351.351 321.72 355.231 325.049 358.371C330.12 363.151 335.789 367.301 341.279 371.631C344.169 373.911 346.949 376.191 347.819 380.311C343.559 381.121 340.119 379.681 337.099 377.231C334.779 375.351 332.759 373.101 330.529 371.101C328.609 369.381 326.579 367.771 324.599 366.121C324.27 366.341 323.929 366.551 323.599 366.771C324.099 368.251 324.449 369.811 325.109 371.211C326.829 374.821 328.689 378.361 330.479 381.931C333.169 387.291 335.96 392.611 338.49 398.041C342.009 405.601 342.819 413.391 339.699 421.311C337.389 427.151 333.67 428.831 327.75 426.831C324.26 425.661 321.7 423.361 320 420.151C319.54 419.281 319.439 418.211 319.169 417.241C321.06 417.651 322.219 418.511 323.359 419.421C324.659 420.461 325.859 421.641 327.229 422.571C331.319 425.311 334.49 424.431 336.49 420.011C337.03 418.811 337.519 417.501 337.649 416.201C338.679 405.951 335.919 396.771 329.549 388.691C329.28 388.341 328.72 388.221 328.06 387.871C325.46 393.371 327.919 399.721 324.839 405.991C323.999 404.001 323.37 402.901 323.06 401.721C321.62 396.071 320.199 390.421 318.909 384.741C315.969 371.801 311.689 359.441 303.759 348.611C296.149 338.231 286.06 331.631 273.5 328.831C272.26 328.551 270.959 328.531 268.919 328.311C269.99 330.401 270.689 331.871 271.479 333.271C273.529 336.891 275.689 340.461 277.669 344.121C278.09 344.901 277.889 346.011 277.969 346.971C277.599 347.161 277.24 347.351 276.87 347.541C269.81 341.651 263.519 334.861 256.399 328.781C254.079 332.181 255.27 335.391 256.12 338.531C263.13 364.571 270.199 390.601 277.219 416.641C277.909 419.201 278.449 421.821 278.859 424.441C278.979 425.211 278.439 426.081 278.209 426.911C277.849 426.951 277.489 426.991 277.129 427.031C276.079 423.951 274.83 420.921 274 417.781C267.87 394.601 261.879 371.381 255.699 348.221C254.609 344.121 252.829 340.201 251.009 335.211C249.519 337.391 248.689 338.541 247.93 339.741C246.23 342.411 244.799 345.281 242.839 347.731C238.279 353.451 238.18 359.201 241.94 365.271C244.57 369.521 247.27 373.741 249.69 378.101C255.01 387.711 260.219 397.391 265.389 407.091C267.769 411.551 266.809 415.851 264.729 420.271C259.889 416.531 257.569 413.531 255.899 409.781C252.859 402.941 249.68 396.161 246.5 389.381C246.14 388.601 245.44 387.981 244.81 387.161C244.81 392.001 245.029 396.451 244.729 400.871C244.549 403.461 243.729 406.051 242.819 408.511C242.489 409.411 241.079 409.901 239.459 411.101C237.189 398.171 235.099 386.271 233.009 374.371C232.669 374.321 232.34 374.271 232 374.221C231.27 376.151 230.389 378.041 229.839 380.021C227.819 387.221 229.13 394.201 231.299 401.141C231.79 402.711 233.059 404.251 232.159 406.411C223.959 402.261 219.469 396.001 218.879 387.071C218.289 378.111 219.759 369.471 223.149 361.161C226.909 351.961 232.489 343.911 238.729 336.261C241.119 333.331 243.509 330.401 246.279 327.011L246.269 326.981ZM295.31 188.461C296.66 186.341 297.579 185.021 298.37 183.631C303.549 174.501 308.629 165.311 313.879 156.231C317.069 150.711 319.929 145.271 315.079 138.591C318.829 138.101 321.839 137.211 324.199 139.771C326.599 142.371 327.369 145.571 326.209 149.061C326.159 149.221 326.079 149.371 326.019 149.521C319.759 164.421 313.65 179.341 303.299 192.121C292.24 205.771 286.889 221.711 286.37 239.231C286.32 240.971 286.79 242.921 287.62 244.441C289.62 248.071 291.469 248.431 294.819 245.861C298.519 243.021 302.119 240.031 305.529 236.871C313.229 229.741 322.019 224.481 331.889 221.001C339.119 218.461 346.379 216.011 353.629 213.551C368.799 208.401 383.919 203.141 396.629 192.871C397.379 192.271 398.369 191.881 399.319 191.641C400.789 191.281 401.959 191.651 402.139 193.721C396.699 196.461 391.199 199.181 385.74 201.981C371.06 209.511 356.269 216.781 340.579 222.041C333.949 224.271 327.349 226.601 320.829 229.101C314.529 231.511 308.909 235.051 304.459 240.231C303.659 241.161 303.12 242.301 302.299 243.591C303.299 243.801 303.789 244.051 304.219 243.971C317.119 241.741 329.749 243.651 342.349 246.291C367.949 251.661 393.549 257.111 419.969 256.151C421.279 256.101 422.609 256.701 424.069 257.031C423.629 257.981 423.569 258.431 423.349 258.541C422.169 259.131 420.969 259.721 419.729 260.161C410.65 263.371 401.289 264.851 391.729 263.551C381.52 262.171 371.379 260.231 361.199 258.571C360.369 258.431 359.499 258.551 357.469 258.551C359.379 259.851 360.229 260.631 361.219 261.081C369.399 264.811 377.519 268.711 385.839 272.111C399.459 277.671 413.699 279.881 428.409 279.131C434.869 278.801 436.439 276.501 433.959 270.471C431.939 265.541 429.639 260.731 427.68 255.771C423.41 244.961 415.209 238.981 404.349 235.721C399.759 234.341 395.959 234.671 392.159 237.511C390.719 238.581 389.25 240.161 386.25 239.601C389.109 234.511 391.77 229.941 394.289 225.291C397.609 219.141 401.349 213.151 403.979 206.711C411.02 189.451 400.829 171.901 383.49 166.481C382.59 166.201 381.569 166.311 380.209 166.211C379.469 168.861 378.729 171.381 378.069 173.921C377.359 176.661 376.829 179.451 376.039 182.171C375.359 184.511 375.499 187.231 372.789 189.781C372.93 186.901 373.119 184.931 373.099 182.971C373.049 176.501 373.019 170.021 372.769 163.561C372.709 161.931 372.839 159.811 370.039 158.901C369.229 160.501 368.309 162.021 367.639 163.651C364.449 171.351 361.349 179.081 358.169 186.771C357.799 187.661 357.089 188.411 356.529 189.231C356.189 189.101 355.849 188.971 355.509 188.841C355.999 186.111 356.229 183.311 357.019 180.671C359.649 171.901 362.589 163.231 365.219 154.461C367.869 145.621 366.149 137.651 359.849 130.811C357.929 128.731 356.02 126.581 353.81 124.841C348 120.251 341.69 118.301 334.25 120.951C323.63 124.731 314.549 130.681 307.199 139.161C300.829 146.521 295.299 154.461 293.149 164.181C291.389 172.121 292.19 179.921 295.299 188.451L295.31 188.461ZM75.4795 352.411C75.3195 353.151 75.2495 353.921 74.9695 354.621C71.4095 363.631 72.3695 372.581 75.1995 381.531C76.4595 385.511 78.9395 388.361 82.6595 390.411C85.4195 388.031 87.2695 385.381 88.4995 382.191C90.0495 378.151 91.6395 374.111 93.4995 370.221C101.359 353.781 112.149 339.911 128.419 330.921C137.429 325.941 147.179 323.271 157.259 321.601C166.709 320.041 174.739 315.331 182.439 309.991C185.629 307.781 186.639 304.491 185.799 300.721C185.439 299.101 184.919 297.511 184.329 295.961C181.669 288.881 178.769 287.071 171.349 288.451C156.239 291.271 141.509 295.451 127.729 302.381C122.239 305.141 117.069 308.531 111.699 311.541C110.109 312.431 108.709 314.171 105.559 313.141C107.119 311.621 108.149 310.461 109.339 309.501C116.659 303.591 124.829 299.061 133.619 295.841C143.779 292.121 154.109 288.901 164.359 285.421C166.119 284.821 167.809 284.041 169.529 283.341C159.919 279.801 150.57 277.791 140.859 281.001C137.869 281.991 134.709 282.461 131.669 283.311C105.789 290.521 82.1995 302.001 62.5195 320.701C62.0995 321.101 61.5595 321.371 61.0695 321.701C61.3195 320.211 62.0095 319.181 62.8495 318.281C69.9795 310.721 78.0495 304.321 86.8895 298.871C97.8495 292.111 109.569 286.941 121.629 282.501C123.299 281.891 124.879 281.051 126.509 280.321C109.699 281.781 93.8795 286.341 78.8795 293.231C63.8295 300.141 49.1695 307.921 34.2995 315.331C33.0195 313.501 34.7495 312.781 35.8395 311.931C43.9995 305.601 52.1595 299.281 60.3795 293.021C72.7595 283.601 86.6295 277.321 101.699 273.641C110.109 271.591 118.529 269.601 126.929 267.521C128.009 267.251 128.999 266.611 130.029 266.141C121.979 263.961 114.189 263.261 106.449 265.001C93.6395 267.881 80.7795 270.651 68.1195 274.151C53.1495 278.291 40.8895 287.121 30.0795 298.101C27.8295 300.391 26.8195 302.981 27.2895 306.251C27.6895 309.041 27.7095 311.891 27.9195 314.721C28.6195 323.771 30.1395 332.691 34.8995 340.551C41.1095 350.791 47.4395 360.991 54.3895 370.731C57.8195 375.531 62.6895 379.321 67.0295 383.431C68.2795 384.611 69.9595 385.351 72.4495 386.931C72.1795 383.841 72.1095 381.921 71.8295 380.031C71.3995 377.071 70.6795 374.141 70.3695 371.171C69.6695 364.451 69.8895 357.881 75.4695 352.401L75.4795 352.411ZM75.1595 245.321C75.3695 245.691 75.5795 246.051 75.7895 246.421C74.4195 247.501 73.0795 248.631 71.6595 249.641C66.0995 253.611 60.4295 257.421 54.9595 261.511C46.2195 268.051 38.5395 275.631 33.2395 285.331C32.4295 286.821 31.9195 288.481 30.8295 291.141C32.9595 290.251 33.8895 290.011 34.6595 289.521C38.7295 286.931 42.7795 284.291 46.8195 281.641C53.2595 277.411 59.9895 273.731 67.4695 271.751C80.6595 268.251 93.8395 264.681 107.139 261.661C119.859 258.771 132.299 260.051 144.089 266.021C145.859 266.921 147.739 267.721 149.659 268.201C153.099 269.071 156.489 270.421 160.369 269.731C158.379 267.711 156.269 265.911 153.959 264.431C140.209 255.651 124.859 253.561 108.969 253.781C105.089 253.841 101.209 253.781 96.8395 253.781C97.6895 250.911 99.6995 250.981 101.349 250.771C107.789 249.971 114.249 249.301 120.699 248.531C122.419 248.321 124.119 247.911 125.839 247.591C125.839 247.211 125.859 246.831 125.869 246.461C120.969 245.061 116.069 243.651 111.159 242.271C101.229 239.481 91.2795 236.741 81.3495 233.931C78.3695 233.081 75.5395 231.921 73.9995 228.481C79.9095 227.351 85.3995 228.051 90.7395 229.121C123.619 235.711 153.309 249.261 179.499 270.491C180.419 269.851 181.269 269.331 182.039 268.721C195.839 257.741 197.38 245.351 186.579 231.451C179.609 222.481 171.889 214.201 163.049 207.031C130.119 180.341 83.4895 182.611 53.4095 212.441C50.3495 215.481 47.4495 218.781 44.9995 222.311C39.7195 229.901 40.4295 239.131 46.4595 245.241C47.1795 245.981 48.2895 246.341 49.4795 247.031C51.1595 243.871 52.6095 241.081 54.1095 238.321C55.6095 235.551 56.6595 232.481 59.2395 230.311C59.1995 232.581 58.6695 234.621 58.0895 236.651C57.3995 239.051 56.4395 241.401 56.0195 243.841C55.5095 246.771 55.3795 249.801 58.1095 252.331C64.0695 250.611 69.1995 246.731 75.1895 245.321H75.1595ZM193.079 331.811C196.609 328.891 199.379 326.521 202.229 324.251C210.069 317.991 218.92 314.651 229.06 315.171C233.38 315.391 237.699 315.651 242.019 315.981C246.999 316.361 251.969 316.921 256.949 317.251C259.309 317.411 261.699 317.251 262.729 314.451C264.829 308.731 269.279 305.881 274.909 304.421C275.889 304.171 276.769 303.561 278.129 302.911C276.469 301.631 275.289 300.731 274.109 299.821C264.749 292.621 263.67 287.241 269.56 277.111C270.4 275.671 271.219 274.201 272.24 272.891C275.509 268.681 278.859 264.551 282.18 260.381C283.37 258.891 284.549 257.391 285.74 255.901C284.97 255.331 284.74 255.061 284.44 254.951C275.35 251.571 273.739 249.261 273.699 239.461C273.689 236.841 273.699 234.221 273.699 231.301C270.979 230.911 268.869 230.591 266.759 230.311C259.339 229.311 251.9 228.401 244.49 227.291C238.219 226.351 232.799 223.551 228.149 219.241C227.539 218.671 226.85 218.181 226.31 217.551C224.13 214.971 221.76 214.381 218.43 215.671C212.85 217.831 207.059 219.461 201.369 221.331C198.889 222.151 196.419 223.031 193.529 224.021C194.449 225.931 195.099 227.421 195.869 228.831C198.199 233.061 200.73 237.191 202.93 241.481C207.9 251.191 206.729 259.701 199.259 267.631C196.759 270.281 193.809 272.521 191.069 274.941C189.609 276.231 188.129 277.511 186.559 278.881C196.579 292.301 200.969 305.511 186.969 318.931C188.949 323.101 190.859 327.121 193.069 331.791L193.079 331.811ZM259.379 219.391C257.579 217.051 256.329 215.491 255.159 213.891C250.539 207.571 245.669 201.431 241.419 194.871C236.149 186.731 234.939 177.511 235.849 167.981C236.029 166.101 236.149 164.101 237.879 163.091C240.619 171.981 242.799 180.881 246.139 189.321C248.879 196.241 260.249 208.331 264.659 210.321C264.519 206.241 261.94 203.401 261 200.081C260.05 196.721 258.769 193.431 258.129 190.011C257.459 186.431 257.109 182.741 257.109 179.101C257.109 175.461 257.52 171.781 258.12 168.181C258.72 164.581 259.609 161.001 260.669 157.501C261.679 154.161 262.859 150.841 264.349 147.701C265.869 144.491 267.869 141.501 269.649 138.411C269.999 138.511 270.349 138.611 270.699 138.711C260.709 165.011 264.21 189.271 281.299 212.441C287.169 203.291 291.849 194.681 290.329 184.031C289.879 180.901 289.069 177.801 288.949 174.661C288.409 160.051 293.759 147.661 303.599 137.081C309.439 130.801 316.359 125.911 323.699 121.551C324.989 120.791 326.87 120.501 327.419 117.821C323.74 118.161 320.419 118.201 317.219 118.811C307.529 120.681 298.31 124.041 289.25 127.901C287.35 128.711 285.4 129.421 283.229 130.271C282.579 127.391 284.45 126.831 285.69 125.991C292.48 121.451 299.31 116.991 306.109 112.481C307.74 111.401 309.29 110.191 310.81 109.091C307.919 103.281 306.38 102.621 300.81 104.401C298.43 105.161 296.139 106.681 292.68 105.631C295.52 103.131 297.829 101.101 300.359 98.8706C299.439 98.1306 298.899 97.5206 298.209 97.1606C290.539 93.1406 282.409 91.9506 273.979 93.8206C263.519 96.1406 255.629 102.301 249.819 111.121C244.779 118.771 240.049 126.611 235.099 134.321C233.569 136.691 231.87 138.971 230.049 141.131C229.479 141.801 228.27 141.931 226.18 142.791C229.85 131.821 236.059 123.311 239.549 112.691C237.96 113.251 237.259 113.301 236.849 113.671C229.279 120.411 222.819 127.981 219.959 137.951C213.849 159.241 216.049 179.831 225.93 199.551C229.35 206.381 234.439 211.901 241.269 215.541C246.589 218.381 252.189 220.201 259.389 219.371L259.379 219.391ZM179.739 183.051C176.829 183.311 176.339 181.401 175.399 180.181C170.039 173.171 165.139 165.761 159.319 159.151C146.089 144.111 128.349 140.191 110.399 147.521C105.629 149.471 102.469 152.951 100.039 157.221C98.4595 160.011 99.0195 161.801 101.759 163.551C103.009 164.351 104.449 164.861 105.809 165.481C113.689 169.081 121.739 172.341 129.399 176.351C140.319 182.061 150.949 188.321 161.709 194.321C163.189 195.141 164.749 195.821 166.269 196.571C166.499 196.271 166.729 195.961 166.949 195.661C163.779 188.201 159.989 181.081 154.879 174.691C149.599 168.081 143.319 162.741 135.529 159.271C128.069 155.951 120.049 155.171 111.969 154.171C112.689 153.331 113.379 152.801 114.109 152.751C125.599 151.931 136.309 153.911 145.659 161.211C155.119 168.601 162.509 177.661 168.579 188.001C173.889 197.041 179.779 205.741 185.399 214.601C185.939 215.441 186.379 216.351 186.499 216.561C194.309 214.361 201.049 212.571 207.729 210.561C213.579 208.801 215.39 205.851 214.31 200.121C213.85 197.671 213.129 195.271 212.459 192.861C208.659 179.261 206.709 165.381 208.219 151.341C209.309 141.171 209.149 131.051 208.899 120.911C208.829 118.021 208.049 114.901 206.729 112.341C202.629 104.431 191.579 100.511 182.849 104.251C176.339 107.041 170.299 110.911 162.839 114.951C172.489 119.771 180.599 124.601 186.979 131.741C193.499 139.041 197.76 147.421 199.049 157.251C197.329 155.251 195.929 153.061 194.869 150.711C192.239 144.901 189.039 139.481 184.819 134.681C179.569 128.701 173.309 124.111 165.959 121.031C162.589 119.621 159.549 119.551 156.939 122.641C155.329 124.541 153.429 126.201 151.749 128.051C149.339 130.701 147.009 133.421 144.429 136.371C150.239 139.711 155.779 141.841 161.559 143.441C172.039 146.341 181.139 151.691 189.189 158.951C192.229 161.691 193.499 164.961 193.229 169.121C187.789 168.871 183.639 166.841 180.269 162.991C177.249 159.541 173.859 156.471 168.659 153.681C169.809 156.371 170.479 157.991 171.179 159.601C173.769 165.541 176.479 171.441 178.909 177.451C179.579 179.121 179.459 181.101 179.719 183.041L179.739 183.051ZM171.149 459.371C169.549 457.101 168.699 455.751 167.709 454.511C163.909 449.801 160.799 444.721 158.979 438.901C155.459 427.671 157.469 416.931 161.409 406.181C165.299 395.561 168.629 384.741 172.179 374.001C172.419 373.271 172.419 372.461 172.629 371.011C171.259 371.861 170.239 372.181 169.719 372.871C167.939 375.261 166.029 377.631 164.719 380.281C157.569 394.771 150.589 409.341 143.549 423.881C142.219 426.631 140.659 429.211 137.679 431.851C137.679 429.941 137.509 428.961 137.709 428.071C138.429 424.821 139.179 421.571 140.079 418.371C145.38 399.371 153.299 381.711 166.699 366.931C169.939 363.361 173.549 360.121 177.009 356.761C180.529 353.351 183.449 349.571 184.739 344.731C185.269 342.751 185.029 341.221 182.829 340.281C169.689 334.621 156.399 333.481 144.419 343.821C141.989 345.921 138.659 347.001 135.709 348.481C133.879 349.401 132.919 348.401 132.289 346.601C134.599 342.811 136.959 338.931 139.309 335.051C139.059 334.801 138.799 334.541 138.549 334.291C134.859 335.571 131.059 336.691 128.029 339.361C111.929 353.551 100.779 370.731 96.8195 392.091C95.2595 400.521 97.1795 408.331 102.119 415.321C103.179 416.811 104.749 417.941 106.749 419.881C106.919 417.771 107.089 416.831 107.059 415.891C106.669 404.211 109.719 393.501 115.909 383.631C122.249 373.531 130.479 365.031 138.879 356.691C139.329 356.241 140.179 356.191 140.839 355.951C141.099 356.221 141.359 356.491 141.609 356.761C139.849 359.281 138.239 361.911 136.309 364.281C131.669 369.951 126.889 375.511 122.139 381.101C116.049 388.271 112.209 396.501 110.949 405.801C110.069 412.261 109.999 418.801 111.699 425.161C112.779 429.191 114.479 432.961 119.439 434.651C120.829 431.451 122.059 428.401 123.469 425.431C124.809 422.621 125.359 419.321 128.169 417.191C128.559 420.461 128.389 423.561 128.229 426.661C128.009 431.151 127.669 435.641 127.619 440.131C127.579 443.611 128.839 446.701 131.699 448.871C142.979 457.441 155.829 460.271 171.129 459.371H171.149ZM415.949 317.821C413.879 314.011 412.589 311.331 411.029 308.821C407.899 303.781 403.429 301.071 397.329 301.241C395.179 301.301 392.949 301.241 390.889 300.731C384.599 299.171 378.299 297.581 372.129 295.601C352.169 289.191 334.959 278.811 322.159 261.651C319.609 258.231 315.269 256.011 311.469 253.711C308.769 252.081 305.75 252.401 303.049 254.491C297.129 259.081 291.129 263.581 285.199 268.151C284.619 268.601 284.249 269.301 283.509 270.221C298.299 278.531 313.129 285.921 327.599 294.151C325.889 297.391 324.24 295.651 322.81 294.921C312.87 289.871 302.959 284.751 293.019 279.681C289.359 277.811 285.65 276.031 282.06 274.261C274.93 283.231 275.889 290.951 284.639 297.161C290.169 301.081 296.329 303.391 303.009 304.541C320.829 307.611 337.859 313.161 354.169 321.011C362.56 325.051 371.19 328.611 379.75 332.311C389.29 336.431 399.189 339.181 409.599 340.021C413.659 340.351 416.859 339.141 418.81 335.471C420.75 331.831 420.139 327.451 417.37 324.281C415.19 321.791 412.359 320.551 409.12 320.031C403.21 319.101 397.299 318.121 391.409 317.041C389.309 316.661 386.98 316.521 385 313.911C395.46 314.731 404.909 317.531 415.959 317.821H415.949ZM329.629 252.351C329.359 252.681 329.099 253.011 328.829 253.341C330.249 256.881 332.469 259.981 335.209 262.611C355.439 282.021 379.869 291.571 407.649 292.761C414.679 293.061 421.589 291.641 427.789 287.951C429.71 286.811 431.889 285.781 432.459 282.461C429.799 282.321 427.39 282.011 425 282.111C416.27 282.511 407.799 281.531 399.539 278.421C378.229 270.401 356.859 262.561 335.509 254.641C333.529 253.911 331.579 253.121 329.609 252.351H329.629ZM231.379 325.211C224.269 325.211 218.689 327.241 213.069 329.331C206.339 331.821 202.109 336.441 199.669 343.131C195.919 353.381 195.709 363.961 196.099 374.641C196.109 375.051 196.569 375.441 197.199 376.431C202.319 367.321 206.749 358.241 212.299 349.911C217.88 341.541 224.589 333.931 231.399 325.221L231.379 325.211ZM187.449 454.071C182.339 447.561 176.599 441.761 172.739 434.911C168.929 428.161 167.02 420.341 164.169 412.711C163.669 413.551 163.139 414.201 162.869 414.941C159.759 423.391 159.189 431.911 163.429 440.081C165.859 444.761 168.789 449.281 172.099 453.391C176.949 459.431 181.02 459.421 187.449 454.061V454.071ZM413.24 344.281C402.88 342.121 393.619 340.191 383.959 338.171C385.629 343.301 398.049 360.451 401.829 362.961C405.419 357.071 409.009 351.201 413.24 344.281ZM216.5 119.071C224.13 112.321 230.989 106.271 238.789 99.3706C233.009 98.2206 228.529 97.1306 223.979 96.5106C221.559 96.1806 219.179 97.2306 218.579 99.9006C217.239 105.811 216.44 111.801 216.5 119.081V119.071ZM90.2195 180.131C97.3595 180.121 104.339 179.371 111.059 177.011C103.529 174.001 96.5095 174.631 90.2195 180.131Z" fill="url(#paint0_linear_451_440)"/>
<path d="M14.6967 432.16C14.6967 429.7 14.4967 427.85 14.7467 426.07C15.0667 423.8 15.4067 421.42 16.3767 419.38C17.8667 416.25 20.8567 416.2 22.3967 419.27C23.4067 421.28 23.7967 423.66 24.1267 425.92C24.4067 427.84 24.1867 429.83 24.1867 432.13C27.0267 432.33 29.4667 432.4 31.8967 432.7C35.7567 433.18 38.3467 435 38.4067 437.08C38.4667 439.28 36.1567 440.86 31.9667 441.34C29.6767 441.6 27.3567 441.68 24.5367 441.88C24.4167 443.53 24.3667 445.11 24.1767 446.68C23.8967 448.97 23.6867 451.3 23.1467 453.53C22.7067 455.35 21.6166 457.02 19.4967 457.1C17.3167 457.18 16.2467 455.46 15.7567 453.68C15.1867 451.62 14.9267 449.46 14.7167 447.33C14.5567 445.71 14.6867 444.05 14.6867 441.9C12.0367 441.73 9.76666 441.63 7.50666 441.42C2.93666 441 -0.16334 439.14 0.0066604 436.99C0.16666 434.92 3.50666 433.01 7.75666 432.62C9.99666 432.42 12.2367 432.31 14.6967 432.14V432.16Z" fill="url(#paint1_linear_451_440)"/>
<path d="M194.216 14.8421C194.396 11.7521 194.386 8.77216 194.796 5.86216C195.326 2.05216 197.106 -0.0778249 199.186 0.00217511C201.256 0.0821751 203.036 2.35218 203.496 6.00218C203.846 8.79218 203.816 11.6221 203.966 14.7821C205.026 14.9121 206.116 15.0422 207.206 15.1922C209.496 15.5122 211.826 15.6921 214.076 16.2121C216.046 16.6721 218.106 17.5922 218.206 19.9422C218.316 22.4022 216.196 23.2022 214.236 23.7022C212.316 24.1822 210.336 24.4722 208.366 24.6922C207.086 24.8422 205.776 24.7221 204.206 24.7221C204.056 26.3721 203.916 27.6522 203.816 28.9322C203.666 30.9222 203.746 32.9522 203.356 34.8822C202.886 37.1722 202.126 39.5321 199.266 39.9021C197.386 40.1421 195.626 38.2622 195.016 35.1122C194.576 32.8522 194.596 30.5022 194.426 28.1822C194.356 27.2222 194.326 26.2622 194.276 25.0522C191.326 24.7622 188.526 24.7022 185.806 24.1722C183.426 23.7122 180.646 23.3322 180.046 20.2422C179.666 18.2522 181.626 16.6822 185.826 15.8222C188.546 15.2622 191.346 15.1621 194.236 14.8421H194.216Z" fill="url(#paint2_linear_451_440)"/>
<path d="M339.347 543.282C336.387 543.122 334.237 543.002 332.097 542.872C331.597 542.842 331.107 542.772 330.607 542.682C327.107 542.072 325.007 540.612 324.867 538.732C324.717 536.712 326.947 534.852 330.687 534.272C333.297 533.872 335.967 533.852 339.327 533.602C339.327 531.952 339.247 530.352 339.347 528.762C339.477 526.782 339.537 524.752 340.037 522.852C340.587 520.782 341.417 518.432 344.157 518.602C346.777 518.762 347.637 521.052 348.087 523.172C348.567 525.432 348.597 527.782 348.767 530.102C348.837 531.072 348.777 532.042 348.777 533.562C350.737 533.692 352.517 533.632 354.227 533.972C356.637 534.442 359.177 534.832 361.327 535.932C363.977 537.292 363.827 539.822 361.197 541.332C359.937 542.052 358.417 542.472 356.967 542.682C354.517 543.042 352.027 543.122 349.087 543.352C348.987 544.622 348.967 545.892 348.767 547.122C348.257 550.212 348.137 553.472 346.987 556.302C345.717 559.412 342.437 559.332 340.927 556.282C339.997 554.412 339.647 552.182 339.387 550.062C339.137 547.962 339.327 545.812 339.327 543.262L339.347 543.282Z" fill="url(#paint3_linear_451_440)"/>
<path d="M461.017 137.212C458.107 136.342 455.677 135.612 453.007 134.812C454.707 130.532 458.277 131.702 460.957 130.732C461.947 127.952 460.457 124.262 463.927 122.172C467.597 123.952 466.247 127.652 467.257 130.592C469.407 131.972 473.437 130.212 474.547 134.882C472.217 135.642 469.967 136.372 467.267 137.252C466.977 138.922 466.767 141.032 466.197 143.042C465.967 143.842 464.837 145.052 464.327 144.952C463.397 144.772 462.157 143.912 461.897 143.072C461.317 141.212 461.277 139.192 461.007 137.212H461.017Z" fill="url(#paint4_linear_451_440)"/>
<path d="M346.177 336.902C350.947 336.622 354.647 337.712 357.957 339.502C364.977 343.292 372.107 347.022 378.607 351.592C391.627 360.752 402.977 371.772 412.277 384.762C414.177 387.422 415.747 390.312 416.927 393.432C410.307 385.972 404.157 378.012 396.927 371.192C389.687 364.372 381.707 358.202 373.437 352.652C365.047 347.012 355.927 342.482 346.157 336.902H346.177Z" fill="url(#paint5_linear_451_440)"/>
<path d="M88.9366 329.172C88.5366 329.632 88.1367 330.082 87.7367 330.542C87.5967 330.422 87.4667 330.302 87.3267 330.182L88.5266 328.822C88.6566 328.942 88.7967 329.052 88.9267 329.172H88.9366Z" fill="url(#paint6_linear_451_440)"/>
<path d="M118.707 215.002C123.237 214.342 127.747 213.452 132.307 213.052C159.617 210.662 183.497 219.182 204.637 236.132C209.627 240.132 211.527 243.612 212.027 248.422C211.727 248.722 211.427 249.022 211.127 249.312C210.927 248.662 210.887 247.902 210.507 247.392C201.497 235.082 189.157 227.542 174.937 222.822C165.137 219.572 155.237 216.482 144.807 216.222C137.827 216.042 130.827 216.412 123.847 216.522C122.207 216.552 120.567 216.522 118.927 216.522C118.857 216.022 118.787 215.512 118.727 215.012L118.707 215.002Z" fill="url(#paint7_linear_451_440)"/>
<defs>
<linearGradient id="paint0_linear_451_440" x1="231.521" y1="83" x2="231.521" y2="484.043" gradientUnits="userSpaceOnUse">
<stop offset="0.03" stop-color="#EDE3BC"/>
<stop offset="1" stop-color="#BBA073"/>
</linearGradient>
<linearGradient id="paint1_linear_451_440" x1="19.2039" y1="417" x2="19.2039" y2="457.103" gradientUnits="userSpaceOnUse">
<stop offset="0.03" stop-color="#EDE3BC"/>
<stop offset="1" stop-color="#BBA073"/>
</linearGradient>
<linearGradient id="paint2_linear_451_440" x1="199.105" y1="0" x2="199.105" y2="39.9227" gradientUnits="userSpaceOnUse">
<stop offset="0.03" stop-color="#EDE3BC"/>
<stop offset="1" stop-color="#BBA073"/>
</linearGradient>
<linearGradient id="paint3_linear_451_440" x1="344.052" y1="518.594" x2="344.052" y2="558.603" gradientUnits="userSpaceOnUse">
<stop offset="0.03" stop-color="#EDE3BC"/>
<stop offset="1" stop-color="#BBA073"/>
</linearGradient>
<linearGradient id="paint4_linear_451_440" x1="463.777" y1="122.172" x2="463.777" y2="144.958" gradientUnits="userSpaceOnUse">
<stop offset="0.03" stop-color="#EDE3BC"/>
<stop offset="1" stop-color="#BBA073"/>
</linearGradient>
<linearGradient id="paint5_linear_451_440" x1="381.542" y1="336.858" x2="381.542" y2="393.432" gradientUnits="userSpaceOnUse">
<stop offset="0.03" stop-color="#EDE3BC"/>
<stop offset="1" stop-color="#BBA073"/>
</linearGradient>
<linearGradient id="paint6_linear_451_440" x1="88.1317" y1="328.822" x2="88.1317" y2="330.542" gradientUnits="userSpaceOnUse">
<stop offset="0.03" stop-color="#EDE3BC"/>
<stop offset="1" stop-color="#BBA073"/>
</linearGradient>
<linearGradient id="paint7_linear_451_440" x1="165.367" y1="212.656" x2="165.367" y2="249.312" gradientUnits="userSpaceOnUse">
<stop offset="0.03" stop-color="#EDE3BC"/>
<stop offset="1" stop-color="#BBA073"/>
</linearGradient>
</defs>
</svg>
