<svg width="100" height="100" viewBox="0 0 100 100" fill="none" xmlns="http://www.w3.org/2000/svg">
<path d="M48.3359 38.7907V32.4286C47.5623 32.4705 46.8343 32.5352 46.1517 32.6225C45.562 32.6959 45.008 32.7876 44.4857 32.8937L44.33 32.9265C44.0958 32.9763 43.8698 33.0313 43.652 33.0876C43.5335 33.1191 43.415 33.1518 43.2979 33.1872C41.2894 33.7654 39.4137 34.6988 37.7694 35.9385C37.1193 36.4274 36.5046 36.9575 35.9297 37.5251C35.577 37.8697 35.2339 38.2313 34.9004 38.6139C33.0955 40.6965 31.7176 43.0825 30.838 45.6481C29.8809 48.3828 29.4006 51.2479 29.4159 54.1301C29.3995 56.7003 29.7954 59.2578 30.59 61.7146C31.3232 64.001 32.481 66.1442 34.0088 68.0426C36.9481 71.6573 41.6953 73.1103 46.3667 73.1064C47.024 73.1064 47.6841 73.0815 48.3386 73.0251V72.4513C49.0546 72.8024 49.7976 73.1011 50.5613 73.3448V74.2619H44.4775C41.6742 74.265 38.8767 74.0233 36.1199 73.54C32.4645 72.8919 29.4141 71.3739 26.9686 68.9859C25.2305 67.2897 23.8704 65.159 22.8884 62.5937C21.8986 59.9692 21.4014 57.1998 21.4194 54.4117C21.4194 50.4551 22.2784 46.7962 23.9963 43.4352C25.7142 40.0743 28.1147 37.3574 31.1977 35.2848C31.9735 34.7639 32.7877 34.2967 33.634 33.8868C34.0929 33.6628 34.5669 33.4545 35.0492 33.2632L35.3 33.1636C35.4378 33.1112 35.5687 33.0614 35.7051 33.0116C35.8415 32.9619 35.9807 32.9121 36.1268 32.8636C36.2729 32.8151 36.4024 32.7706 36.5402 32.726C36.6477 32.6906 36.7565 32.6579 36.8668 32.6251C36.9164 32.6081 36.9674 32.5937 37.0184 32.578C37.101 32.5544 37.1837 32.5295 37.2664 32.5072C37.327 32.4889 37.3877 32.4719 37.4483 32.4561C37.553 32.4247 37.6578 32.3972 37.7639 32.3697L37.8741 32.3408L38.2324 32.2517L38.3137 32.2308L38.734 32.1351C38.8842 32.1011 39.0357 32.0683 39.1887 32.0382C39.3417 32.0081 39.4643 31.9819 39.6021 31.9556L39.7123 31.936C39.8405 31.9111 39.97 31.8888 40.1009 31.8666H40.1368C40.2842 31.8404 40.4344 31.8168 40.5832 31.7945C40.7321 31.7722 40.8836 31.7486 41.0352 31.7277L41.4803 31.6713C41.5961 31.6569 41.7132 31.6438 41.8303 31.632L41.9916 31.6137C42.1569 31.5954 42.3237 31.5809 42.4904 31.5652H42.5248C42.6888 31.5508 42.8542 31.5364 43.0195 31.5259L43.1339 31.5167H43.2304H43.3365H43.3723L43.4881 31.5102L43.6879 31.501H43.8146L44.0792 31.4905H44.228H44.33H44.4802C44.9543 31.4774 45.511 31.4657 46.1462 31.4578C46.7815 31.4499 47.5242 31.4421 48.3304 31.4368C49.012 31.4368 49.7529 31.4368 50.5531 31.4368V38.6427C50.1741 38.6846 49.7924 38.7213 49.4148 38.7541H49.4024L48.9008 38.7934H48.854H48.8278H48.7865C48.668 38.8038 48.5495 38.8117 48.4296 38.8183L48.3359 38.7907Z" fill="url(#paint0_linear_38_196)"/>
<path d="M72.8849 67.6195C69.7513 70.2084 65.7992 71.681 61.7313 72.2798C58.6997 72.7226 55.4105 72.775 52.3899 72.0479C50.4469 71.5828 48.6156 70.7953 47.0295 69.5848C46.8457 69.4468 46.6703 69.304 46.5031 69.1563C42.5069 65.687 41.6897 59.8372 43.9745 55.2163C46.1214 50.8679 52.0054 47.1208 57.0751 49.2682C57.7886 49.5467 58.3934 50.0293 58.8059 50.6491C59.1958 51.2792 59.3474 52.0418 58.9437 52.7099C58.3759 53.6559 57.2391 53.9114 56.1601 53.8354C54.2061 53.6978 52.5263 52.9183 50.5461 53.4423C48.9725 53.8642 47.662 54.9267 46.7911 56.2526C46.4064 56.8562 46.1434 57.5227 46.0153 58.2178C44.6373 65.2272 52.2369 69.121 58.6019 68.0165C63.7763 67.119 67.2268 63.6353 68.6144 58.8847C70.173 53.5484 68.7771 46.7435 63.2513 43.7236C60.2638 42.0911 56.7003 41.7832 52.8171 41.7216C52.3913 41.7138 48.5191 41.7217 47.3643 41.7413V40.5805C47.7584 40.5622 48.1581 40.5399 48.5591 40.515L48.9463 40.4875L49.0427 40.4796C49.2219 40.4678 49.3996 40.4534 49.5788 40.4364C50.0546 40.3971 50.5296 40.3495 51.0036 40.2936C51.2627 40.2648 51.5204 40.2333 51.7781 40.1966C51.982 40.1691 52.1915 40.1403 52.3885 40.1075C53.4812 39.9457 54.5616 39.7159 55.6227 39.4197C58.4186 38.6258 60.8742 36.9461 62.1682 34.407C63.017 32.7431 63.3643 31.0177 63.3684 29.1756C63.3765 27.2077 62.9698 25.2583 62.1723 23.4423C61.3786 21.6867 60.5297 20.3229 58.9643 19.1411C57.6015 18.1113 56.7485 17.6999 54.8303 17.2715C52.9122 16.8431 50.4207 16.8169 48.0933 16.7933C47.3313 16.7854 45.3166 16.7933 44.3644 16.7933C44.2997 20.0268 44.3314 25.4547 44.3327 29.7049H44.2721C43.6534 29.7245 43.2083 29.7455 42.8803 29.7704C40.0416 29.9774 37.411 30.5146 35.045 31.3753C35.045 29.9591 35.045 28.5847 35.045 28.3318C35.045 26.3024 34.9651 23.9454 34.5889 22.2776C34.2127 20.6098 33.7056 19.9639 32.752 18.8712C31.9252 17.9161 31.1866 17.6082 30.0291 17.1287C28.9267 16.6701 27.5336 16.6282 26.3085 16.4802C26.3609 16.1723 26.1955 15.8539 26.4008 15.5434C34.9541 15.5355 45.2023 15.5434 53.2911 15.529C56.5818 15.529 57.7407 15.529 58.8031 15.5997C62.7015 15.8814 64.7202 16.3858 67.4073 17.8087C71.3884 19.9154 73.1866 23.8354 73.2459 27.906C73.3079 32.2453 70.647 36.1509 66.7803 38.3467C65.372 39.1459 63.7887 39.6883 62.2646 40.253C64.9311 40.8425 67.6912 41.3338 70.1426 42.5379C72.1215 43.5051 73.8624 44.8599 75.2509 46.5129C77.0189 48.642 78.1322 51.1951 78.4671 53.8891C78.7782 56.4366 78.4326 59.0178 77.46 61.41C76.4875 63.8021 74.9172 65.9333 72.8849 67.6195Z" fill="url(#paint1_linear_38_196)"/>
<path d="M98.7719 56.7805C98.1591 59.6307 97.2669 62.4199 96.1069 65.1118L96.3163 65.1944C98.6422 59.7702 99.8883 53.9825 99.9915 48.1256C100.015 47.3959 99.9846 46.6661 99.9667 45.9364C99.9556 45.5708 99.9529 45.2053 99.935 44.8411L99.8495 43.7484L99.7627 42.6571C99.7297 42.2928 99.6718 41.9312 99.6249 41.5696C99.5271 40.8451 99.4485 40.118 99.2983 39.4C97.7743 30.6907 93.6957 22.5673 87.5316 15.9639C81.322 9.32656 73.2827 4.47375 64.3232 1.95441C55.3636 -0.564928 45.8414 -0.650259 36.8335 1.70807C27.8256 4.0664 19.6915 8.77427 13.3514 15.2992C7.01131 21.8241 2.71811 29.9056 0.957476 38.6296C0.368768 41.5489 0.0496948 44.5115 0.00390061 47.4837C-0.111018 56.5205 2.31522 65.4224 7.03169 73.2689C10.2238 78.5869 14.3719 83.3316 19.2876 87.2875C24.3301 91.3449 30.0905 94.5184 36.3004 96.6604L36.8888 96.87C37.0845 96.9408 37.2856 97.001 37.4841 97.0587L38.6816 97.4268L39.281 97.6116C39.3816 97.6417 39.4822 97.6745 39.5828 97.702L39.8859 97.7819L41.1055 98.0963C41.5189 98.1998 41.9199 98.3151 42.3305 98.4081L43.5707 98.6702L44.8109 98.9322C45.2243 99.0056 45.646 99.0632 46.0649 99.1392L47.3244 99.3462L47.6399 99.3973L47.9569 99.4353L48.5907 99.5113L49.864 99.6607C50.0762 99.6842 50.2884 99.7118 50.502 99.7314L51.1414 99.7747C51.9958 99.831 52.8543 99.9057 53.7169 99.9489L56.3103 100C58.0438 99.9843 59.7925 99.9437 61.5384 99.7799C61.9752 99.7445 62.4162 99.7196 62.8544 99.6738L64.1635 99.51L65.4795 99.341C65.7 99.3174 65.9177 99.2794 66.1354 99.2414L66.79 99.1287C70.3363 98.5467 73.8206 97.6632 77.2008 96.4888C80.668 95.2859 84.0232 93.809 87.2312 92.0735C90.5347 90.2782 93.6906 88.2478 96.6719 85.9997C96.6719 85.9997 94.7206 79.8917 90.5219 80.8534C90.4406 80.873 90.3606 80.8874 90.2821 80.8992C89.3175 81.8373 88.284 82.7112 87.2312 83.5615C86.6249 84.041 86.0094 84.5105 85.3847 84.9699L84.9162 85.3131L84.4394 85.6472C84.1211 85.8686 83.8014 86.0901 83.4748 86.3023C82.1863 87.1722 80.8566 87.9872 79.4924 88.7523C78.1282 89.5174 76.724 90.2131 75.2922 90.859C72.4259 92.1602 69.413 93.1466 66.3118 93.799C64.7619 94.1196 63.1896 94.3333 61.6073 94.4384L60.4209 94.4869C60.2238 94.4986 60.0268 94.496 59.8283 94.4934L59.2358 94.4855C58.4462 94.4921 57.658 94.4056 56.8767 94.3467C57.2694 94.327 57.6621 94.3152 58.0548 94.2982C58.2505 94.289 58.4462 94.2982 58.6419 94.2733L59.2275 94.2248L59.8118 94.1777C60.0075 94.1646 60.2018 94.1515 60.3947 94.1226L61.5563 93.9785C61.7506 93.9589 61.9422 93.9261 62.1351 93.8947L62.7111 93.8003L63.2871 93.7073C63.4786 93.6732 63.6674 93.63 63.859 93.592L65 93.3588L66.1313 93.085C69.1346 92.3076 72.0592 91.2776 74.8706 90.0074C76.2789 89.3772 77.6638 88.6973 79.0266 87.978C80.3894 87.2587 81.7247 86.4883 83.0448 85.6944C83.3769 85.4979 83.7035 85.2935 84.0287 85.0891C84.3539 84.8847 84.6792 84.6764 85.0044 84.4694C85.6562 84.058 86.2942 83.6283 86.9336 83.1959C88.0167 82.4657 89.0805 81.7076 90.125 80.9215C86.3603 81.346 86.8357 74.5345 83.76 75.1961C83.6705 75.2144 83.5809 75.2289 83.4941 75.2393C83.2378 75.5302 82.9778 75.818 82.7141 76.1027C82.0747 76.7879 81.405 77.4483 80.7188 78.0929C79.3408 79.3796 77.88 80.5838 76.345 81.6984C74.8062 82.8178 73.1929 83.8414 71.5151 84.7629C69.8325 85.6834 68.0852 86.4928 66.2856 87.1853C65.383 87.5286 64.4653 87.8404 63.5393 88.1103C62.6133 88.3802 61.6748 88.6344 60.7254 88.8361C60.2528 88.9423 59.7746 89.0248 59.2978 89.1139C58.821 89.203 58.3401 89.2737 57.8592 89.3327C57.3782 89.3917 56.8946 89.4493 56.4123 89.5004C55.93 89.5515 55.4477 89.5803 54.9599 89.5973C53.9953 89.6484 53.0196 89.6537 52.0523 89.6209L51.3261 89.5882C51.0849 89.5764 50.8438 89.5541 50.6026 89.5371C50.1189 89.507 49.638 89.4506 49.1585 89.4061C48.6789 89.3615 48.2063 89.2751 47.7323 89.2017C44.6708 89.3709 41.599 89.2144 38.5741 88.7353C32.926 87.8342 27.5283 85.8549 22.7064 82.9169C15.2324 78.3569 9.34953 71.7911 5.80252 64.0506C4.60878 61.4486 3.68795 58.7409 3.05341 55.9669C2.41333 53.1798 2.06164 50.3398 2.00338 47.4876C1.95424 44.627 2.19187 41.7684 2.71305 38.9506C4.30316 30.4069 8.38902 22.4607 14.5038 16.0201C20.6185 9.57942 28.5156 4.90408 37.2925 2.52825C43.909 0.730851 50.8494 0.278793 57.6618 1.20153C64.4743 2.12426 71.0058 4.40108 76.8311 7.88369C82.6564 11.3663 87.6447 15.9766 91.4711 21.4142C95.2975 26.8519 97.8763 32.9949 99.0393 39.4432C99.1922 40.156 99.2735 40.8779 99.3741 41.5984C99.4196 41.9587 99.4789 42.3177 99.5119 42.6806L99.6001 43.7668L99.6883 44.8529C99.7062 45.2158 99.7104 45.58 99.7228 45.9429C99.7407 46.6687 99.7724 47.3959 99.7517 48.123C99.7083 51.0315 99.3803 53.9298 98.7719 56.7805Z" fill="url(#paint2_linear_38_196)"/>
<path d="M78.4699 70.7704C77.4206 72.8804 76.0996 74.8582 74.5371 76.6582C72.9339 78.5195 71.1221 80.2091 69.1339 81.6971L67.5864 82.7937L65.9631 83.8038C65.8942 83.8458 65.8253 83.8903 65.7578 83.9348L65.547 84.0488L65.1239 84.2794L64.2737 84.7445L63.8465 84.9764L63.407 85.1821L62.5237 85.5974L62.0799 85.8084C61.9325 85.8791 61.7837 85.9499 61.6307 86.0075L60.7171 86.3704L59.798 86.7386C59.4879 86.8539 59.1724 86.9508 58.8596 87.0596C57.607 87.505 56.3144 87.8378 55.0012 88.1732C53.4284 88.534 51.8345 88.8052 50.2278 88.9855C51.7851 89.0385 53.3444 88.9982 54.8964 88.865C55.8417 88.7837 56.7843 88.6671 57.7186 88.5191C58.1871 88.4496 58.6515 88.3579 59.1173 88.2728C59.583 88.1876 60.0433 88.0841 60.5021 87.9701C60.961 87.8561 61.4199 87.7461 61.8801 87.6282C62.3404 87.5103 62.7896 87.3779 63.2402 87.2351C64.1414 86.96 65.0316 86.6534 65.9122 86.318C66.7927 85.9826 67.6636 85.6263 68.5207 85.2384C69.3778 84.8506 70.217 84.4288 71.0507 83.9951C72.7163 83.1198 74.3297 82.1576 75.8834 81.1128C76.6633 80.5887 77.424 80.0463 78.1777 79.4908C78.9315 78.9353 79.6673 78.3562 80.3894 77.7601C81.1115 77.1639 81.8212 76.5547 82.5157 75.9259C82.7582 75.7071 82.9966 75.4843 83.2336 75.2603C80.3494 75.3219 78.4699 70.7704 78.4699 70.7704Z" fill="url(#paint3_linear_38_196)"/>
<defs>
<linearGradient id="paint0_linear_38_196" x1="-27.2515" y1="25.0393" x2="86.1543" y2="74.1537" gradientUnits="userSpaceOnUse">
<stop stop-color="#FFF8A1"/>
<stop offset="1" stop-color="#866D48"/>
</linearGradient>
<linearGradient id="paint1_linear_38_196" x1="-21.989" y1="12.8864" x2="91.4168" y2="62.0007" gradientUnits="userSpaceOnUse">
<stop stop-color="#FFF8A1"/>
<stop offset="1" stop-color="#866D48"/>
</linearGradient>
<linearGradient id="paint2_linear_38_196" x1="-24.942" y1="19.7057" x2="88.4637" y2="68.82" gradientUnits="userSpaceOnUse">
<stop stop-color="#FFF8A1"/>
<stop offset="1" stop-color="#866D48"/>
</linearGradient>
<linearGradient id="paint3_linear_38_196" x1="-34.2793" y1="41.2643" x2="79.1264" y2="90.3787" gradientUnits="userSpaceOnUse">
<stop stop-color="#FFF8A1"/>
<stop offset="1" stop-color="#866D48"/>
</linearGradient>
</defs>
</svg>
