<svg width="595" height="475" viewBox="0 0 595 475" fill="none" xmlns="http://www.w3.org/2000/svg">
<path d="M289.861 404.085C226.371 404.085 162.891 404.095 99.4006 404.055C95.2506 404.055 91.0806 403.795 86.9506 403.345C81.8106 402.785 78.8606 399.715 78.2406 394.575C77.9406 392.105 77.7206 389.595 77.7206 387.105C77.7606 358.115 77.5406 329.115 77.9806 300.125C78.8106 244.735 99.5406 197.425 137.301 157.345C159.931 133.325 186.681 115.295 217.631 103.685C238.071 96.0151 259.301 92.1751 281.051 90.9651C316.261 89.0051 350.131 94.6951 382.271 109.385C425.741 129.255 458.301 160.895 481.661 202.355C491.131 219.165 497.911 236.995 502.421 255.725C502.811 257.345 503.141 258.995 503.761 260.535C505.111 263.885 506.911 264.365 509.971 262.275C510.931 261.625 511.791 260.815 512.651 260.035C524.021 249.875 537.551 244.525 552.531 243.435C563.291 242.645 574.151 242.985 584.961 243.215C591.701 243.365 594.381 246.135 594.511 252.765C594.741 263.915 595.231 275.105 594.521 286.205C593.261 306.055 583.851 321.985 568.981 334.865C562.481 340.485 562.381 341.645 568.831 347.125C586.351 361.985 594.501 381.125 594.791 403.835C594.891 411.335 594.771 418.835 594.701 426.325C594.681 427.985 594.621 429.675 594.281 431.295C593.301 436.025 590.821 438.375 586.031 438.445C574.871 438.605 563.631 439.355 552.571 438.315C533.221 436.505 516.741 428.185 504.621 412.655C499.651 406.285 493.811 403.555 485.791 403.575C420.471 403.725 355.151 403.655 289.831 403.655V404.085H289.861ZM98.8306 311.545C101.571 309.955 103.121 309.075 104.661 308.155C116.131 301.285 128.151 295.605 140.731 291.075C176.671 278.135 213.721 275.035 251.521 278.435C279.911 280.985 307.961 285.895 336.021 290.765C361.771 295.235 387.511 299.875 413.641 301.675C426.311 302.545 438.951 302.525 451.491 300.185C463.921 297.865 475.091 293.215 483.201 282.855C484.371 281.365 484.791 280.135 484.461 278.375C483.381 272.655 482.621 266.855 481.311 261.195C472.341 222.545 453.241 189.595 423.711 163.255C375.781 120.515 319.991 103.125 256.321 115.015C215.861 122.575 181.081 141.585 152.651 171.435C118.461 207.325 101.121 250.505 98.8506 299.875C98.6906 303.325 98.8306 306.795 98.8306 311.545ZM486.471 308.505C484.381 309.595 483.071 310.235 481.791 310.955C475.371 314.575 468.581 317.215 461.411 318.975C447.031 322.525 432.401 323.075 417.721 322.435C392.871 321.355 368.371 317.365 343.891 313.225C312.691 307.945 281.561 302.235 250.001 299.375C220.711 296.725 191.751 298.105 163.291 305.985C141.591 311.985 121.351 321.115 103.021 334.335C100.041 336.475 98.6406 338.785 98.7606 342.605C99.0506 352.095 98.8706 361.595 98.8706 371.095C98.8706 381.995 99.7106 382.845 110.401 382.855C231.891 382.965 353.371 383.075 474.861 383.175C476.531 383.175 478.201 383.255 479.861 383.125C484.461 382.755 486.381 380.815 486.731 376.185C486.831 374.865 486.691 373.525 486.651 372.195C486.541 368.365 486.301 364.545 486.331 360.715C486.471 344.895 486.711 329.075 486.881 313.245C486.891 311.965 486.661 310.675 486.471 308.495V308.505ZM574.211 405.215C574.341 405.205 574.481 405.185 574.611 405.175C574.161 401.055 573.971 396.885 573.211 392.825C568.291 366.545 545.721 347.615 514.381 350.845C509.891 351.305 507.901 353.385 507.461 357.955C507.151 361.095 507.031 364.285 507.181 367.435C508.611 398.015 533.241 421.285 568.121 418.805C572.041 418.525 573.971 416.265 574.201 412.215C574.331 409.885 574.221 407.555 574.221 405.215H574.211ZM574.181 276.565C574.181 274.735 574.031 272.895 574.211 271.085C574.741 265.725 572.701 263.205 566.681 262.955C561.891 262.765 557.001 262.955 552.281 263.735C523.711 268.435 504.021 294.765 507.451 323.405C508.001 327.985 509.751 330.005 514.461 330.275C519.581 330.575 524.801 330.815 529.861 330.165C543.131 328.475 554.161 322.355 562.571 311.845C570.811 301.545 574.331 289.625 574.201 276.555L574.181 276.565Z" fill="url(#paint0_linear_451_536)"/>
<path d="M24.57 278.125C27.5 278.415 29.94 278.595 32.36 278.905C33.5 279.055 34.82 279.175 35.68 279.815C36.9 280.725 38.35 281.975 38.66 283.325C39.1 285.205 37.31 286.315 35.65 286.665C32.27 287.365 28.84 287.795 24.82 288.425C24.75 289.695 24.78 291.295 24.57 292.855C24.24 295.305 24.09 297.865 23.21 300.125C22.72 301.385 20.91 302.935 19.73 302.915C18.53 302.895 16.87 301.305 16.3 300.015C15.46 298.105 15.3 295.855 15.08 293.725C14.9 291.965 15.04 290.165 15.04 288.245C9.55999 287.215 3.63 288.945 0 283.235C3.5 277.625 9.34 279.125 14.83 278.115C14.9 276.615 14.86 275.005 15.06 273.435C15.38 270.985 15.53 268.425 16.4 266.155C16.89 264.885 18.61 263.525 19.93 263.345C20.88 263.215 22.59 264.765 23.07 265.935C23.93 268.035 24.24 270.395 24.53 272.675C24.75 274.435 24.57 276.245 24.57 278.135V278.125Z" fill="url(#paint1_linear_451_536)"/>
<path d="M395.291 459.825C395.111 462.925 395.091 465.565 394.781 468.165C394.251 472.605 392.501 475.005 390.141 474.875C387.901 474.745 386.141 472.035 385.821 467.805C385.631 465.345 385.791 462.865 385.791 460.105C382.461 459.695 379.541 459.495 376.681 458.955C372.831 458.225 370.971 456.815 371.211 454.895C371.601 451.735 374.381 451.245 376.741 450.755C379.471 450.195 382.311 450.155 385.681 449.835C385.681 447.855 385.521 445.895 385.721 443.965C385.941 441.845 386.201 439.635 387.021 437.695C387.511 436.535 388.971 435.345 390.211 435.045C392.091 434.595 393.351 436.175 393.761 437.845C394.421 440.555 394.761 443.355 395.131 446.135C395.281 447.245 395.151 448.385 395.151 449.855C396.861 449.975 398.311 450.005 399.731 450.195C401.691 450.465 403.681 450.695 405.581 451.225C407.541 451.775 409.801 452.845 409.301 455.135C409.001 456.495 407.081 457.865 405.571 458.515C403.801 459.275 401.701 459.315 399.731 459.565C398.431 459.735 397.111 459.725 395.281 459.825H395.291Z" fill="url(#paint2_linear_451_536)"/>
<path d="M260.471 25.0853C258.651 24.9753 257.021 24.9953 255.421 24.7553C253.291 24.4453 251.091 24.2153 249.131 23.4153C247.941 22.9253 246.271 21.3053 246.401 20.4153C246.591 19.0953 247.951 17.3853 249.221 16.9053C251.661 15.9853 254.371 15.7753 256.981 15.3453C258.071 15.1653 259.201 15.1953 260.711 15.1153C260.711 12.8953 260.501 10.9153 260.761 8.98527C261.071 6.71527 261.431 4.32532 262.411 2.28532C263.901 -0.804682 266.861 -0.744726 268.451 2.36527C269.331 4.08527 269.771 6.1253 270.011 8.0753C270.271 10.1853 270.071 12.3553 270.071 14.8653C271.331 15.0353 272.411 15.1653 273.491 15.3353C276.101 15.7553 278.811 15.9053 281.271 16.7653C282.591 17.2253 284.261 18.9053 284.321 20.1053C284.371 21.2153 282.691 22.8453 281.401 23.4653C279.661 24.2953 277.581 24.4653 275.611 24.7453C274.001 24.9653 272.351 24.9253 270.491 25.0153C270.241 28.2053 270.171 31.1753 269.751 34.0853C269.181 38.0553 267.651 39.9853 265.481 40.0453C263.331 40.0953 261.601 38.0753 261.051 34.2353C260.631 31.3153 260.661 28.3353 260.481 25.0753L260.471 25.0853Z" fill="url(#paint3_linear_451_536)"/>
<path d="M483.2 114.285C480.66 113.435 477.51 114.605 476.07 111.375C477.54 108.235 480.78 109.335 483.39 108.105C483.69 106.255 483.88 104.135 484.44 102.115C484.66 101.315 485.87 100.065 486.32 100.185C487.24 100.435 488.38 101.335 488.66 102.205C489.25 104.065 489.35 106.075 489.64 107.935C492.03 109.555 495.69 107.985 497.13 111.355C495.73 114.625 492.53 113.405 489.93 114.345C488.21 116.745 490.53 121.085 486.64 122.875C482.55 121.085 484.85 116.785 483.21 114.275L483.2 114.285Z" fill="url(#paint4_linear_451_536)"/>
<defs>
<linearGradient id="paint0_linear_451_536" x1="336.295" y1="90.5913" x2="336.295" y2="438.856" gradientUnits="userSpaceOnUse">
<stop stop-color="#F3EBC5"/>
<stop offset="1" stop-color="#C4AB7F"/>
</linearGradient>
<linearGradient id="paint1_linear_451_536" x1="19.3638" y1="263.337" x2="19.3638" y2="302.915" gradientUnits="userSpaceOnUse">
<stop stop-color="#F3EBC5"/>
<stop offset="1" stop-color="#C4AB7F"/>
</linearGradient>
<linearGradient id="paint2_linear_451_536" x1="390.28" y1="434.968" x2="390.28" y2="474.88" gradientUnits="userSpaceOnUse">
<stop stop-color="#F3EBC5"/>
<stop offset="1" stop-color="#C4AB7F"/>
</linearGradient>
<linearGradient id="paint3_linear_451_536" x1="265.358" y1="0" x2="265.358" y2="40.0462" gradientUnits="userSpaceOnUse">
<stop stop-color="#F3EBC5"/>
<stop offset="1" stop-color="#C4AB7F"/>
</linearGradient>
<linearGradient id="paint4_linear_451_536" x1="486.6" y1="100.177" x2="486.6" y2="122.875" gradientUnits="userSpaceOnUse">
<stop stop-color="#F3EBC5"/>
<stop offset="1" stop-color="#C4AB7F"/>
</linearGradient>
</defs>
</svg>
