<svg width="647" height="167" viewBox="0 0 647 167" fill="none" xmlns="http://www.w3.org/2000/svg">
<path d="M408.474 71.7801C409.075 69.326 409.874 66.9248 410.864 64.6001C411.481 63.0866 412.416 61.7227 413.604 60.6001C414.666 59.7094 415.941 59.1098 417.304 58.8601C416.861 58.1388 416.228 57.5539 415.474 57.1701C414.427 56.6327 413.259 56.3776 412.084 56.4301C410.341 56.3774 408.633 56.9325 407.254 58.0001C405.659 59.3846 404.371 61.0878 403.474 63.0001C402.126 65.6803 401.019 68.4745 400.164 71.3501C399.124 74.7234 398.024 78.7234 396.864 83.3501C396.183 86.2174 395.356 89.0479 394.384 91.8301C393.594 94.0812 392.589 96.2512 391.384 98.3101C390.481 99.9081 389.271 101.312 387.824 102.44C386.588 103.378 385.064 103.855 383.514 103.79C383.083 103.792 382.659 103.68 382.285 103.466C381.911 103.252 381.6 102.943 381.384 102.57C380.946 101.822 380.764 100.951 380.864 100.09C380.957 99.1605 381.269 98.2662 381.774 97.4801C381.998 97.0739 382.31 96.7231 382.687 96.4531C383.064 96.1832 383.497 96.0011 383.954 95.9201C383.724 95.5101 383.124 95.2701 382.164 95.1801C381.31 95.0702 380.444 95.2385 379.694 95.6601C378.237 96.4734 377.067 97.7167 376.344 99.2201C375.631 100.616 375.372 102.2 375.604 103.75C375.868 105.323 376.649 106.762 377.824 107.84C379.364 109.182 381.305 109.977 383.344 110.1C388.857 110.733 393.454 108.687 397.134 103.96C400.814 99.2334 403.697 92.2901 405.784 83.1301C406.791 78.5501 407.687 74.7667 408.474 71.7801Z" fill="#121212"/>
<path d="M439.224 64C437.878 60.8468 435.963 57.9687 433.574 55.51C430.968 52.8658 427.818 50.8187 424.344 49.51C421.467 48.3938 418.459 47.6511 415.394 47.3C413.804 47.1084 412.205 47.0116 410.604 47.01L411.384 45.75C411.994 44.8 412.664 43.88 413.334 42.96C418.538 39.1292 424.298 36.1176 430.414 34.03C435.062 32.5023 439.876 31.5355 444.754 31.15C449.618 30.7429 454.514 30.958 459.324 31.79C464.156 32.6236 468.905 33.8852 473.514 35.56C478.164 37.17 482.694 39.13 487.214 41.16C489.474 42.16 491.714 43.24 493.954 44.28C496.194 45.32 498.414 46.46 500.634 47.57C505.074 49.78 509.514 52 514.004 54.13C509.744 51.57 505.424 49.13 501.124 46.62C496.824 44.11 492.394 41.83 487.944 39.62C486.834 39.06 485.694 38.54 484.574 37.99C483.454 37.44 482.304 36.99 481.164 36.45C480.024 35.91 478.864 35.45 477.714 34.99C477.134 34.74 476.554 34.52 475.964 34.29L474.214 33.62C469.503 31.8454 464.639 30.5065 459.684 29.62C454.69 28.7772 449.606 28.5923 444.564 29.07C443.314 29.24 442.064 29.39 440.814 29.58L438.954 30C438.641 30.0466 438.331 30.1066 438.024 30.18L437.104 30.38C435.864 30.63 434.654 30.98 433.434 31.31L431.634 31.89L430.734 32.19L429.854 32.52C424.624 34.4698 419.704 37.1642 415.244 40.52L415.894 39.73C416.524 39.17 417.174 38.62 417.844 38.11C418.214 37.81 418.614 37.52 419.004 37.24C419.394 36.96 419.784 36.65 420.164 36.35C420.934 35.74 421.724 35.2 422.514 34.64C422.904 34.35 423.314 34.1 423.714 33.83C424.114 33.56 424.514 33.29 424.934 33.05C428.199 31.006 431.672 29.3132 435.294 28C438.901 26.6774 442.634 25.7258 446.434 25.16C446.914 25.08 447.434 25.03 447.864 24.97C448.294 24.91 448.864 24.84 449.294 24.81L450.714 24.69C450.954 24.675 451.194 24.675 451.434 24.69H452.144C454.054 24.63 455.994 24.69 457.904 24.79C461.745 25.0328 465.565 25.5474 469.334 26.33C473.117 27.1003 476.858 28.0615 480.544 29.21C484.244 30.3433 487.891 31.63 491.484 33.07C498.724 35.87 505.894 38.93 513.124 41.85C520.354 44.77 527.664 47.56 535.124 49.85C536.984 50.45 538.874 50.95 540.764 51.47C541.694 51.75 542.654 51.96 543.604 52.2C544.554 52.44 545.514 52.66 546.464 52.87L549.344 53.45L550.784 53.74C551.264 53.84 551.784 53.9 552.234 53.98L555.134 54.45C555.614 54.53 556.134 54.59 556.584 54.64L558.044 54.81C560.044 55.02 561.914 55.26 563.874 55.42C565.834 55.58 567.774 55.69 569.734 55.69C571.691 55.6934 573.647 55.5966 575.594 55.4C577.536 55.1869 579.463 54.8529 581.364 54.4C579.447 54.7459 577.51 54.963 575.564 55.05C573.628 55.15 571.689 55.15 569.754 55.05C567.814 54.95 565.884 54.79 563.954 54.55C562.024 54.31 560.104 54 558.194 53.72C554.344 53.19 550.564 52.35 546.794 51.46C545.854 51.22 544.924 50.95 543.984 50.71C543.044 50.47 542.104 50.23 541.184 49.93C539.324 49.37 537.464 48.84 535.634 48.2L532.954 47.21L530.214 46.21C528.384 45.58 526.574 44.87 524.754 44.21C522.934 43.55 521.144 42.79 519.334 42.08C517.524 41.37 515.734 40.62 513.944 39.86L503.164 35.37L497.754 33.14C495.944 32.41 494.144 31.67 492.314 30.96C488.674 29.53 484.964 28.23 481.204 27.1C477.447 25.9428 473.632 24.9848 469.774 24.23C465.901 23.4869 461.982 23.0125 458.044 22.81C456.044 22.74 454.104 22.69 452.114 22.81H451.374C451.126 22.815 450.879 22.8351 450.634 22.87L449.154 23.03C448.654 23.03 448.154 23.16 447.674 23.22C447.194 23.28 446.674 23.36 446.214 23.45C438.407 24.7627 430.969 27.7216 424.394 32.13C423.984 32.4 423.594 32.7 423.184 32.98C422.774 33.26 422.374 33.54 421.994 33.84C421.224 34.45 420.424 35.03 419.694 35.67L419.114 36.15C420.614 34.59 422.114 33.09 423.784 31.68C424.984 30.68 426.214 29.68 427.484 28.76C428.754 27.84 430.084 26.99 431.434 26.19C434.135 24.6212 436.99 23.3344 439.954 22.35C445.954 20.4514 452.254 19.6851 458.534 20.09C461.675 20.259 464.802 20.6332 467.894 21.21C469.454 21.49 470.994 21.81 472.534 22.15L474.844 22.71L477.134 23.32C478.664 23.74 480.184 24.18 481.704 24.65C483.224 25.12 484.704 25.65 486.244 26.13C489.244 27.13 492.244 28.28 495.244 29.43C507.304 34.06 519.384 39.32 532.374 43.7C533.994 44.27 535.654 44.77 537.294 45.31L539.804 46.07L541.054 46.45L542.334 46.8C545.714 47.8 549.204 48.62 552.764 49.38L555.464 49.91C556.364 50.1 557.294 50.22 558.214 50.38C560.044 50.71 561.924 50.92 563.814 51.16L566.694 51.42L568.144 51.55L569.604 51.61C570.604 51.61 571.604 51.73 572.604 51.73H576.374H577.134L578.664 51.66L580.204 51.59C580.714 51.59 581.204 51.5 581.744 51.45L584.874 51.15L588.024 50.68C592.349 49.9854 596.608 48.9249 600.754 47.51L602.344 46.97C602.874 46.78 603.344 46.57 603.924 46.36L607.074 45.1L610.164 43.66C610.684 43.42 611.164 43.18 611.714 42.92L613.214 42.11C614.214 41.57 615.214 41.03 616.214 40.46L619.134 38.67C619.624 38.37 620.134 38.07 620.604 37.75L622.014 36.75L624.874 34.75C624.874 34.75 611.964 33.29 611.874 22.66C611.814 17.3 600.494 20.86 597.344 9.15996C595.904 3.83996 588.504 0.959961 588.504 0.959961C588.334 1.45996 588.134 1.95996 587.954 2.46996L587.654 3.23996C587.554 3.49996 587.434 3.71996 587.324 3.95996C587.104 4.44996 586.864 4.95996 586.634 5.40996C586.404 5.85996 586.124 6.31996 585.864 6.78996L585.454 7.48996C585.314 7.71996 585.154 7.91996 585.014 8.13996L584.104 9.46996C583.784 9.88996 583.434 10.29 583.104 10.72L582.594 11.35L581.954 12C578.683 15.4183 574.722 18.1011 570.334 19.87C567.873 20.8844 565.339 21.7134 562.754 22.35C559.987 22.9947 557.186 23.4822 554.364 23.81C553.654 23.91 552.914 23.96 552.184 24.02C551.454 24.08 550.714 24.16 549.964 24.19L547.734 24.32L545.474 24.37H544.334H543.194H540.894C539.354 24.31 537.814 24.28 536.264 24.18C530.054 23.83 523.724 23.11 517.364 22.18C514.184 21.72 511.004 21.18 507.794 20.64L498.134 18.94C495.684 18.49 493.204 18.09 490.734 17.69C494.554 18.59 498.374 19.54 502.164 20.55C512.764 23.24 523.164 26.94 533.854 28.88C544.58 30.9323 555.603 30.8678 566.304 28.69C576.874 26.25 587.204 21.87 595.554 14.74C587.444 22.15 577.094 28.74 566.434 31.2C555.774 33.66 545.054 32.71 534.234 30.82C523.414 28.76 512.574 23.94 502.004 21.15C496.734 19.68 491.444 18.3 486.114 17.09C485.514 16.94 484.894 16.84 484.294 16.7L483.434 16.58L480.954 16.22L478.474 15.93L475.994 15.67L473.494 15.47C471.824 15.33 470.164 15.23 468.494 15.17C465.154 15.05 461.804 15.08 458.494 15.27C455.139 15.46 451.799 15.8574 448.494 16.46C445.196 17.0605 441.952 17.9267 438.794 19.05C438.004 19.33 437.214 19.6 436.444 19.94L435.274 20.41C434.884 20.57 434.514 20.76 434.134 20.93L432.994 21.45L431.864 22.01C431.114 22.39 430.374 22.77 429.644 23.19C428.184 24 426.764 24.88 425.374 25.81C423.984 26.74 422.624 27.71 421.314 28.74C414.622 34.0477 408.81 40.3791 404.094 47.5C399.944 48.09 395.784 48.5 391.684 49.37C388.438 50.0544 385.261 51.0352 382.194 52.3C381.414 52.63 380.634 52.98 379.854 53.38C379.074 53.78 378.314 54.21 377.564 54.67C376.069 55.6069 374.66 56.6744 373.354 57.86C372.689 58.4648 372.058 59.1058 371.464 59.78C370.834 60.5001 370.262 61.2692 369.754 62.08C369.239 62.9227 368.807 63.8136 368.464 64.74C368.106 65.7072 367.867 66.7147 367.754 67.74C367.754 68.01 367.754 68.28 367.704 68.54C367.654 68.8 367.704 69.06 367.704 69.32C367.704 69.58 367.704 69.85 367.754 70.12C367.804 70.39 367.824 70.66 367.864 70.94C368.068 72.1044 368.489 73.2203 369.104 74.23C369.748 75.2811 370.606 76.1842 371.624 76.88C372.58 77.522 373.633 78.0049 374.744 78.31C376.753 78.8449 378.855 78.9371 380.904 78.58C381.882 78.4204 382.846 78.1796 383.784 77.86C384.274 77.7 384.674 77.53 385.104 77.36C385.534 77.19 385.944 77.01 386.354 76.82C387.985 76.044 389.547 75.1307 391.024 74.09C392.486 73.073 393.864 71.9393 395.144 70.7C396.402 69.4843 397.588 68.1954 398.694 66.84C399.774 65.48 400.784 64.07 401.694 62.64C404.194 58.79 406.204 54.82 408.284 51.03C409.731 51.2007 411.166 51.4544 412.584 51.79C414.923 52.3339 417.199 53.1216 419.374 54.14C422.682 55.6813 425.464 58.1607 427.374 61.27C429.322 64.4225 430.636 67.9244 431.244 71.58C431.888 75.3896 431.932 79.2767 431.374 83.1C430.893 86.8502 429.883 90.5133 428.374 93.98C427.026 97.0876 425.11 99.9162 422.724 102.32C420.632 104.487 417.84 105.844 414.844 106.15C413.63 106.34 412.388 106.219 411.234 105.8C410.222 105.434 409.291 104.873 408.494 104.15C407.759 103.481 407.17 102.667 406.764 101.76C406.371 100.931 406.163 100.027 406.154 99.11C405.799 99.049 405.433 99.0942 405.104 99.24C404.735 99.396 404.429 99.6704 404.234 100.02C403.986 100.444 403.839 100.92 403.804 101.41C403.751 102.045 403.84 102.684 404.064 103.28C404.326 104.17 404.739 105.009 405.284 105.76C405.912 106.657 406.69 107.438 407.584 108.07C408.641 108.811 409.8 109.397 411.024 109.81C412.512 110.294 414.07 110.527 415.634 110.5C418.858 110.531 422.045 109.802 424.934 108.37C427.783 106.948 430.338 105.001 432.464 102.63C434.695 100.143 436.545 97.3392 437.954 94.31C439.43 91.1557 440.482 87.8201 441.084 84.39C441.692 80.9621 441.87 77.4719 441.614 74C441.376 70.5573 440.568 67.1781 439.224 64ZM553.314 41.93C559.761 42.0381 566.203 41.5021 572.544 40.33C578.89 39.1635 585.141 37.5256 591.244 35.43C597.37 33.3549 603.342 30.8487 609.114 27.93C597.884 34.41 587.364 39.62 574.604 42.06C568.198 43.2104 561.688 43.6796 555.184 43.46C548.674 43.25 540.364 41.07 534.184 39.12C540.425 40.818 546.848 41.7614 553.314 41.93ZM396.534 59.16C395.661 60.3996 394.727 61.5944 393.734 62.74C392.775 63.8889 391.747 64.9776 390.654 66L389.834 66.74L388.984 67.44C388.424 67.9 387.844 68.35 387.254 68.77C386.079 69.5936 384.838 70.3194 383.544 70.94C383.224 71.1 382.904 71.26 382.544 71.39C382.184 71.52 381.884 71.68 381.604 71.78C381.017 71.9999 380.411 72.1673 379.794 72.28C378.638 72.509 377.449 72.509 376.294 72.28C375.831 72.1917 375.388 72.0225 374.984 71.78C374.643 71.5835 374.344 71.3219 374.104 71.01C373.848 70.6472 373.662 70.2404 373.554 69.81C373.279 68.7007 373.299 67.5387 373.614 66.44C373.793 65.8346 374.024 65.2457 374.304 64.68C374.614 64.0894 374.975 63.5273 375.384 63C375.81 62.4193 376.271 61.8649 376.764 61.34C377.765 60.2396 378.866 59.2352 380.054 58.34C383.935 55.6045 388.319 53.6639 392.954 52.63C394.454 52.25 395.954 51.95 397.504 51.72C398.184 51.62 398.864 51.53 399.554 51.46L400.614 51.35C400.969 51.3663 401.325 51.3395 401.674 51.27C399.954 54 398.294 56.66 396.534 59.16Z" fill="#121212"/>
<path d="M646.954 90C646.894 89.68 646.764 89.52 646.554 89.52C646.227 89.5891 645.936 89.7737 645.734 90.04C645.346 90.4402 645.047 90.9171 644.854 91.44C644.567 92.0733 644.017 93.2033 643.204 94.83C642.335 96.5534 641.363 98.223 640.294 99.83C639.239 101.45 638.03 102.963 636.684 104.35C636.24 104.91 635.688 105.375 635.061 105.719C634.434 106.062 633.745 106.277 633.034 106.35C632.784 106.385 632.528 106.363 632.288 106.284C632.048 106.205 631.829 106.072 631.648 105.896C631.467 105.719 631.33 105.503 631.246 105.264C631.162 105.026 631.134 104.771 631.164 104.52C631.177 102.98 631.444 101.453 631.954 100C632.504 98.25 633.194 96.4 634.034 94.43C634.874 92.46 635.594 90.69 636.174 89.12C636.38 88.6522 636.453 88.1365 636.384 87.6299C636.315 87.1234 636.107 86.6458 635.784 86.25C635.109 85.4382 634.218 84.8348 633.214 84.51C632.206 84.165 631.123 84.1062 630.084 84.34C629.592 84.4198 629.132 84.6352 628.756 84.962C628.38 85.2888 628.102 85.714 627.954 86.19C627.434 87.58 626.744 89.42 625.864 91.71C624.983 93.9915 623.982 96.2247 622.864 98.4C621.883 100.396 620.69 102.28 619.304 104.02C618.024 105.58 616.784 106.37 615.564 106.37C614.564 106.37 613.824 105.7 613.474 104.37C613.103 102.73 613.015 101.039 613.214 99.37C613.433 97.1429 613.868 94.9425 614.514 92.8C615.185 90.4901 616.075 88.2498 617.174 86.11C618.155 84.1446 619.449 82.3513 621.004 80.8C622.254 79.4626 623.929 78.6003 625.744 78.36C626.399 78.2579 627.069 78.3076 627.702 78.5052C628.334 78.7029 628.913 79.0432 629.394 79.5C629.796 79.9588 630.094 80.4996 630.267 81.0849C630.44 81.6703 630.483 82.2862 630.394 82.89C631.77 83.1594 633.194 83.0096 634.484 82.46C635.392 82.0128 636.127 81.278 636.574 80.37C636.978 79.498 637.156 78.5388 637.094 77.58C637.062 76.7075 636.855 75.8504 636.484 75.06C635.657 73.4997 634.277 72.3049 632.614 71.71C630.598 70.8593 628.389 70.5757 626.224 70.89C623.091 71.1828 620.127 72.4446 617.744 74.5C615.313 76.5794 613.28 79.0834 611.744 81.89C610.137 84.7715 608.977 87.8803 608.304 91.11C607.88 93.0347 607.62 94.9915 607.524 96.96C606.764 98.17 605.954 99.34 605.094 100.46C604.038 101.855 602.842 103.139 601.524 104.29C600.64 105.179 599.472 105.731 598.224 105.85C597.294 105.85 596.624 105.24 596.224 104.03C595.761 102.406 595.582 100.715 595.694 99.03C595.797 96.5635 596.074 94.1073 596.524 91.68C597.062 88.6682 597.773 85.69 598.654 82.76C599.654 79.55 600.654 76.29 601.854 73.17C602.564 71.33 603.264 69.5 603.964 67.66L605.174 64.5C605.884 62.69 606.564 61.07 607.224 59.61C604.694 57.05 601.864 56.35 598.384 59.61C596.992 62.1929 595.772 64.8655 594.734 67.61C592.749 72.7878 591.152 78.1058 589.954 83.52C589.404 86.1 588.954 88.52 588.744 90.79C588.618 90.9703 588.508 91.1609 588.414 91.36C587.759 92.8358 587.018 94.2716 586.194 95.66C585.954 96.08 585.704 96.49 585.454 96.9C584.704 98.11 583.884 99.28 583.024 100.4C581.968 101.795 580.772 103.079 579.454 104.23C578.567 105.121 577.396 105.674 576.144 105.79C575.224 105.79 574.554 105.18 574.144 103.97C573.681 102.346 573.502 100.655 573.614 98.97C573.717 96.5035 573.994 94.0473 574.444 91.62C574.982 88.6082 575.693 85.63 576.574 82.7C577.524 79.49 578.574 76.23 579.774 73.11C580.474 71.27 581.184 69.44 581.884 67.6C582.294 66.6 582.684 65.49 583.094 64.44C583.804 62.63 584.484 61.01 585.094 59.55C582.564 56.99 579.734 56.29 576.244 59.55C574.859 62.1335 573.646 64.806 572.614 67.55C570.661 72.7655 569.103 78.1206 567.954 83.57C567.39 86.1388 566.963 88.7358 566.674 91.35C566.544 92.57 566.504 93.7 566.454 94.83C566.154 95.29 565.874 95.75 565.544 96.19C564.416 97.6877 563.067 99.0059 561.544 100.1C559.976 101.236 558.224 102.092 556.364 102.63C554.23 103.219 552.004 103.396 549.804 103.15C548.441 103.025 547.128 102.576 545.974 101.84C544.934 101.154 544.071 100.232 543.454 99.15C542.794 97.9929 542.351 96.7257 542.144 95.41C541.911 93.9722 541.854 92.5115 541.974 91.06C542.777 91.9648 543.715 92.7406 544.754 93.36C545.964 94.1062 547.283 94.6595 548.664 95C550.154 95.3864 551.702 95.5049 553.234 95.35C555.006 95.1673 556.714 94.5898 558.234 93.66C559.634 92.7767 560.859 91.6407 561.844 90.31C562.904 88.9035 563.781 87.3678 564.454 85.74C565.107 84.1461 565.502 82.4583 565.624 80.74C565.753 79.1626 565.524 77.5764 564.954 76.1C564.391 74.688 563.424 73.4739 562.174 72.61C560.572 71.5995 558.718 71.059 556.824 71.05C554.531 70.9452 552.255 71.4857 550.254 72.61C548.058 73.837 546.062 75.3915 544.334 77.22C542.455 79.215 540.836 81.4392 539.514 83.84C538.168 86.2157 537.101 88.7392 536.334 91.36C535.674 93.6096 535.357 95.9459 535.394 98.29C535.024 98.79 534.654 99.29 534.264 99.79C534.024 100.08 533.784 100.38 533.534 100.67C532.32 102.123 530.933 103.423 529.404 104.54C528.263 105.491 526.795 105.957 525.314 105.84H525.104H524.924C524.431 105.692 523.981 105.43 523.611 105.073C523.24 104.716 522.96 104.277 522.794 103.79C522.455 102.948 522.236 102.063 522.144 101.16C522.052 100.393 522.008 99.6219 522.014 98.85C522.047 96.4432 522.292 94.044 522.744 91.68C523.154 89.4 523.674 87.15 524.264 84.91C524.854 82.67 525.674 80.39 526.434 78.14C527.194 75.89 528.004 73.64 528.704 71.37C529.404 69.1 530.304 67.13 531.134 65.02C531.161 64.9389 531.21 64.8665 531.274 64.81C531.35 64.794 531.428 64.794 531.504 64.81C535.044 64.81 538.594 64.56 542.124 64.44L551.384 64.15L553.934 64.07C554.877 64.0646 555.815 63.9162 556.714 63.63C557.294 63.4 557.574 63.14 557.544 62.85C557.514 62.56 557.184 62.3 556.544 62.07C555.701 61.8039 554.818 61.6855 553.934 61.72C553.064 61.72 551.354 61.72 548.794 61.63C546.234 61.54 543.174 61.49 539.584 61.37L536.534 61.2C535.894 61.2 535.284 61.2 534.704 61.2C534.124 61.2 533.654 61.14 533.084 61.09H532.884C533.041 60.6916 533.161 60.2799 533.244 59.86C530.714 57.3 527.884 56.6 524.394 59.86L523.974 60.65C519.667 60.4233 515.374 60.15 511.094 59.83C506.814 59.51 502.767 59.0733 498.954 58.52C497.104 58.29 495.954 58.52 495.434 59.31C495.197 59.7081 495.094 60.1719 495.141 60.6329C495.188 61.0939 495.382 61.5276 495.694 61.87C496.612 63.0287 497.79 63.9539 499.134 64.57C501.003 65.4564 503.073 65.8324 505.134 65.66L521.804 65.05C521.444 65.89 521.104 66.76 520.754 67.66C518.037 74.6022 516.092 81.8223 514.954 89.19C514.714 90.87 514.514 92.63 514.394 94.41C513.874 95.41 513.394 96.41 512.844 97.32C511.777 99.0118 510.569 100.611 509.234 102.1C508.212 103.265 507.042 104.29 505.754 105.15C505.352 105.462 504.888 105.686 504.393 105.805C503.898 105.923 503.384 105.936 502.884 105.84C502.124 105.61 501.824 104.9 501.964 103.71C502.207 102.189 502.63 100.701 503.224 99.28C503.891 97.5066 504.734 95.5333 505.754 93.36C506.754 91.19 507.674 89.01 508.574 86.84C509.426 84.7946 510.167 82.7049 510.794 80.58C511.333 78.9406 511.54 77.2103 511.404 75.49C511.371 74.7623 511.174 74.0516 510.828 73.4108C510.481 72.7701 509.995 72.216 509.404 71.79C508.156 70.9806 506.655 70.6569 505.184 70.88C503.221 71.1752 501.346 71.899 499.694 73C497.456 74.4315 495.472 76.2261 493.824 78.31C491.311 81.4045 489.044 84.6912 487.044 88.14C487.854 85.47 488.604 82.88 489.304 80.35C490.004 77.82 490.574 75.59 491.044 73.61C491.384 71.99 491.334 70.83 490.864 70.13C490.673 69.8205 490.404 69.5658 490.085 69.3906C489.767 69.2153 489.408 69.1256 489.044 69.13C488.167 69.1764 487.335 69.5305 486.694 70.13C485.84 70.8546 485.206 71.8037 484.864 72.87C483.994 75.54 483.064 78.13 482.084 80.66C481.104 83.19 480.154 85.54 479.254 87.74C478.354 89.94 477.574 91.93 476.904 93.74C476.234 95.55 475.764 96.92 475.474 97.96C475.032 99.4967 474.751 101.075 474.634 102.67C474.124 103.29 473.634 103.89 473.064 104.44C472.621 105.002 472.07 105.468 471.443 105.812C470.815 106.155 470.125 106.369 469.414 106.44C469.164 106.473 468.91 106.449 468.67 106.37C468.431 106.29 468.213 106.157 468.033 105.981C467.852 105.805 467.715 105.589 467.63 105.352C467.545 105.114 467.516 104.861 467.544 104.61C467.563 103.101 467.827 101.605 468.324 100.18C468.874 98.43 469.574 96.58 470.414 94.61C471.254 92.64 471.964 90.87 472.544 89.3C472.755 88.8332 472.83 88.3165 472.761 87.809C472.692 87.3015 472.482 86.8236 472.154 86.43C471.481 85.6161 470.589 85.0122 469.584 84.69C468.576 84.345 467.493 84.2862 466.454 84.52C465.973 84.6055 465.525 84.8214 465.158 85.1441C464.791 85.4667 464.52 85.8838 464.374 86.35L462.284 91.87C461.401 94.1541 460.4 96.3905 459.284 98.57C458.299 100.498 457.116 102.318 455.754 104C454.484 105.56 453.234 106.35 452.014 106.35C451.014 106.35 450.274 105.68 449.934 104.35C449.564 102.71 449.476 101.019 449.674 99.35C449.887 97.122 450.322 94.921 450.974 92.78C451.646 90.4719 452.533 88.232 453.624 86.09C454.609 84.1267 455.902 82.334 457.454 80.78C458.704 79.445 460.38 78.586 462.194 78.35C462.848 78.2443 463.518 78.2913 464.151 78.4873C464.784 78.6833 465.364 79.023 465.844 79.48C466.255 79.9349 466.561 80.4738 466.743 81.0592C466.924 81.6446 466.976 82.2626 466.894 82.87C468.27 83.1484 469.699 82.9947 470.984 82.43C471.891 81.9892 472.623 81.2567 473.064 80.35C473.472 79.4795 473.651 78.5191 473.584 77.56C473.555 76.6882 473.351 75.8311 472.984 75.04C472.157 73.4797 470.777 72.2849 469.114 71.69C467.094 70.8419 464.882 70.5585 462.714 70.87C459.581 71.1647 456.618 72.4263 454.234 74.48C451.806 76.5622 449.773 79.0656 448.234 81.87C446.636 84.7555 445.476 87.8629 444.794 91.09C444.126 94.0708 443.877 97.1303 444.054 100.18C444.17 102.637 444.855 105.033 446.054 107.18C446.521 108.044 447.212 108.767 448.055 109.272C448.898 109.777 449.861 110.046 450.844 110.05C452.117 110.12 453.386 109.865 454.534 109.31C455.696 108.736 456.754 107.972 457.664 107.05C458.675 106.027 459.54 104.87 460.234 103.61C461.004 102.241 461.672 100.817 462.234 99.35C462.058 100.545 461.985 101.753 462.014 102.96C462.03 104.137 462.253 105.301 462.674 106.4C463.055 107.417 463.7 108.315 464.544 109C465.533 109.729 466.748 110.083 467.974 110C469.368 110.001 470.732 109.59 471.894 108.82C473.006 108.076 474.015 107.188 474.894 106.18C475.064 107.278 475.519 108.312 476.214 109.18C476.506 109.548 476.915 109.805 477.373 109.909C477.832 110.013 478.312 109.957 478.734 109.75C479.734 109.34 480.484 108.24 481.124 106.44L481.564 105.22C482.795 102.002 484.29 98.8913 486.034 95.92C487.67 93.1002 489.519 90.4091 491.564 87.87C493.188 85.8121 495.025 83.9317 497.044 82.26C498.784 80.8733 500.204 80.1766 501.304 80.17C501.184 80.58 500.954 81.17 500.604 82.09C500.254 83.01 499.884 83.93 499.484 85L498.214 88.35C497.784 89.51 497.394 90.58 497.044 91.57C496.239 94.009 495.641 96.511 495.254 99.05C494.942 100.994 494.942 102.976 495.254 104.92C495.473 106.361 496.109 107.706 497.084 108.79C497.556 109.26 498.12 109.627 498.742 109.866C499.364 110.106 500.029 110.213 500.694 110.18C502.903 110.149 505.03 109.334 506.694 107.88C508.589 106.31 510.27 104.498 511.694 102.49C512.65 101.151 513.535 99.7624 514.344 98.33C514.403 101.227 515.15 104.068 516.524 106.62C517.166 107.784 518.127 108.742 519.294 109.38C520.861 110.083 522.587 110.356 524.294 110.17C526.36 110.05 528.337 109.291 529.954 108C531.852 106.483 533.535 104.713 534.954 102.74C535.244 102.34 535.484 101.94 535.764 101.54C536.03 102.674 536.483 103.755 537.104 104.74C538.126 106.428 539.584 107.809 541.324 108.74C543.044 109.646 544.942 110.165 546.884 110.26C549.026 110.361 551.168 110.053 553.194 109.35C555.513 108.561 557.688 107.399 559.634 105.91C561.858 104.191 563.834 102.172 565.504 99.91C565.834 99.46 566.114 98.91 566.424 98.47C566.473 101.319 567.178 104.118 568.484 106.65C569.104 107.787 570.033 108.724 571.164 109.354C572.295 109.984 573.581 110.281 574.874 110.21C576.813 110.153 578.653 109.342 580.004 107.95C581.709 106.355 583.214 104.559 584.484 102.6C584.864 102.03 585.234 101.45 585.584 100.87C586.463 99.4202 587.257 97.921 587.964 96.38C588.154 95.98 588.294 95.66 588.464 95.29C588.464 95.49 588.464 95.72 588.464 95.92C588.464 96.34 588.464 96.76 588.464 97.17C588.365 100.459 589.098 103.719 590.594 106.65C591.214 107.787 592.143 108.724 593.274 109.354C594.405 109.984 595.691 110.281 596.984 110.21C598.923 110.153 600.763 109.342 602.114 107.95C603.819 106.355 605.324 104.559 606.594 102.6C606.984 102.03 607.344 101.45 607.694 100.87C607.857 103.084 608.506 105.235 609.594 107.17C610.058 108.034 610.748 108.757 611.589 109.262C612.43 109.768 613.393 110.036 614.374 110.04C615.65 110.11 616.923 109.855 618.074 109.3C619.234 108.724 620.292 107.96 621.204 107.04C622.212 106.017 623.073 104.859 623.764 103.6C624.538 102.233 625.206 100.809 625.764 99.34C625.584 100.534 625.51 101.742 625.544 102.95C625.557 104.126 625.777 105.29 626.194 106.39C626.582 107.404 627.226 108.299 628.064 108.99C629.057 109.719 630.275 110.073 631.504 109.99C632.895 109.991 634.256 109.58 635.414 108.81C636.687 107.984 637.829 106.973 638.804 105.81C639.88 104.564 640.844 103.226 641.684 101.81C642.505 100.412 643.256 98.9733 643.934 97.5C644.574 96.11 645.114 94.87 645.554 93.76C645.994 92.65 646.314 91.88 646.554 91.42C646.811 90.9907 646.949 90.5005 646.954 90ZM544.104 83.44C544.803 81.8719 545.741 80.4215 546.884 79.14C547.914 77.9696 549.173 77.0234 550.584 76.36C551.953 75.7202 553.483 75.5076 554.974 75.75C555.425 75.7987 555.859 75.9491 556.244 76.1899C556.628 76.4306 556.953 76.7555 557.194 77.14C557.642 77.9646 557.824 78.9078 557.714 79.84C557.598 80.9787 557.305 82.0922 556.844 83.14C556.347 84.2984 555.712 85.3929 554.954 86.4C554.209 87.4013 553.331 88.2962 552.344 89.06C551.481 89.7586 550.444 90.2082 549.344 90.36C547.855 90.6847 546.305 90.5948 544.864 90.1C543.983 89.7575 543.173 89.2558 542.474 88.62C542.809 86.8346 543.357 85.0957 544.104 83.44ZM501.204 62.54C499.654 62.54 498.404 62.14 498.404 61.66C498.404 61.18 499.654 60.79 501.204 60.79C502.754 60.79 503.994 61.18 503.994 61.66C503.994 62.14 502.744 62.54 501.204 62.54Z" fill="#121212"/>
<path d="M228.264 71.3399C229.437 70.1117 230.378 68.6822 231.044 67.1199C231.707 65.5393 232.018 63.8329 231.954 62.1199C231.902 59.24 230.962 56.4464 229.264 54.1199C227.517 51.7772 225.291 49.834 222.734 48.4199C219.917 46.8528 216.884 45.7104 213.734 45.0299C210.336 44.2817 206.862 43.936 203.384 43.9999C199.875 44.0612 196.384 44.531 192.984 45.3999C189.723 46.2015 186.601 47.4893 183.724 49.2199C181.035 50.8441 178.709 53.0058 176.894 55.5699C175.053 58.2371 173.943 61.3401 173.674 64.5699C173.426 66.477 173.558 68.4144 174.064 70.2699C174.48 71.7821 175.157 73.2102 176.064 74.4899C176.858 75.5818 177.882 76.4864 179.064 77.1399C180.119 77.7326 181.296 78.0747 182.504 78.1399C183.682 78.2325 184.861 77.9751 185.894 77.3999C186.769 76.9008 187.526 76.2186 188.114 75.3999C188.65 74.6218 188.993 73.7271 189.114 72.7899C189.233 71.9405 189.14 71.0749 188.844 70.2699C187.682 70.5583 186.462 70.5132 185.324 70.1399C184.199 69.782 183.173 69.1694 182.324 68.3499C181.465 67.5101 180.811 66.4835 180.414 65.3499C179.979 64.0918 179.815 62.7558 179.934 61.4299C180.101 59.0785 180.984 56.8345 182.464 54.9999C183.876 53.2426 185.658 51.8187 187.684 50.8299C189.89 49.7447 192.252 49.0092 194.684 48.6499C197.273 48.2445 199.901 48.1438 202.514 48.3499C205.125 48.5468 207.706 49.0263 210.214 49.7799C212.546 50.4685 214.77 51.4782 216.824 52.7799C218.645 53.9391 220.189 55.4859 221.344 57.3099C222.439 59.0635 222.957 61.1166 222.824 63.1799C222.625 65.6372 221.616 67.9589 219.954 69.7799C217.755 72.1628 214.942 73.8929 211.824 74.7799C210.317 75.2399 208.547 75.7166 206.514 76.2099C204.481 76.7032 202.627 77.0966 200.954 77.3899C201.887 73.3899 202.727 70.0832 203.474 67.4699C204.064 65.2921 204.837 63.1679 205.784 61.1199C206.383 59.742 207.273 58.5104 208.394 57.5099C209.419 56.6949 210.627 56.1423 211.914 55.8999C211.474 55.1763 210.84 54.5907 210.084 54.2099C209.038 53.6725 207.869 53.4174 206.694 53.4699C204.946 53.4287 203.238 53.998 201.864 55.0799C200.259 56.4362 198.955 58.1118 198.034 59.9999C196.685 62.6794 195.577 65.4738 194.724 68.3499C193.724 71.7099 192.584 75.7199 191.424 80.3499C190.748 83.2174 189.923 86.0478 188.954 88.8299C188.164 91.0811 187.159 93.251 185.954 95.3099C185.051 96.9107 183.837 98.3149 182.384 99.4399C181.148 100.369 179.63 100.846 178.084 100.79C177.653 100.792 177.229 100.68 176.855 100.466C176.481 100.252 176.17 99.9426 175.954 99.5699C175.516 98.8214 175.334 97.9511 175.434 97.0899C175.527 96.1604 175.839 95.2661 176.344 94.4799C176.57 94.0956 176.877 93.7645 177.243 93.5092C177.609 93.2538 178.025 93.0801 178.464 92.9999C178.224 92.5899 177.634 92.3399 176.674 92.2599C175.817 92.1478 174.947 92.3162 174.194 92.7399C172.742 93.5564 171.576 94.7991 170.854 96.2999C170.14 97.6957 169.882 99.2797 170.114 100.83C170.379 102.397 171.156 103.832 172.324 104.91C173.865 106.258 175.81 107.056 177.854 107.18C183.301 107.807 187.867 105.807 191.554 101.18C195.241 96.5532 198.124 89.6966 200.204 80.6099C201.134 80.2599 202.204 79.9299 203.334 79.6099C204.464 79.2899 205.654 79.0099 206.814 78.7799C207.974 78.5499 209.084 78.3599 210.124 78.2199C211.016 78.0781 211.922 78.0345 212.824 78.0899C214.993 78.1778 217.085 78.9203 218.824 80.2199C220.356 81.3833 221.556 82.928 222.304 84.6999C223.037 86.5024 223.348 88.4487 223.214 90.3899C223.114 92.4044 222.597 94.3762 221.694 96.1799C220.764 98.0115 219.443 99.6161 217.824 100.88C216.033 102.255 213.891 103.097 211.644 103.31C209.993 103.559 208.309 103.47 206.694 103.05C205.448 102.724 204.287 102.13 203.294 101.31C202.478 100.628 201.814 99.7832 201.344 98.8299C200.931 98.0384 200.705 97.1625 200.684 96.2699C200.311 96.2096 199.928 96.2643 199.587 96.4269C199.246 96.5895 198.962 96.8521 198.774 97.1799C198.526 97.6042 198.379 98.0798 198.344 98.5699C198.292 99.2048 198.381 99.8433 198.604 100.44C198.944 101.453 199.508 102.375 200.254 103.14C201.126 104.06 202.139 104.837 203.254 105.44C204.554 106.155 205.943 106.696 207.384 107.05C209.061 107.471 210.785 107.676 212.514 107.66C216.096 107.783 219.657 107.067 222.914 105.57C225.436 104.373 227.619 102.565 229.264 100.31C230.723 98.2484 231.595 95.8287 231.784 93.3099C232.007 90.8047 231.621 88.2827 230.66 85.9584C229.699 83.6342 228.191 81.5763 226.264 79.9599C224.136 78.1443 221.547 76.9536 218.784 76.5199C220.603 76.1246 222.359 75.482 224.004 74.6099C225.591 73.7576 227.03 72.6532 228.264 71.3399Z" fill="#121212"/>
<path d="M363.894 86.7401C363.374 86.6501 362.824 87.2501 362.244 88.5201C361.531 90.1194 360.576 91.6 359.414 92.9101C358.25 94.256 356.938 95.4669 355.504 96.5201C354.119 97.5677 352.585 98.4035 350.954 99.0001C349.393 99.5698 347.745 99.8642 346.084 99.8701C345.652 99.8713 345.221 99.8413 344.794 99.7801C344.145 99.6988 343.512 99.5236 342.914 99.2601L342.544 99.0801C341.831 98.724 341.19 98.2392 340.654 97.6501C340.056 97.0105 339.597 96.2548 339.304 95.4301C339.018 94.6515 338.869 93.8294 338.864 93.0001C341.444 93.1537 344.03 92.8143 346.484 92.0001L346.894 91.8601C347.621 91.6134 348.331 91.3334 349.024 91.0201C350.538 90.3468 351.974 89.5084 353.304 88.5201C355.307 87.0395 357.03 85.2144 358.394 83.13C359.716 81.146 360.565 78.8844 360.874 76.52C361.167 73.9067 360.834 71.9467 359.874 70.6401C358.958 69.3907 357.636 68.4996 356.134 68.1201C354.541 67.7512 352.882 67.7821 351.304 68.2101C349.72 68.5797 348.224 69.2594 346.904 70.2101C344.965 71.7814 343.149 73.4998 341.474 75.35C339.32 77.6702 337.316 80.1252 335.474 82.7L335.014 83.35C335.014 83.35 336.964 77.5701 337.374 76.1901C337.784 74.8101 338.194 73.4401 338.644 72.0801C339.534 69.3901 340.474 66.6801 341.454 64.0801C342.221 61.9867 342.967 60.0701 343.694 58.3301C341.314 56.2201 338.644 55.8501 335.414 58.8601C334.947 59.7201 334.487 60.62 334.034 61.56C333.214 63.56 332.381 65.7634 331.534 68.1701C330.534 70.9501 329.604 73.7101 328.704 76.4301C328.464 77.1601 328.234 77.88 328.004 78.59C327.374 80.5 326.804 82.3201 326.264 84.0401C325.624 86.1401 325.054 88.0401 324.544 89.8001C323.892 91.0202 323.15 92.1901 322.324 93.3001C321.196 94.8008 319.847 96.1224 318.324 97.2201C314.963 99.6643 310.797 100.737 306.674 100.22C305.634 100.175 304.614 99.9165 303.678 99.4606C302.743 99.0047 301.91 98.3612 301.234 97.5701C299.967 95.981 299.17 94.0688 298.934 92.0501C298.651 89.7685 298.783 87.4546 299.324 85.2201C299.827 82.9251 300.691 80.7245 301.884 78.7C302.949 76.853 304.407 75.2622 306.154 74.0401C306.952 73.4747 307.855 73.0754 308.81 72.8658C309.765 72.6562 310.753 72.6407 311.714 72.8201C312.324 72.8956 312.892 73.1727 313.326 73.6075C313.761 74.0423 314.038 74.6098 314.114 75.2201C314.295 76.6445 314.066 78.0913 313.454 79.3901C312.803 80.9057 311.843 82.2683 310.634 83.3901C310.099 83.9252 309.46 84.3444 308.757 84.6214C308.053 84.8984 307.3 85.0273 306.544 85.0001C306.337 85.519 306.25 86.0778 306.288 86.6351C306.326 87.1924 306.488 87.7341 306.764 88.2201C307.314 89.1517 308.174 89.8598 309.194 90.2201C310.383 90.6362 311.664 90.7123 312.894 90.4401C314.376 90.1243 315.752 89.4359 316.894 88.4401C318.603 86.9893 319.946 85.1565 320.814 83.09C321.765 81.0181 322.24 78.7595 322.204 76.4801C322.175 74.3979 321.438 72.3876 320.114 70.7801C318.784 69.1601 316.604 68.26 313.594 68.09C311.27 67.9985 308.968 68.5671 306.954 69.7301C304.722 70.9389 302.697 72.495 300.954 74.34C299.092 76.35 297.493 78.5878 296.194 81.0001C294.85 83.3745 293.799 85.9029 293.064 88.5301C292.844 89.3201 292.734 90.0801 292.584 90.8501C292.404 91.2201 292.254 91.5301 292.034 91.9601C291.167 93.6846 290.195 95.3544 289.124 96.9601C288.066 98.5805 286.857 100.097 285.514 101.49C285.07 102.05 284.518 102.515 283.891 102.859C283.264 103.202 282.575 103.417 281.864 103.49C281.614 103.525 281.36 103.503 281.121 103.425C280.881 103.346 280.663 103.214 280.483 103.039C280.302 102.863 280.164 102.648 280.079 102.411C279.995 102.174 279.965 101.92 279.994 101.67C280.012 100.158 280.276 98.6582 280.774 97.2301C281.321 95.4901 282.017 93.6367 282.864 91.6701C283.704 89.6701 284.414 87.9301 284.994 86.3601C285.2 85.8923 285.273 85.3766 285.204 84.87C285.135 84.3635 284.927 83.8859 284.604 83.49C283.929 82.6783 283.038 82.0748 282.034 81.7501C281.027 81.4023 279.944 81.34 278.904 81.5701C278.423 81.6591 277.975 81.8761 277.608 82.1981C277.24 82.5202 276.966 82.9354 276.814 83.4001C276.294 84.7867 275.597 86.6301 274.724 88.9301C273.86 91.2107 272.875 93.4438 271.774 95.6201C270.785 97.6107 269.588 99.4912 268.204 101.23C266.924 102.8 265.684 103.58 264.464 103.58C263.464 103.58 262.724 102.92 262.374 101.58C262.008 99.9397 261.92 98.2495 262.114 96.5801C262.33 94.3519 262.769 92.1509 263.424 90.0101C264.089 87.6963 264.976 85.4525 266.074 83.31C267.058 81.3493 268.351 79.5597 269.904 78.0101C271.154 76.6727 272.829 75.8104 274.644 75.5701C275.298 75.4667 275.967 75.5148 276.6 75.7107C277.233 75.9066 277.812 76.245 278.294 76.7C278.697 77.1604 278.995 77.7029 279.168 78.29C279.341 78.8771 279.384 79.4947 279.294 80.1C280.67 80.3739 282.097 80.2204 283.384 79.6601C284.294 79.216 285.03 78.4803 285.474 77.5701C285.878 76.7017 286.056 75.7457 285.994 74.7901C285.965 73.9172 285.757 73.0596 285.384 72.27C284.557 70.7098 283.177 69.515 281.514 68.9201C279.499 68.066 277.29 67.779 275.124 68.09C271.992 68.3874 269.029 69.6487 266.644 71.7C264.215 73.7854 262.182 76.2923 260.644 79.1C259.042 81.9836 257.882 85.0917 257.204 88.3201C257.034 89.1401 256.964 89.8901 256.854 90.6801C256.494 91.3601 256.104 92.0801 255.654 92.8601L254.954 94.0001C254.204 95.2001 253.384 96.3701 252.524 97.5001C251.468 98.8924 250.272 100.173 248.954 101.32C248.071 102.218 246.898 102.774 245.644 102.89C244.724 102.89 244.054 102.28 243.644 101.06C243.181 99.4362 243.002 97.7448 243.114 96.0601C243.218 93.5969 243.495 91.1442 243.944 88.7201C244.48 85.7079 245.191 82.7295 246.074 79.8001C247.074 76.5901 248.074 73.32 249.274 70.2C249.984 68.37 250.684 66.53 251.384 64.7C251.794 63.64 252.184 62.5801 252.594 61.5301C253.307 59.7301 253.991 58.1034 254.644 56.6501C252.114 54.0901 249.284 53.3901 245.804 56.6501C244.409 59.2302 243.192 61.9031 242.164 64.6501C240.172 69.8296 238.571 75.1512 237.374 80.5701C236.814 83.1397 236.387 85.7365 236.094 88.3501C235.934 89.9401 235.834 91.4501 235.814 92.8901C235.814 93.3201 235.814 93.7301 235.814 94.1401C235.714 97.429 236.447 100.69 237.944 103.62C238.561 104.759 239.49 105.7 240.621 106.332C241.752 106.964 243.04 107.261 244.334 107.19C246.273 107.133 248.113 106.323 249.464 104.93C251.167 103.333 252.671 101.537 253.944 99.5801C254.334 99.0001 254.694 98.43 255.044 97.84C255.594 96.93 256.044 96.0001 256.514 95.0801C256.514 95.8101 256.444 96.5601 256.514 97.2601C256.622 99.718 257.307 102.116 258.514 104.26C258.976 105.127 259.665 105.853 260.506 106.36C261.348 106.867 262.311 107.136 263.294 107.14C264.57 107.206 265.842 106.952 266.994 106.4C268.157 105.823 269.215 105.056 270.124 104.13C271.132 103.108 271.997 101.955 272.694 100.7C273.462 99.33 274.13 97.9063 274.694 96.4401C274.513 97.6345 274.44 98.8426 274.474 100.05C274.492 101.222 274.712 102.383 275.124 103.48C275.509 104.498 276.154 105.398 276.994 106.09C277.987 106.819 279.205 107.173 280.434 107.09C281.824 107.086 283.184 106.676 284.344 105.91C285.616 105.084 286.759 104.073 287.734 102.91C288.806 101.663 289.766 100.325 290.604 98.9101C291.214 97.9101 291.684 96.9101 292.174 95.9101C292.189 97.9982 292.784 100.041 293.894 101.81C294.916 103.498 296.374 104.879 298.114 105.81C299.865 106.719 301.793 107.237 303.764 107.33C305.932 107.431 308.101 107.136 310.164 106.46C312.472 105.703 314.633 104.557 316.554 103.07C318.76 101.343 320.721 99.325 322.384 97.0701C322.514 96.9001 322.604 96.6901 322.734 96.5201C322.243 98.3852 322.03 100.313 322.104 102.24C322.133 103.668 322.574 105.057 323.374 106.24C323.631 106.603 324.011 106.86 324.443 106.963C324.876 107.066 325.331 107.008 325.724 106.8C326.38 106.455 326.912 105.913 327.244 105.25C327.557 104.692 327.819 104.106 328.024 103.5L331.334 94.0201C332.043 92.526 332.848 91.0796 333.744 89.6901C334.628 88.3233 335.61 87.0231 336.684 85.8001C338.499 83.674 340.537 81.7496 342.764 80.06C344.415 78.7686 346.266 77.7553 348.244 77.06C349.904 76.53 351.104 76.5101 351.864 76.9701C352.182 77.2137 352.434 77.5319 352.6 77.8963C352.766 78.2608 352.839 78.6605 352.814 79.06C352.775 80.1048 352.509 81.1285 352.034 82.06C351.423 83.2881 350.631 84.4174 349.684 85.4101C348.614 86.5767 347.386 87.5867 346.034 88.4101C344.586 89.2686 343.014 89.8993 341.374 90.2801C339.589 90.6831 337.74 90.7103 335.944 90.3601C334.998 92.2206 334.492 94.2732 334.464 96.3601C334.433 98.1843 334.802 99.9932 335.544 101.66C335.987 102.633 336.588 103.525 337.324 104.3C337.722 104.722 338.161 105.104 338.634 105.44C339.043 105.739 339.482 105.994 339.944 106.2C340.983 106.658 342.108 106.89 343.244 106.88C345.318 106.826 347.348 106.274 349.164 105.27C351.341 104.134 353.358 102.715 355.164 101.05C357.111 99.2731 358.861 97.2917 360.384 95.1401C361.878 93.0697 363.105 90.8184 364.034 88.4401C364.444 87.4201 364.424 86.8201 363.894 86.7401Z" fill="#121212"/>
<path d="M215.694 125.71C216.755 126.239 217.635 127.071 218.224 128.1C218.834 129.211 219.141 130.463 219.114 131.73C219.144 132.991 218.837 134.237 218.224 135.34C217.632 136.354 216.751 137.169 215.694 137.68C214.505 138.245 213.2 138.526 211.884 138.5H207.434V124.88H211.884C213.202 124.847 214.509 125.132 215.694 125.71ZM215.544 135.38C215.989 134.887 216.331 134.31 216.551 133.684C216.771 133.057 216.864 132.393 216.824 131.73C216.902 130.376 216.442 129.046 215.544 128.03C215.06 127.566 214.484 127.208 213.854 126.979C213.224 126.75 212.553 126.655 211.884 126.7H209.664V136.7H211.884C212.552 136.74 213.221 136.644 213.85 136.417C214.479 136.19 215.056 135.837 215.544 135.38Z" fill="#121212"/>
<path d="M224.864 128C225.456 127.68 226.121 127.521 226.794 127.54V129.85H226.224C225.863 129.825 225.5 129.871 225.157 129.986C224.814 130.101 224.497 130.282 224.224 130.52C223.708 131.173 223.467 132.002 223.554 132.83V138.52H221.314V127.7H223.554V129.27C223.871 128.738 224.323 128.3 224.864 128Z" fill="#121212"/>
<path d="M238.674 133.93H230.424C230.445 134.326 230.544 134.713 230.716 135.07C230.888 135.427 231.128 135.747 231.424 136.01C231.999 136.534 232.756 136.814 233.534 136.79C234.062 136.825 234.588 136.7 235.043 136.43C235.498 136.161 235.861 135.76 236.084 135.28H238.494C238.174 136.259 237.555 137.112 236.724 137.72C235.794 138.379 234.673 138.713 233.534 138.67C232.566 138.685 231.611 138.448 230.764 137.98C229.948 137.508 229.283 136.814 228.844 135.98C228.365 135.079 228.124 134.07 228.144 133.05C228.123 132.032 228.357 131.025 228.824 130.12C229.248 129.295 229.91 128.615 230.724 128.17C231.584 127.699 232.553 127.461 233.534 127.48C234.487 127.462 235.428 127.693 236.264 128.15C237.047 128.587 237.692 129.235 238.124 130.02C238.576 130.872 238.803 131.826 238.784 132.79C238.777 133.172 238.74 133.553 238.674 133.93ZM236.414 132.13C236.428 131.752 236.356 131.375 236.204 131.029C236.052 130.682 235.822 130.375 235.534 130.13C234.939 129.622 234.176 129.355 233.394 129.38C232.656 129.358 231.939 129.623 231.394 130.12C230.815 130.633 230.457 131.349 230.394 132.12L236.414 132.13Z" fill="#121212"/>
<path d="M242.584 138.21C241.946 137.954 241.384 137.537 240.954 137C240.569 136.484 240.349 135.863 240.324 135.22H242.634C242.655 135.448 242.724 135.669 242.838 135.867C242.952 136.066 243.108 136.237 243.294 136.37C243.727 136.689 244.256 136.851 244.794 136.83C245.306 136.86 245.815 136.735 246.254 136.47C246.414 136.373 246.545 136.237 246.637 136.074C246.728 135.911 246.775 135.727 246.774 135.54C246.78 135.349 246.728 135.16 246.625 134.999C246.521 134.839 246.371 134.713 246.194 134.64C245.606 134.364 244.994 134.147 244.364 133.99C243.685 133.815 243.017 133.598 242.364 133.34C241.849 133.118 241.396 132.775 241.044 132.34C240.651 131.863 240.451 131.257 240.484 130.64C240.481 130.072 240.66 129.519 240.994 129.06C241.366 128.555 241.872 128.164 242.454 127.93C243.145 127.647 243.887 127.507 244.634 127.52C245.713 127.461 246.778 127.791 247.634 128.45C248.006 128.762 248.307 129.15 248.516 129.588C248.725 130.026 248.836 130.505 248.844 130.99H246.604C246.593 130.766 246.535 130.547 246.433 130.347C246.331 130.147 246.189 129.971 246.014 129.83C245.6 129.527 245.096 129.376 244.584 129.4C244.109 129.37 243.637 129.489 243.234 129.74C243.085 129.833 242.964 129.963 242.881 130.117C242.799 130.272 242.758 130.445 242.764 130.62C242.761 130.756 242.789 130.891 242.844 131.016C242.899 131.14 242.981 131.251 243.084 131.34C243.301 131.547 243.56 131.704 243.844 131.8C244.144 131.91 244.584 132.05 245.174 132.22C245.831 132.389 246.476 132.603 247.104 132.86C247.605 133.076 248.052 133.401 248.414 133.81C248.793 134.282 248.992 134.875 248.974 135.48C248.982 136.067 248.803 136.641 248.464 137.12C248.101 137.628 247.602 138.023 247.024 138.26C246.333 138.545 245.591 138.685 244.844 138.67C244.066 138.682 243.295 138.525 242.584 138.21Z" fill="#121212"/>
<path d="M253.044 138.21C252.414 137.934 251.864 137.504 251.444 136.96C251.057 136.446 250.84 135.823 250.824 135.18H253.134C253.155 135.407 253.223 135.626 253.336 135.825C253.448 136.023 253.6 136.195 253.784 136.33C254.217 136.649 254.746 136.811 255.284 136.79C255.796 136.821 256.305 136.696 256.744 136.43C256.904 136.333 257.035 136.197 257.127 136.034C257.218 135.871 257.265 135.687 257.264 135.5C257.271 135.31 257.22 135.122 257.119 134.961C257.017 134.801 256.869 134.675 256.694 134.6C256.103 134.325 255.487 134.107 254.854 133.95C254.175 133.775 253.507 133.558 252.854 133.3C252.339 133.078 251.886 132.735 251.534 132.3C251.146 131.821 250.946 131.216 250.974 130.6C250.971 130.032 251.15 129.479 251.484 129.02C251.859 128.517 252.363 128.127 252.944 127.89C253.639 127.607 254.384 127.467 255.134 127.48C256.213 127.424 257.276 127.754 258.134 128.41C258.506 128.721 258.807 129.109 259.014 129.548C259.221 129.986 259.33 130.465 259.334 130.95H257.104C257.091 130.726 257.031 130.508 256.93 130.309C256.828 130.109 256.687 129.932 256.514 129.79C256.102 129.525 255.626 129.377 255.136 129.361C254.647 129.345 254.162 129.462 253.734 129.7C253.585 129.793 253.464 129.923 253.381 130.077C253.299 130.232 253.258 130.405 253.264 130.58C253.259 130.715 253.285 130.85 253.338 130.975C253.392 131.099 253.472 131.21 253.574 131.3C253.792 131.505 254.051 131.661 254.334 131.76C254.634 131.87 255.084 132.01 255.674 132.18C256.33 132.352 256.975 132.566 257.604 132.82C258.102 133.037 258.546 133.361 258.904 133.77C259.291 134.239 259.493 134.833 259.474 135.44C259.482 136.027 259.303 136.601 258.964 137.08C258.601 137.588 258.102 137.983 257.524 138.22C256.83 138.506 256.084 138.646 255.334 138.63C254.549 138.659 253.767 138.516 253.044 138.21Z" fill="#121212"/>
<path d="M267.084 125.86C266.821 125.594 266.673 125.234 266.674 124.86C266.67 124.671 266.704 124.483 266.774 124.308C266.845 124.133 266.95 123.973 267.084 123.84C267.217 123.706 267.376 123.601 267.552 123.53C267.727 123.46 267.915 123.426 268.104 123.43C268.29 123.425 268.475 123.459 268.647 123.53C268.819 123.6 268.975 123.706 269.104 123.84C269.236 123.971 269.34 124.127 269.41 124.298C269.48 124.47 269.516 124.654 269.514 124.84C269.514 125.214 269.367 125.574 269.104 125.84C268.974 125.972 268.818 126.077 268.646 126.148C268.474 126.218 268.29 126.253 268.104 126.25C267.917 126.255 267.73 126.224 267.555 126.157C267.38 126.09 267.22 125.989 267.084 125.86ZM269.204 127.7V138.5H266.954V127.7H269.204Z" fill="#121212"/>
<path d="M279.874 128.05C280.546 128.403 281.096 128.95 281.454 129.62C281.845 130.397 282.038 131.26 282.014 132.13V138.5H279.804V132.5C279.862 131.693 279.599 130.895 279.074 130.28C278.817 130.012 278.505 129.804 278.16 129.669C277.815 129.535 277.444 129.477 277.074 129.5C276.704 129.48 276.335 129.539 275.99 129.674C275.645 129.808 275.333 130.015 275.074 130.28C274.545 130.894 274.279 131.691 274.334 132.5V138.5H272.104V127.7H274.334V128.93C274.717 128.494 275.197 128.151 275.734 127.93C276.306 127.686 276.922 127.56 277.544 127.56C278.349 127.53 279.149 127.698 279.874 128.05Z" fill="#121212"/>
<path d="M290.144 128.07C290.746 127.032 291.616 126.175 292.664 125.59C293.802 124.976 295.08 124.67 296.373 124.701C297.665 124.733 298.927 125.101 300.034 125.77C301.16 126.474 302.024 127.528 302.494 128.77H299.814C299.498 128.097 298.986 127.535 298.344 127.16C297.675 126.798 296.924 126.615 296.164 126.63C295.32 126.614 294.488 126.825 293.754 127.24C293.044 127.645 292.47 128.25 292.104 128.98C291.709 129.806 291.504 130.71 291.504 131.625C291.504 132.54 291.709 133.444 292.104 134.27C292.475 135.002 293.048 135.612 293.754 136.03C294.488 136.445 295.32 136.656 296.164 136.64C296.925 136.66 297.677 136.477 298.344 136.11C298.985 135.739 299.498 135.181 299.814 134.51H302.494C302.029 135.755 301.163 136.81 300.034 137.51C298.872 138.227 297.529 138.595 296.164 138.57C294.936 138.586 293.726 138.279 292.654 137.68C291.609 137.095 290.742 136.238 290.144 135.2C289.534 134.104 289.213 132.87 289.213 131.615C289.213 130.36 289.534 129.126 290.144 128.03V128.07Z" fill="#121212"/>
<path d="M307.024 138C306.203 137.527 305.532 136.834 305.084 136C304.599 135.101 304.355 134.091 304.374 133.07C304.353 132.049 304.605 131.041 305.104 130.15C305.56 129.302 306.255 128.606 307.104 128.15C307.967 127.695 308.928 127.457 309.904 127.457C310.88 127.457 311.841 127.695 312.704 128.15C313.552 128.606 314.248 129.302 314.704 130.15C315.199 131.043 315.45 132.049 315.434 133.07C315.452 134.093 315.193 135.102 314.684 135.99C314.218 136.831 313.525 137.524 312.684 137.99C311.814 138.454 310.84 138.691 309.854 138.68C308.867 138.71 307.89 138.475 307.024 138ZM311.404 136.34C311.918 136.052 312.341 135.626 312.624 135.11C312.956 134.497 313.118 133.807 313.094 133.11C313.12 132.416 312.965 131.726 312.644 131.11C312.369 130.597 311.957 130.171 311.454 129.88C310.961 129.609 310.407 129.468 309.844 129.47C309.284 129.468 308.734 129.609 308.244 129.88C307.745 130.168 307.342 130.595 307.084 131.11C306.776 131.73 306.628 132.418 306.654 133.11C306.587 134.088 306.907 135.054 307.544 135.8C307.827 136.111 308.173 136.356 308.56 136.52C308.947 136.684 309.364 136.763 309.784 136.75C310.352 136.746 310.909 136.598 311.404 136.32V136.34Z" fill="#121212"/>
<path d="M325.334 128.05C326.006 128.403 326.556 128.95 326.914 129.62C327.314 130.395 327.51 131.258 327.484 132.13V138.5H325.264V132.5C325.32 131.695 325.062 130.899 324.544 130.28C324.002 129.771 323.287 129.487 322.544 129.487C321.801 129.487 321.085 129.771 320.544 130.28C320.018 130.895 319.756 131.693 319.814 132.5V138.5H317.574V127.7H319.814V128.93C320.195 128.491 320.675 128.149 321.214 127.93C321.786 127.685 322.402 127.559 323.024 127.56C323.822 127.53 324.616 127.699 325.334 128.05Z" fill="#121212"/>
<path d="M332.854 127.7H339.064V138.5H336.834V129.5H332.834V138.5H330.574V129.5H329.304V127.7H330.574V126.93C330.531 126.433 330.598 125.932 330.771 125.463C330.944 124.995 331.218 124.57 331.574 124.22C332.478 123.579 333.579 123.278 334.684 123.37V125.23C334.177 125.18 333.669 125.315 333.254 125.61C333.099 125.79 332.983 126.001 332.912 126.228C332.842 126.455 332.818 126.694 332.844 126.93L332.854 127.7ZM336.944 125.86C336.681 125.594 336.533 125.234 336.534 124.86C336.532 124.674 336.567 124.49 336.638 124.319C336.708 124.147 336.812 123.991 336.944 123.86C337.142 123.66 337.395 123.523 337.671 123.467C337.947 123.411 338.234 123.438 338.494 123.545C338.755 123.652 338.978 123.835 339.134 124.069C339.291 124.303 339.374 124.578 339.374 124.86C339.37 125.14 339.283 125.412 339.126 125.643C338.969 125.874 338.747 126.054 338.488 126.16C338.23 126.267 337.946 126.295 337.671 126.242C337.397 126.188 337.144 126.056 336.944 125.86Z" fill="#121212"/>
<path d="M341.954 130.17C342.376 129.36 343.015 128.684 343.799 128.216C344.583 127.748 345.481 127.507 346.394 127.52C347.115 127.523 347.828 127.679 348.484 127.98C349.118 128.253 349.677 128.675 350.114 129.21V124H352.374V138.5H350.114V136.87C349.72 137.418 349.198 137.861 348.594 138.16C347.907 138.511 347.145 138.686 346.374 138.67C345.465 138.677 344.572 138.431 343.794 137.96C343.01 137.473 342.374 136.781 341.954 135.96C341.493 135.06 341.259 134.061 341.274 133.05C341.257 132.048 341.49 131.058 341.954 130.17ZM349.654 131.17C349.373 130.65 348.959 130.215 348.454 129.91C347.964 129.63 347.409 129.481 346.844 129.48C346.28 129.477 345.725 129.621 345.234 129.9C344.728 130.195 344.312 130.624 344.034 131.14C343.712 131.731 343.554 132.397 343.574 133.07C343.551 133.765 343.709 134.455 344.034 135.07C344.232 135.452 344.505 135.791 344.837 136.064C345.17 136.338 345.554 136.541 345.968 136.662C346.381 136.782 346.814 136.818 347.242 136.766C347.669 136.714 348.081 136.576 348.454 136.36C348.959 136.055 349.373 135.62 349.654 135.1C349.97 134.5 350.128 133.828 350.114 133.15C350.137 132.452 349.971 131.761 349.634 131.15L349.654 131.17Z" fill="#121212"/>
<path d="M365.104 133.93H356.854C356.89 134.715 357.233 135.455 357.809 135.989C358.385 136.524 359.148 136.812 359.934 136.79C360.462 136.825 360.988 136.7 361.443 136.43C361.898 136.161 362.261 135.76 362.484 135.28H364.894C364.574 136.261 363.951 137.116 363.114 137.72C362.188 138.38 361.07 138.714 359.934 138.67C358.966 138.686 358.011 138.448 357.164 137.98C356.348 137.508 355.683 136.814 355.244 135.98C354.762 135.08 354.521 134.071 354.544 133.05C354.523 132.032 354.757 131.025 355.224 130.12C355.648 129.295 356.31 128.615 357.124 128.17C357.984 127.698 358.953 127.46 359.934 127.48C360.884 127.46 361.822 127.691 362.654 128.15C363.442 128.583 364.091 129.232 364.524 130.02C364.976 130.872 365.203 131.825 365.184 132.79C365.193 133.172 365.166 133.553 365.104 133.93ZM362.854 132.13C362.866 131.752 362.793 131.376 362.641 131.03C362.489 130.684 362.261 130.376 361.974 130.13C361.378 129.624 360.615 129.357 359.834 129.38C359.097 129.362 358.381 129.626 357.834 130.12C357.262 130.638 356.905 131.352 356.834 132.12L362.854 132.13Z" fill="#121212"/>
<path d="M375.114 128.05C375.785 128.401 376.333 128.949 376.684 129.62C377.084 130.395 377.28 131.259 377.254 132.13V138.5H375.044V132.5C375.102 131.693 374.839 130.895 374.314 130.28C373.775 129.766 373.058 129.48 372.314 129.48C371.569 129.48 370.853 129.766 370.314 130.28C370.048 130.582 369.846 130.934 369.718 131.315C369.591 131.696 369.542 132.099 369.574 132.5V138.5H367.344V127.7H369.574V128.93C369.957 128.494 370.437 128.151 370.974 127.93C371.546 127.686 372.162 127.56 372.784 127.56C373.589 127.53 374.389 127.698 375.114 128.05Z" fill="#121212"/>
<path d="M380.034 130.16C380.452 129.341 381.103 128.662 381.904 128.21C382.837 127.719 383.883 127.483 384.936 127.525C385.989 127.567 387.013 127.886 387.904 128.45C388.783 129.1 389.4 130.044 389.644 131.11H387.234C387.06 130.602 386.731 130.161 386.294 129.85C385.81 129.536 385.241 129.378 384.664 129.4C384.248 129.389 383.836 129.473 383.458 129.647C383.08 129.82 382.747 130.078 382.484 130.4C381.949 131.206 381.664 132.152 381.664 133.12C381.664 134.087 381.949 135.034 382.484 135.84C382.746 136.163 383.079 136.422 383.457 136.595C383.835 136.769 384.248 136.852 384.664 136.84C385.221 136.886 385.777 136.744 386.243 136.435C386.71 136.127 387.058 135.671 387.234 135.14H389.644C389.363 136.184 388.74 137.103 387.874 137.75C386.945 138.432 385.815 138.784 384.664 138.75C383.71 138.746 382.774 138.487 381.954 138C381.153 137.524 380.505 136.831 380.084 136C379.636 135.088 379.404 134.086 379.404 133.07C379.404 132.054 379.636 131.052 380.084 130.14L380.034 130.16Z" fill="#121212"/>
<path d="M401.674 133.93H393.424C393.46 134.715 393.803 135.455 394.379 135.99C394.955 136.524 395.718 136.812 396.504 136.79C397.031 136.827 397.556 136.703 398.01 136.433C398.464 136.163 398.825 135.761 399.044 135.28H401.454C401.142 136.263 400.521 137.118 399.684 137.72C398.758 138.379 397.64 138.713 396.504 138.67C395.533 138.686 394.575 138.448 393.724 137.98C392.911 137.504 392.247 136.812 391.804 135.98C391.329 135.078 391.091 134.07 391.114 133.05C391.09 132.033 391.32 131.026 391.784 130.12C392.211 129.297 392.872 128.618 393.684 128.17C394.548 127.699 395.52 127.461 396.504 127.48C397.454 127.462 398.391 127.693 399.224 128.15C400.011 128.581 400.657 129.23 401.084 130.02C401.544 130.87 401.775 131.824 401.754 132.79C401.757 133.172 401.73 133.553 401.674 133.93ZM399.424 132.13C399.434 131.751 399.359 131.375 399.205 131.029C399.051 130.683 398.822 130.376 398.534 130.13C397.943 129.622 397.183 129.354 396.404 129.38C395.667 129.362 394.951 129.627 394.404 130.12C393.825 130.633 393.467 131.349 393.404 132.12L399.424 132.13Z" fill="#121212"/>
<path d="M406.394 135.81L404.024 141.22H402.574L403.964 135.81H406.394Z" fill="#121212"/>
<path d="M431.184 124.88L427.184 138.5H424.654L421.794 128.19L418.794 138.5H416.284L412.424 124.86H414.794L417.544 136L420.604 124.91H423.114L425.954 135.91L428.794 124.91L431.184 124.88Z" fill="#121212"/>
<path d="M442.844 133.93H434.594C434.63 134.715 434.973 135.455 435.549 135.989C436.125 136.524 436.888 136.812 437.674 136.79C438.202 136.825 438.728 136.7 439.183 136.43C439.638 136.161 440.001 135.76 440.224 135.28H442.634C442.314 136.261 441.691 137.116 440.854 137.72C439.928 138.38 438.81 138.714 437.674 138.67C436.725 138.684 435.788 138.453 434.954 138C434.138 137.528 433.473 136.834 433.034 136C432.552 135.1 432.311 134.091 432.334 133.07C432.313 132.052 432.547 131.045 433.014 130.14C433.438 129.315 434.1 128.635 434.914 128.19C435.774 127.718 436.743 127.48 437.724 127.5C438.674 127.48 439.612 127.711 440.444 128.17C441.231 128.601 441.877 129.25 442.304 130.04C442.764 130.89 442.995 131.844 442.974 132.81C442.96 133.186 442.916 133.561 442.844 133.93ZM440.594 132.13C440.606 131.752 440.533 131.376 440.381 131.03C440.229 130.684 440.001 130.376 439.714 130.13C439.118 129.624 438.355 129.357 437.574 129.38C436.837 129.362 436.121 129.626 435.574 130.12C435.002 130.638 434.645 131.352 434.574 132.12L440.594 132.13Z" fill="#121212"/>
<path d="M445.054 130.17C445.475 129.363 446.11 128.689 446.89 128.221C447.67 127.754 448.564 127.511 449.474 127.52C450.244 127.503 451.006 127.675 451.694 128.02C452.287 128.319 452.806 128.746 453.214 129.27V127.7H455.464V138.5H453.214V136.89C452.8 137.425 452.27 137.859 451.664 138.16C450.914 138.529 450.083 138.704 449.248 138.669C448.413 138.634 447.6 138.39 446.884 137.96C446.106 137.469 445.474 136.779 445.054 135.96C444.593 135.06 444.359 134.061 444.374 133.05C444.357 132.048 444.59 131.058 445.054 130.17ZM452.754 131.17C452.472 130.648 452.054 130.212 451.544 129.91C451.174 129.694 450.765 129.555 450.341 129.501C449.917 129.446 449.486 129.477 449.074 129.591C448.662 129.706 448.277 129.902 447.942 130.168C447.607 130.434 447.329 130.765 447.124 131.14C446.807 131.733 446.649 132.398 446.664 133.07C446.646 133.765 446.804 134.453 447.124 135.07C447.406 135.6 447.828 136.043 448.344 136.35C448.828 136.638 449.381 136.79 449.944 136.79C450.506 136.794 451.059 136.646 451.544 136.36C452.068 136.03 452.487 135.559 452.754 135C453.07 134.399 453.229 133.728 453.214 133.05C453.226 132.388 453.067 131.733 452.754 131.15V131.17Z" fill="#121212"/>
<path d="M461.954 128C462.545 127.679 463.211 127.52 463.884 127.54V129.85H463.314C462.953 129.825 462.59 129.871 462.247 129.986C461.904 130.101 461.587 130.282 461.314 130.52C460.798 131.173 460.557 132.002 460.644 132.83V138.52H458.404V127.7H460.644V129.27C460.961 128.738 461.413 128.3 461.954 128Z" fill="#121212"/>
<path d="M480.174 132.66C480.676 133.271 480.948 134.039 480.944 134.83C480.953 135.493 480.765 136.144 480.404 136.7C480.021 137.28 479.479 137.738 478.844 138.02C478.099 138.353 477.29 138.517 476.474 138.5H471.024V124.88H476.224C477.046 124.856 477.862 125.017 478.614 125.35C479.227 125.617 479.751 126.055 480.124 126.61C480.455 127.14 480.629 127.754 480.624 128.38C480.664 129.099 480.444 129.809 480.004 130.38C479.564 130.921 478.977 131.324 478.314 131.54C479.052 131.668 479.715 132.067 480.174 132.66ZM473.264 130.6H476.024C476.634 130.635 477.238 130.458 477.734 130.1C477.927 129.913 478.081 129.69 478.187 129.442C478.292 129.195 478.346 128.929 478.346 128.66C478.346 128.391 478.292 128.125 478.187 127.878C478.081 127.63 477.927 127.407 477.734 127.22C477.245 126.846 476.638 126.661 476.024 126.7H473.264V130.6ZM478.064 136.12C478.28 135.932 478.45 135.698 478.561 135.434C478.671 135.171 478.721 134.885 478.704 134.6C478.717 134.301 478.662 134.003 478.545 133.728C478.427 133.452 478.249 133.207 478.024 133.01C477.508 132.6 476.862 132.391 476.204 132.42H473.264V136.67H476.264C476.911 136.712 477.551 136.517 478.064 136.12Z" fill="#121212"/>
<path d="M485.604 124V138.5H483.374V124H485.604Z" fill="#121212"/>
<path d="M488.474 130.17C488.894 129.364 489.53 128.689 490.31 128.222C491.09 127.754 491.984 127.511 492.894 127.52C493.667 127.504 494.432 127.676 495.124 128.02C495.715 128.317 496.232 128.744 496.634 129.27V127.7H498.894V138.5H496.634V136.89C496.226 137.427 495.699 137.862 495.094 138.16C494.343 138.531 493.51 138.707 492.673 138.672C491.836 138.637 491.022 138.392 490.304 137.96C489.526 137.47 488.893 136.779 488.474 135.96C488.016 135.059 487.786 134.06 487.804 133.05C487.783 132.049 488.014 131.059 488.474 130.17ZM496.174 131.17C495.899 130.646 495.484 130.21 494.974 129.91C494.484 129.628 493.929 129.48 493.364 129.48C492.789 129.476 492.224 129.628 491.729 129.921C491.234 130.213 490.828 130.635 490.554 131.14C490.232 131.731 490.074 132.397 490.094 133.07C490.071 133.765 490.229 134.455 490.554 135.07C490.833 135.603 491.255 136.046 491.774 136.35C492.259 136.635 492.811 136.785 493.374 136.785C493.936 136.785 494.489 136.635 494.974 136.35C495.484 136.05 495.899 135.614 496.174 135.09C496.49 134.49 496.648 133.819 496.634 133.14C496.661 132.447 496.503 131.76 496.174 131.15V131.17Z" fill="#121212"/>
<path d="M501.764 130.16C502.182 129.341 502.833 128.662 503.634 128.21C504.567 127.719 505.613 127.483 506.666 127.525C507.719 127.567 508.743 127.886 509.634 128.45C510.507 129.104 511.12 130.046 511.364 131.11H508.954C508.784 130.6 508.454 130.158 508.014 129.85C507.53 129.534 506.961 129.377 506.384 129.4C505.968 129.389 505.556 129.473 505.178 129.647C504.8 129.82 504.467 130.078 504.204 130.4C503.679 131.21 503.399 132.155 503.399 133.12C503.399 134.085 503.679 135.03 504.204 135.84C504.466 136.163 504.799 136.422 505.177 136.595C505.555 136.769 505.968 136.852 506.384 136.84C506.941 136.888 507.498 136.746 507.965 136.437C508.432 136.129 508.78 135.672 508.954 135.14H511.364C511.087 136.183 510.467 137.102 509.604 137.75C508.671 138.432 507.539 138.783 506.384 138.75C505.425 138.768 504.48 138.529 503.644 138.06C502.843 137.584 502.195 136.891 501.774 136.06C501.326 135.148 501.094 134.146 501.094 133.13C501.094 132.114 501.326 131.112 501.774 130.2L501.764 130.16Z" fill="#121212"/>
<path d="M517.864 133.11L522.864 138.5H519.864L515.864 133.85V138.5H513.634V124H515.864V132.43L519.784 127.71H522.884L517.864 133.11Z" fill="#121212"/>
<path d="M537.804 125.71C538.865 126.239 539.745 127.071 540.334 128.1C540.944 129.211 541.251 130.463 541.224 131.73C541.254 132.991 540.947 134.237 540.334 135.34C539.742 136.354 538.861 137.169 537.804 137.68C536.615 138.245 535.31 138.526 533.994 138.5H529.544V124.88H533.954C535.286 124.841 536.607 125.126 537.804 125.71ZM537.654 135.38C538.097 134.886 538.438 134.309 538.656 133.683C538.874 133.056 538.965 132.392 538.924 131.73C539.006 130.377 538.549 129.047 537.654 128.03C537.165 127.561 536.583 127.2 535.946 126.971C535.308 126.741 534.629 126.649 533.954 126.7H531.734V136.7H533.954C534.628 136.746 535.305 136.652 535.941 136.425C536.578 136.198 537.161 135.842 537.654 135.38Z" fill="#121212"/>
<path d="M543.364 130.17C543.785 129.364 544.42 128.689 545.2 128.222C545.98 127.754 546.874 127.511 547.784 127.52C548.557 127.504 549.322 127.676 550.014 128.02C550.605 128.317 551.122 128.744 551.524 129.27V127.7H553.784V138.5H551.524V136.89C551.116 137.427 550.589 137.862 549.984 138.16C549.233 138.531 548.4 138.707 547.563 138.672C546.726 138.637 545.912 138.392 545.194 137.96C544.416 137.47 543.784 136.779 543.364 135.96C542.906 135.059 542.676 134.06 542.694 133.05C542.674 132.049 542.904 131.059 543.364 130.17ZM551.064 131.17C550.789 130.646 550.374 130.21 549.864 129.91C549.374 129.628 548.819 129.48 548.254 129.48C547.679 129.476 547.114 129.628 546.619 129.921C546.124 130.213 545.718 130.635 545.444 131.14C545.122 131.731 544.964 132.397 544.984 133.07C544.961 133.765 545.119 134.455 545.444 135.07C545.723 135.603 546.145 136.046 546.664 136.35C547.149 136.635 547.701 136.785 548.264 136.785C548.826 136.785 549.379 136.635 549.864 136.35C550.374 136.05 550.789 135.614 551.064 135.09C551.38 134.49 551.539 133.819 551.524 133.14C551.552 132.447 551.393 131.76 551.064 131.15V131.17Z" fill="#121212"/>
<path d="M564.454 128.05C565.126 128.403 565.676 128.95 566.034 129.62C566.43 130.396 566.623 131.259 566.594 132.13V138.5H564.384V132.5C564.442 131.693 564.179 130.895 563.654 130.28C563.397 130.012 563.085 129.804 562.74 129.669C562.395 129.535 562.024 129.477 561.654 129.5C561.284 129.48 560.915 129.539 560.57 129.674C560.225 129.808 559.913 130.015 559.654 130.28C559.125 130.894 558.859 131.691 558.914 132.5V138.5H556.684V127.7H558.954V128.93C559.338 128.493 559.817 128.151 560.354 127.93C560.93 127.686 561.549 127.56 562.174 127.56C562.962 127.537 563.745 127.705 564.454 128.05Z" fill="#121212"/>
<path d="M572.044 129.52V135.52C572.03 135.677 572.049 135.835 572.098 135.985C572.148 136.135 572.228 136.273 572.334 136.39C572.621 136.602 572.98 136.695 573.334 136.65H574.704V138.52H572.954C572.123 138.573 571.301 138.321 570.644 137.81C570.354 137.508 570.133 137.147 569.995 136.752C569.857 136.357 569.805 135.937 569.844 135.52V129.52H568.564V127.7H569.844V125H572.094V127.69H574.724V129.51L572.044 129.52Z" fill="#121212"/>
<path d="M586.544 133.93H578.294C578.33 134.715 578.673 135.455 579.249 135.989C579.825 136.524 580.588 136.812 581.374 136.79C581.902 136.825 582.428 136.7 582.883 136.43C583.338 136.161 583.701 135.76 583.924 135.28H586.334C586.014 136.261 585.391 137.116 584.554 137.72C583.628 138.38 582.51 138.714 581.374 138.67C580.406 138.686 579.451 138.448 578.604 137.98C577.788 137.508 577.123 136.814 576.684 135.98C576.202 135.08 575.961 134.071 575.984 133.05C575.963 132.032 576.197 131.025 576.664 130.12C577.088 129.295 577.75 128.615 578.564 128.17C579.424 127.698 580.393 127.46 581.374 127.48C582.324 127.46 583.262 127.691 584.094 128.15C584.882 128.583 585.531 129.232 585.964 130.02C586.416 130.872 586.643 131.825 586.624 132.79C586.633 133.172 586.606 133.553 586.544 133.93ZM584.294 132.13C584.306 131.752 584.233 131.376 584.081 131.03C583.929 130.684 583.701 130.376 583.414 130.13C582.818 129.624 582.055 129.357 581.274 129.38C580.537 129.362 579.821 129.626 579.274 130.12C578.702 130.638 578.345 131.352 578.274 132.12L584.294 132.13Z" fill="#121212"/>
<path d="M591.054 124V138.5H588.824V124H591.054Z" fill="#121212"/>
<path d="M596.224 124V138.5H593.954V124H596.224Z" fill="#121212"/>
<path d="M599.104 130.17C599.524 129.365 600.158 128.692 600.936 128.224C601.714 127.757 602.606 127.513 603.514 127.52C604.287 127.504 605.052 127.676 605.744 128.02C606.337 128.319 606.856 128.746 607.264 129.27V127.7H609.514V138.5H607.264V136.89C606.85 137.425 606.32 137.859 605.714 138.16C604.97 138.531 604.145 138.711 603.314 138.683C602.483 138.655 601.671 138.42 600.954 138C600.176 137.51 599.544 136.819 599.124 136C598.658 135.102 598.425 134.102 598.444 133.09C598.406 132.076 598.634 131.069 599.104 130.17ZM606.804 131.17C606.533 130.657 606.127 130.229 605.63 129.931C605.133 129.633 604.564 129.477 603.984 129.48C603.409 129.476 602.844 129.628 602.349 129.921C601.854 130.213 601.448 130.635 601.174 131.14C600.857 131.733 600.699 132.398 600.714 133.07C600.696 133.765 600.854 134.453 601.174 135.07C601.453 135.603 601.875 136.046 602.394 136.35C602.879 136.635 603.431 136.785 603.994 136.785C604.556 136.785 605.109 136.635 605.594 136.35C606.104 136.048 606.522 135.612 606.804 135.09C607.117 134.489 607.275 133.818 607.264 133.14C607.285 132.448 607.127 131.762 606.804 131.15V131.17Z" fill="#121212"/>
<path d="M71.7094 66.0607V55.4853C70.5669 55.5554 69.4958 55.6638 68.4902 55.8104C67.6154 55.9315 66.8002 56.0845 66.0267 56.263L65.8005 56.314C65.4554 56.3947 65.1222 56.484 64.8008 56.5817L64.2772 56.7474C61.3149 57.7094 58.549 59.2622 56.125 61.3244C55.163 62.1429 54.2544 63.0311 53.4057 63.9826C52.882 64.5563 52.3762 65.1555 51.8823 65.793C49.2229 69.2563 47.1907 73.2213 45.8902 77.4839C44.4824 82.029 43.7749 86.7894 43.7956 91.5781C43.7746 95.836 44.3585 100.073 45.5272 104.142C46.61 107.942 48.3168 111.503 50.5673 114.66C54.9052 120.665 61.9089 123.081 68.7996 123.075C69.7675 123.075 70.7375 123.03 71.7094 122.941V121.991C72.7654 122.575 73.8615 123.071 74.9881 123.476V125H66.0147C61.8794 125.004 57.7524 124.603 53.6853 123.802C48.5553 122.877 43.8307 120.234 40.1896 116.254C37.4981 113.216 35.4466 109.594 34.1736 105.634C32.7105 101.271 31.9753 96.6665 32.0017 92.0307C31.9461 85.7174 33.2471 79.475 35.8041 73.7867C38.208 68.3691 41.8692 63.7029 46.4376 60.2343C47.5758 59.3709 48.7688 58.5934 50.0079 57.9076C50.6863 57.5379 51.3825 57.1937 52.0965 56.8749L52.4655 56.7092L53.0605 56.4542L53.6556 56.2056L54.2506 55.9825L54.7326 55.8104L54.9528 55.7339L55.3217 55.6191L55.5895 55.5299L56.0536 55.3897L56.2143 55.3387L56.7439 55.192H56.8629L57.4579 55.0327L58.1303 54.8669L58.7254 54.7331H58.8861C59.0765 54.6885 59.2669 54.6566 59.4811 54.6183H59.5347L60.1952 54.4972L60.8616 54.3888L61.5162 54.2932L62.0339 54.2295H62.2719L63.0038 54.153H63.0573L63.7833 54.0892H63.9499H64.0927H64.2534H64.307H64.4795H64.7711H64.9556H65.3483H65.7172H65.9374C66.6396 54.0892 67.4607 54.051 68.4009 54.0383C69.3411 54.0255 70.4241 54.0382 71.6201 54H75V65.9778C74.4407 66.0479 73.8753 66.1053 73.322 66.1627L72.5841 66.2264H72.5186H72.4175L71.8938 66.271L71.7094 66.0607Z" fill="#121212"/>
<path d="M108.484 113.785C103.814 118.052 97.9169 120.486 91.8449 121.465C87.3255 122.192 82.4209 122.281 77.9135 121.08C74.9988 120.353 72.2696 118.968 69.9158 117.021C69.645 116.794 69.3862 116.56 69.1334 116.313C63.1637 110.624 61.9481 100.952 65.3602 93.3341C68.5618 86.1717 77.3418 79.9955 84.9003 83.5356C85.9655 83.9932 86.868 84.7888 87.4819 85.8114C87.8048 86.3049 87.9947 86.8808 88.0318 87.4783C88.0689 88.0758 87.9517 88.6728 87.6926 89.2061C86.844 90.7676 85.147 91.1848 83.5402 91.0647C80.6216 90.8371 78.1241 89.5475 75.1634 90.4325C72.8146 91.1962 70.8185 92.8471 69.5607 95.0663C68.9894 96.0636 68.5977 97.1629 68.4053 98.3093C66.3472 109.865 77.6848 116.282 87.181 114.461C94.902 112.982 100.047 107.242 102.117 99.4092C104.44 90.6095 102.358 79.3949 94.1196 74.4198C89.6604 71.7268 84.3466 71.2211 78.5514 71.1199C77.9135 71.1199 72.1424 71.1199 70.4153 71.1199V69.2234C71.017 69.2234 71.6188 69.1602 72.2206 69.1159L72.8224 69.0717H72.9728L73.7672 69.0022C74.4773 68.9389 75.1874 68.8568 75.8975 68.7683C76.2827 68.7177 76.6678 68.6671 77.053 68.6039L77.9617 68.4585C79.5876 68.1886 81.1956 67.8107 82.776 67.3269C86.9463 66.0183 90.5992 63.2495 92.5369 59.0645C93.7628 56.3747 94.3807 53.4238 94.3423 50.4418C94.3488 47.1964 93.7349 43.9826 92.5369 40.991C91.3334 38.0957 90.0877 35.8452 87.7227 33.8981C85.9615 32.3214 83.8361 31.2596 81.5603 30.8195C78.7079 30.1051 74.9949 30.0672 71.5105 30.0292C70.3731 30.0292 67.3702 30.0292 65.95 30.0292C65.8537 35.3584 65.8958 44.3035 65.9019 51.3079H65.8116C64.8848 51.3395 64.2229 51.3774 63.7354 51.4154C59.7376 51.711 55.8014 52.6116 52.0487 54.0894C52.0487 51.7567 52.0487 49.4936 52.0487 49.0763C52.0487 45.7322 51.9284 41.8444 51.3687 39.0945C50.809 36.3446 50.0508 35.3015 48.6306 33.4872C47.3849 31.9131 46.2956 31.4074 44.5685 30.6172C42.8414 29.827 40.8434 29.789 39.026 29.5488C39.0983 29.0431 38.8515 28.5121 39.1584 28C51.9163 28 67.2077 28 79.2736 28C84.1841 28 85.8932 28 87.4879 28.1138C93.3072 28.5816 96.3162 29.4097 100.324 31.7551C106.264 35.2256 108.948 41.6863 109.032 48.3999C109.128 55.5497 105.156 61.9915 99.4033 65.6074C97.245 66.8533 94.9927 67.9105 92.6693 68.7683C96.6411 69.7418 100.763 70.551 104.416 72.5612C107.368 74.154 109.965 76.3861 112.035 79.1105C114.679 82.6172 116.345 86.8252 116.849 91.267C117.29 95.451 116.76 99.685 115.303 103.607C113.846 107.528 111.507 111.021 108.484 113.785Z" fill="#121212"/>
<path d="M147.17 95.7251C146.254 100.425 144.924 105.024 143.197 109.464L143.51 109.597C146.978 100.653 148.835 91.1076 148.985 81.4486C149.021 80.2467 148.985 79.0386 148.949 77.8368C148.949 77.2042 148.949 76.6349 148.901 76.034L148.775 74.2313L148.642 72.4285C148.594 71.796 148.51 71.233 148.444 70.6321C148.3 69.4429 148.18 68.2411 147.957 67.0582C145.688 52.6918 139.609 39.2923 130.419 28.4035C118.116 13.7458 101.039 4.47426 82.5589 2.41868C73.3711 1.42184 64.0875 2.2087 55.1698 4.74011C41.6828 8.61031 29.497 16.3826 19.996 27.1745C10.4949 37.9664 4.05912 51.3456 1.41936 65.7931C0.543677 70.6045 0.0710544 75.4875 0.00693593 80.3859C-0.0550834 85.3009 0.298922 90.212 1.06476 95.0609C2.60966 104.849 5.79019 114.272 10.4589 122.893C15.2129 131.664 21.3932 139.49 28.7183 146.012C36.2324 152.706 44.8189 157.939 54.0759 161.465L54.9534 161.813C55.2479 161.933 55.5544 162.022 55.8429 162.123L57.646 162.756L58.5356 163.059L58.9863 163.211L59.4371 163.344L61.2402 163.863C61.8412 164.033 62.4423 164.223 63.0433 164.375L64.8885 164.811L66.7397 165.242C67.3407 165.362 67.9838 165.463 68.6089 165.577L70.4841 165.918L70.9529 166.007L71.4277 166.07L72.3714 166.19L74.2706 166.437C74.5832 166.475 74.9017 166.526 75.2202 166.557L76.1699 166.627C77.4441 166.722 78.7243 166.848 80.0105 166.918L83.8751 167C86.4536 167 89.062 166.905 91.6886 166.633C92.3377 166.576 92.9928 166.538 93.6479 166.462L95.6013 166.19L97.5607 165.912C97.8852 165.874 98.2098 165.811 98.5343 165.748L99.514 165.564C104.796 164.602 109.986 163.144 115.021 161.206C120.187 159.223 125.187 156.79 129.968 153.932C134.889 150.968 139.59 147.619 144.033 143.912C144.033 143.912 141.124 133.836 134.873 135.423L134.512 135.499C133.076 137.049 131.537 138.485 129.968 139.889C129.067 140.68 128.165 141.458 127.216 142.211L126.518 142.78L125.809 143.33C125.334 143.697 124.86 144.064 124.373 144.412C122.455 145.848 120.472 147.195 118.441 148.454C116.409 149.713 114.317 150.864 112.184 151.933C107.906 154.076 103.412 155.701 98.7868 156.778C96.4758 157.306 94.1317 157.659 91.7727 157.834L90.0057 157.917C89.7172 157.917 89.4046 157.917 89.1221 157.917H88.2446C87.0426 157.917 85.8946 157.784 84.7286 157.689L86.4836 157.607C86.7721 157.607 87.0846 157.607 87.3551 157.569L88.2266 157.487L89.0981 157.411C89.3926 157.411 89.6991 157.366 89.9696 157.322L91.7006 157.082C91.9891 157.082 92.3016 156.993 92.5601 156.943L93.4195 156.784L94.279 156.633L95.1325 156.443L96.8274 156.057L98.5163 155.608C102.989 154.329 107.346 152.635 111.535 150.548C113.634 149.502 115.7 148.386 117.731 147.201C119.757 146.006 121.746 144.741 123.742 143.406C124.235 143.084 124.721 142.742 125.208 142.407C125.695 142.071 126.176 141.724 126.657 141.388C127.63 140.705 128.58 139.997 129.53 139.282C131.132 138.08 132.717 136.83 134.284 135.531C128.676 136.233 129.385 124.993 124.799 126.087C124.669 126.12 124.536 126.143 124.403 126.157C124.024 126.637 123.639 127.112 123.243 127.58C122.287 128.712 121.289 129.8 120.268 130.863C118.216 132.988 116.038 134.974 113.746 136.809C111.451 138.661 109.041 140.351 106.534 141.869C104.02 143.389 101.409 144.725 98.7207 145.867C97.3803 146.436 96.01 146.936 94.6336 147.391C93.2573 147.847 91.8568 148.258 90.4264 148.593C89.7232 148.764 89.008 148.903 88.2987 149.048C87.5895 149.194 86.8743 149.308 86.1591 149.409C85.4438 149.51 84.7226 149.599 84.0013 149.687C83.2801 149.776 82.5589 149.82 81.8376 149.845C80.3951 149.928 78.9467 149.934 77.5042 149.883L76.4223 149.826C76.0617 149.826 75.7011 149.776 75.3465 149.744C74.6252 149.694 73.91 149.605 73.1948 149.517C72.4795 149.428 71.7763 149.308 71.0671 149.181C66.5062 149.46 61.9299 149.201 57.4236 148.41C49.0088 146.926 40.9672 143.661 33.785 138.814C26.4128 133.85 20.046 127.401 15.0508 119.838C9.98822 112.154 6.41971 103.493 4.55075 94.3525C3.59495 89.7557 3.06954 85.0715 2.98205 80.3669C2.91041 75.6488 3.26461 70.9342 4.03987 66.2865C6.4057 52.192 12.4918 39.0824 21.6024 28.456C30.7131 17.8297 42.4808 10.1154 55.5604 6.19496C68.7301 2.24585 82.6898 2.27642 95.8437 6.28316C108.998 10.2899 120.815 18.1111 129.944 28.8526C139.149 39.6034 145.261 52.8864 147.567 67.1531C147.795 68.3296 147.915 69.5188 148.065 70.708C148.132 71.3026 148.222 71.8972 148.276 72.4918L148.408 74.2819L148.534 76.0783C148.564 76.6729 148.57 77.2738 148.588 77.8747C148.618 79.0702 148.667 80.272 148.63 81.4676C148.567 86.2576 148.078 91.0309 147.17 95.7251Z" fill="#121212"/>
<path d="M116.904 119C115.35 122.472 113.389 125.725 111.066 128.683C108.681 131.741 105.986 134.517 103.03 136.96L100.749 138.769L98.3533 140.434C98.2515 140.503 98.1557 140.579 98.0539 140.642L97.7365 140.831L97.1377 141.209L95.8443 141.966L95.2096 142.35L94.5569 142.684L93.2455 143.371L92.5868 143.718C92.3653 143.832 92.1497 143.951 91.9222 144.046L90.5629 144.639L89.1976 145.269C88.7365 145.458 88.2695 145.622 87.8084 145.798C85.9461 146.53 84.0299 147.059 82.0838 147.627C79.7505 148.223 77.3848 148.669 75 148.963C77.311 149.049 79.6249 148.984 81.9281 148.768C83.3333 148.629 84.7305 148.438 86.1198 148.194C86.8144 148.081 87.503 147.936 88.1916 147.791C88.8802 147.646 89.5689 147.482 90.2515 147.293C90.9341 147.103 91.6108 146.927 92.2934 146.731C92.9761 146.536 93.6407 146.322 94.3114 146.101C95.6467 145.647 96.976 145.143 98.2755 144.582C99.5749 144.021 100.874 143.447 102.15 142.81C103.425 142.174 104.665 141.48 105.904 140.768C108.38 139.327 110.779 137.744 113.09 136.027C114.251 135.176 115.377 134.275 116.497 133.361C117.617 132.447 118.707 131.469 119.778 130.517C120.85 129.566 121.904 128.538 122.934 127.504C123.293 127.145 123.647 126.779 124 126.414C119.695 126.483 116.904 119 116.904 119Z" fill="#121212"/>
</svg>
