<svg width="566" height="878" viewBox="0 0 566 878" fill="none" xmlns="http://www.w3.org/2000/svg">
<path d="M106.746 573.004C111.781 575.036 119.144 572.541 122 579.664C118.678 585.741 111.929 583.528 106.302 586.083C105.921 589.122 105.942 592.804 104.842 596.144C104.123 598.338 101.774 600.068 100.166 602C98.3893 600.209 95.7659 598.68 95.0466 596.567C93.883 593.186 93.9888 589.423 93.5868 586.043C88.0015 583.407 80.8928 585.64 77 579.402C80.4697 573.245 87.1975 574.613 92.9098 573.285C96.1467 567.993 91.8731 560.105 99.6375 556C108.354 559.059 103.361 567.691 106.725 572.963L106.746 573.004Z" fill="#119E3C"/>
<path d="M106.746 573.004C111.781 575.036 119.144 572.541 122 579.664C118.678 585.741 111.929 583.528 106.302 586.083C105.921 589.122 105.942 592.804 104.842 596.144C104.123 598.338 101.774 600.068 100.166 602C98.3893 600.209 95.7659 598.68 95.0466 596.567C93.883 593.186 93.9888 589.423 93.5868 586.043C88.0015 583.407 80.8928 585.64 77 579.402C80.4697 573.245 87.1975 574.613 92.9098 573.285C96.1467 567.993 91.8731 560.105 99.6375 556C108.354 559.059 103.361 567.691 106.725 572.963L106.746 573.004Z" fill="#119E3C"/>
<path d="M106.746 573.004C111.781 575.036 119.144 572.541 122 579.664C118.678 585.741 111.929 583.528 106.302 586.083C105.921 589.122 105.942 592.804 104.842 596.144C104.123 598.338 101.774 600.068 100.166 602C98.3893 600.209 95.7659 598.68 95.0466 596.567C93.883 593.186 93.9888 589.423 93.5868 586.043C88.0015 583.407 80.8928 585.64 77 579.402C80.4697 573.245 87.1975 574.613 92.9098 573.285C96.1467 567.993 91.8731 560.105 99.6375 556C108.354 559.059 103.361 567.691 106.725 572.963L106.746 573.004Z" fill="#119E3C"/>
<path d="M466.397 100.911C470.642 104.736 478.825 105.184 479.075 112.974C473.593 117.433 467.718 112.786 461.229 113.054C459.754 115.77 458.444 119.244 456.148 121.971C454.644 123.762 451.695 124.499 449.407 125.707C448.297 123.346 446.255 120.91 446.308 118.648C446.379 115.024 447.844 111.522 448.668 108.187C444.098 103.584 436.26 102.987 434.665 95.6361C440.323 91.1577 446.482 95.001 452.611 95.9205C457.726 92.1682 456.351 83.1197 465.514 82.2047C473.029 88.3946 464.97 94.6243 466.391 100.865L466.397 100.911Z" fill="#FF0000"/>
<path d="M197.337 97.8875C195.5 143.5 195.5 781 195.5 781H441.362C576.575 356 197.337 97.8875 197.337 97.8875ZM233 293.5V189.512C266.181 220.63 295.598 255.531 320.65 293.5H233Z" stroke="#119E3C" stroke-width="25" stroke-linecap="round" stroke-linejoin="round"/>
<path d="M195.5 56L196.462 779.562" stroke="#FF0000" stroke-width="25" stroke-linecap="round" stroke-linejoin="round"/>
<path d="M233 81V781" stroke="#119E3C" stroke-width="25" stroke-linecap="round" stroke-linejoin="round"/>
<path d="M233 293.5V781H387.637C444.812 560.3 390.663 399.812 320.65 293.5H233Z" stroke="white" stroke-width="25" stroke-linecap="round" stroke-linejoin="round"/>
<path d="M244.687 331H333L238.962 492.125L395.5 493.5L233 643.5H408L245.5 781" stroke="white" stroke-width="25" stroke-linecap="round" stroke-linejoin="round"/>
<path d="M195.5 293.5H133V331H195.5V293.5Z" stroke="#FF0000" stroke-width="25" stroke-linecap="round" stroke-linejoin="round"/>
<path d="M196.462 779.562H158V331.962" stroke="#FF0000" stroke-width="25" stroke-linecap="round" stroke-linejoin="round"/>
<path d="M83 781H483" stroke="#404040" stroke-width="25" stroke-linecap="round" stroke-linejoin="round"/>
<path d="M94.1235 218.883C95.72 225.037 103.463 229.762 98.4618 237.92C90.0701 239.658 87.425 231.809 80.8651 228.704C77.5862 230.734 73.9584 233.632 69.8655 235.245C67.1803 236.307 63.7859 235.531 60.7229 235.583C61.2215 232.572 60.8552 228.998 62.4302 226.694C64.9411 222.996 68.7396 220.151 71.7961 217.144C70.4028 210.019 63.1004 205.32 66.4831 196.914C75.0605 195.247 78.5266 202.416 83.9327 206.558C91.4873 205.356 96.2295 195.315 105.853 199.146C109.071 209.44 96.9542 211.661 94.1482 218.832L94.1235 218.883Z" fill="white"/>
<path d="M534.048 687.503C535.481 691.767 540.782 695.469 538.095 700.653C532.801 701.277 530.58 695.798 526.148 693.269C524.168 694.425 522.02 696.145 519.488 696.966C517.827 697.508 515.588 696.76 513.618 696.594C513.741 694.592 513.27 692.152 514.134 690.699C515.509 688.365 517.77 686.692 519.543 684.861C518.176 679.954 513.161 676.299 514.789 670.841C520.208 670.278 522.913 675.351 526.669 678.504C531.46 678.189 533.856 671.715 540.311 674.937C543.062 682.105 535.398 682.809 534.06 687.471L534.048 687.503Z" fill="white"/>
</svg>
