<svg width="467" height="634" viewBox="0 0 467 634" fill="none" xmlns="http://www.w3.org/2000/svg">
<path d="M426.822 529.258C427.912 532.448 429.012 535.638 430.242 539.247C429.252 539.008 428.723 539.038 428.423 538.788C413.013 526.018 395.483 516.807 377.363 508.648C357.623 499.758 337.622 491.408 318.012 482.238C297.392 472.598 277.962 460.908 262.033 444.318C255.003 436.998 248.552 429.108 241.992 421.338C225.402 401.658 204.092 393.308 178.662 394.648C166.312 395.298 154.103 396.958 142.213 400.328C136.382 401.978 130.823 404.587 124.843 406.878C127.733 399.888 131.953 394.108 137.843 389.528C143.753 384.938 150.762 383.078 159.042 381.758C156.452 379.888 154.662 380.368 152.982 380.518C140.562 381.628 131.053 387.908 123.593 397.518C115.093 408.458 110.523 421.028 108.933 434.718C107.033 451.148 106.513 467.648 107.713 484.118C109.823 513.018 112.363 541.898 114.683 570.778C116.033 587.548 117.992 604.288 116.952 621.158C116.782 623.958 116.223 626.778 115.473 629.488C114.773 632.008 113.212 633.938 109.672 633.997C108.922 631.997 107.982 629.918 107.362 627.738C102.902 612.028 99.8825 596.038 97.4025 579.898C94.3725 560.098 93.1825 540.158 92.7625 520.188C92.5125 508.398 93.3025 496.538 94.2825 484.768C95.2425 473.178 97.0525 461.648 98.4425 450.088C98.6125 448.718 98.4625 447.308 98.4625 445.328C94.8125 450.508 90.3425 478.098 88.1925 507.958C86.6825 528.918 86.5625 549.908 87.6825 570.968C87.1125 568.418 86.4925 565.888 86.0025 563.328C85.4725 560.548 84.8925 557.768 84.6325 554.958C83.4025 542.038 81.9125 529.138 81.1925 516.188C79.7625 490.418 82.0325 464.958 89.5725 440.178C91.6025 433.518 94.5625 427.138 97.0825 420.618C97.4725 419.618 97.8025 418.588 97.6425 417.318C91.3125 424.278 87.2025 432.538 84.0125 441.208C80.8025 449.938 78.2025 458.888 75.2225 468.118C74.8125 467.288 74.3125 466.548 74.0825 465.728C71.7025 457.358 71.2525 448.888 74.3025 440.678C81.4625 421.428 90.1125 402.858 101.982 386.008C109.832 374.867 119.872 366.298 133.102 361.988C133.842 361.748 134.512 361.318 134.982 360.148C133.582 360.388 132.162 360.538 130.792 360.888C118.762 364.008 109.002 370.898 100.832 379.918C86.5025 395.728 75.4925 413.748 67.0625 433.318C65.8825 436.058 65.1225 438.988 63.9125 442.588C63.1825 435.878 63.8325 430.028 65.2425 424.188C69.1325 408.138 77.2825 394.258 87.4625 381.548C110.512 352.778 139.162 331.258 172.882 316.458C175.302 315.398 177.732 314.358 180.822 313.028C173.962 313.038 156.413 319.408 141.343 327.148C128.703 333.648 116.902 341.438 105.982 350.548C95.2125 359.528 85.7625 369.748 76.7325 381.868C86.9425 337.908 96.8825 295.128 106.822 252.358L107.332 252.388C106.942 262.458 106.822 272.548 106.102 282.598C105.382 292.628 104.052 302.608 102.982 312.618L104.042 313.068C104.632 312.098 105.412 311.198 105.792 310.148C108.922 301.668 110.832 292.878 111.482 283.878C112.382 271.428 112.822 258.938 113.672 246.478C115.352 221.678 119.143 197.188 124.933 173.018C126.043 168.378 127.252 163.758 129.102 159.258C129.102 161.998 129.142 164.728 129.102 167.468C128.722 192.118 128.342 216.778 127.942 241.428C127.572 264.008 124.113 286.198 119.503 308.248C118.443 313.298 117.352 318.348 116.332 323.408C115.982 325.138 115.793 326.898 115.533 328.648L116.552 329.058C117.272 328.098 118.272 327.248 118.662 326.178C120.912 319.928 123.422 313.718 125.102 307.308C129.192 291.658 131.523 275.678 133.503 259.638C136.973 231.468 137.202 203.158 137.612 174.838C137.952 151.358 138.643 127.878 142.533 104.628C144.813 90.9576 148.193 77.5975 154.463 64.9275C154.323 66.9075 154.183 68.8975 154.063 70.8775C153.173 84.5975 155.832 97.7775 160.512 110.548C171.632 140.888 189.252 166.858 213.952 187.748C220.012 192.878 227.062 196.838 233.732 201.228C235.172 202.178 236.933 202.628 238.853 202.608C238.373 202.208 237.942 201.718 237.402 201.428C221.432 192.908 209.022 180.498 199.022 165.648C186.812 147.508 175.892 128.638 167.942 108.178C164.162 98.4675 161.782 88.3675 161.862 77.9675C161.992 60.9275 168.062 46.0876 179.933 33.7576C191.202 22.0576 205.102 14.5876 220.362 9.76756C229.532 6.86756 239.102 5.19756 248.502 3.01756C249.242 2.84756 250.062 2.99754 251.272 2.99754C250.122 5.22754 249.072 7.07754 248.192 8.99754C245.512 14.8675 244.413 21.1375 244.533 27.4875C244.993 51.0875 250.592 73.3176 263.402 93.3876C265.982 97.4376 269.232 101.078 272.332 104.768C273.512 106.178 275.142 107.208 276.572 108.418C276.822 108.168 277.072 107.928 277.312 107.678C276.862 106.878 276.482 106.028 275.962 105.288C263.392 87.2675 256.542 67.0575 253.382 45.5275C252.462 39.2975 252.173 32.9175 252.293 26.6075C252.363 22.5175 253.183 18.2775 254.543 14.4175C257.523 5.95753 263.672 1.43753 272.772 0.35753C279.662 -0.46247 286.402 0.327545 293.192 0.747545C305.332 1.49754 317.452 2.50754 329.562 3.49754C345.042 4.76754 358.642 10.3276 369.742 21.4476C370.312 22.0176 370.802 22.6576 371.872 23.8976C370.092 23.6976 369.072 23.5675 368.052 23.4675C359.272 22.5675 351.982 25.5876 346.212 32.1376C344.133 34.4976 342.422 37.1975 340.702 39.8475C330.102 56.2075 319.642 72.6476 308.952 88.9476C300.992 101.078 293.282 113.328 286.952 126.588C286.402 111.128 288.622 95.8276 288.702 80.2676C288.222 81.7676 287.622 83.2475 287.283 84.7775C282.753 105.308 279.352 126.028 278.952 147.078C278.382 177.288 284.802 205.658 302.642 230.678C311.702 243.388 323.152 253.448 337.202 260.308C341.382 262.348 343.182 265.258 343.302 269.658C343.472 275.938 343.072 282.148 341.202 289.038C331.592 273.598 318.533 263.198 303.663 254.888C303.373 255.198 303.092 255.508 302.802 255.818C304.472 257.278 306.192 258.678 307.802 260.188C314.352 266.338 321.223 272.198 327.293 278.788C334.372 286.478 338.222 295.858 338.572 306.448C338.662 309.198 338.402 311.958 338.293 315.178C337.323 314.548 336.802 314.378 336.582 314.038C333.612 309.458 329.553 306.028 324.983 303.198C294.433 284.308 267.842 260.628 242.762 235.158C227.922 220.078 213.492 204.598 198.872 189.298C197.412 187.768 195.963 186.218 194.503 184.668L193.582 185.298C194.542 186.908 195.422 188.588 196.482 190.128C205.492 203.208 215.952 215.078 226.862 226.568C252.662 253.718 281.383 277.498 311.293 299.928C316.993 304.198 322.182 309.208 327.223 314.258C330.503 317.548 332.462 321.818 333.452 327.108C314.242 312.568 294.872 299.548 275.582 286.408C275.362 286.688 275.143 286.958 274.923 287.238C276.103 288.278 277.222 289.388 278.462 290.348C287.462 297.238 296.592 303.948 305.462 310.998C310.673 315.138 315.533 319.718 320.413 324.238C322.022 325.728 323.233 327.668 323.973 330.108C310.173 324.108 296.372 318.118 282.562 312.118C282.382 312.448 282.212 312.788 282.033 313.118C290.503 317.988 298.972 322.858 307.442 327.738C307.272 328.058 307.112 328.388 306.942 328.708C285.302 318.678 263.853 308.198 241.723 299.158C253.003 307.288 265.322 313.668 276.932 321.278C256.002 312.398 235.173 303.348 213.783 295.698C213.633 295.988 213.482 296.278 213.332 296.568C215.142 297.568 216.922 298.608 218.762 299.558C247.182 314.238 275.733 328.658 303.983 343.658C327.833 356.318 351.152 369.908 372.692 386.348C392.102 401.158 409.802 417.788 426.242 435.798C427.212 436.868 428.033 438.078 428.673 439.668C413.663 432.838 398.372 427.188 381.783 425.247C383.603 425.997 385.392 426.828 387.242 427.488C398.102 431.348 408.633 435.948 418.533 441.868C435.003 451.708 448.802 464.188 457.582 481.608C461.902 490.168 464.722 499.468 465.952 509.518C465.472 509.288 465.033 509.208 464.832 508.958C454.332 494.758 441.193 483.198 427.603 472.158C399.353 449.208 369.233 428.948 337.783 410.648C336.392 409.838 334.922 409.168 333.012 409.098C334.092 409.888 335.132 410.738 336.262 411.448C367.782 431.068 396.972 453.688 423.752 479.398C432.642 487.938 441.432 496.588 450.152 505.308C455.242 510.398 459.472 516.168 462.702 522.658C465.922 529.118 467.012 535.918 466.302 543.048C465.892 547.138 464.473 550.838 461.733 553.928C457.653 558.528 452.163 559.258 446.902 555.948C443.092 553.548 440.783 549.878 438.783 546.008C436.562 541.727 434.562 537.328 432.212 533.118C431.223 531.348 429.602 529.938 428.272 528.358C427.812 528.638 427.352 528.918 426.892 529.198L426.822 529.258Z" fill="url(#paint0_linear_451_492)"/>
<path d="M14.2526 526.318C12.3326 526.188 10.8626 526.158 9.40257 525.978C7.59257 525.748 5.76255 525.548 4.01255 525.058C2.08255 524.518 -0.307426 523.628 0.0325741 521.358C0.232574 520.008 2.18257 518.548 3.68257 517.848C5.43257 517.038 7.53257 516.928 9.49257 516.658C10.9326 516.458 12.4126 516.478 14.4526 516.368C14.4526 514.168 14.2426 512.198 14.5026 510.298C14.8226 508.028 15.2026 505.638 16.1826 503.608C17.6826 500.488 20.7526 500.428 22.2026 503.558C23.2826 505.888 23.5626 508.628 23.9626 511.228C24.2126 512.818 24.0126 514.478 24.0126 516.248C27.1426 516.558 29.9526 516.608 32.6726 517.168C35.0426 517.658 37.8126 518.158 38.1826 521.328C38.4026 523.268 36.5226 524.708 32.7026 525.428C30.1126 525.918 27.4426 526.038 24.2326 526.378C24.1626 528.028 24.2526 529.818 23.9726 531.538C23.5426 534.128 23.2426 536.868 22.1426 539.188C20.6726 542.278 17.3626 542.208 16.1426 539.018C15.0426 536.148 14.9125 532.908 14.4125 529.818C14.2625 528.858 14.3126 527.868 14.2426 526.308L14.2526 526.318Z" fill="url(#paint1_linear_451_492)"/>
<path d="M331.762 575.608C328.592 575.448 326.112 575.428 323.652 575.168C319.782 574.768 317.022 572.858 317.112 570.838C317.192 569.008 319.792 567.158 323.342 566.658C325.932 566.288 328.562 566.178 331.492 565.918C331.602 563.708 331.542 561.738 331.842 559.818C332.192 557.548 332.482 555.138 333.452 553.108C334.972 549.918 337.842 549.858 339.452 552.948C340.412 554.798 340.772 557.018 341.102 559.128C341.412 561.078 341.312 563.098 341.402 565.088C341.402 565.238 341.522 565.388 341.762 565.938C343.982 566.128 346.412 566.258 348.832 566.568C353.212 567.118 355.812 568.938 355.592 571.168C355.392 573.238 352.812 574.808 348.822 575.218C347.662 575.338 346.492 575.328 345.332 575.388C344.192 575.448 343.052 575.518 341.362 575.608C341.292 577.848 341.392 579.968 341.102 582.028C340.782 584.298 340.462 586.698 339.482 588.708C337.942 591.828 334.892 591.848 333.482 588.708C332.432 586.358 332.182 583.618 331.802 581.008C331.572 579.398 331.762 577.728 331.762 575.618V575.608Z" fill="url(#paint2_linear_451_492)"/>
<path d="M86.6225 111.498C86.5125 113.588 86.4325 114.898 86.3725 116.218C86.3125 117.548 86.3625 118.888 86.2125 120.198C85.7625 124.348 83.8425 127.128 81.6025 127.018C79.4025 126.898 77.5325 124.048 77.2525 119.928C77.0725 117.328 77.2225 114.698 77.2225 111.838C73.9725 111.598 71.3525 111.508 68.7625 111.188C64.9725 110.728 62.7025 109.158 62.6025 107.128C62.4925 104.988 65.0025 103.138 68.9425 102.668C71.4025 102.378 73.8925 102.328 76.9525 102.128C77.0225 100.088 76.9625 98.138 77.1725 96.218C77.4025 94.098 77.5425 91.848 78.3625 89.938C78.9225 88.638 80.5125 87.208 81.8325 86.998C82.7425 86.848 84.4525 88.4581 84.9625 89.6381C85.7925 91.5581 86.0725 93.7681 86.3125 95.8781C86.5225 97.8081 86.3525 99.778 86.3525 102.098C88.8525 102.238 90.8325 102.178 92.7425 102.508C94.8325 102.868 97.0425 103.258 98.8825 104.238C101.792 105.788 101.722 108.418 98.6925 109.858C96.6625 110.828 94.2625 111.108 91.9925 111.438C90.4025 111.678 88.7525 111.488 86.6225 111.488V111.498Z" fill="url(#paint3_linear_451_492)"/>
<path d="M422.432 314.738C419.832 313.408 416.462 314.478 414.742 311.618C416.282 308.098 419.702 309.268 422.302 308.188C423.592 305.598 421.702 301.728 425.402 299.708C428.912 301.538 427.812 305.098 428.412 308.238C429.882 308.478 431.352 308.568 432.712 308.998C433.892 309.368 434.942 310.138 436.172 310.798C434.672 314.638 431.162 313.358 428.522 314.708C428.372 316.118 428.462 317.818 427.942 319.318C427.502 320.568 426.522 322.308 425.492 322.538C423.622 322.948 423.282 320.968 423.022 319.508C422.732 317.908 422.622 316.288 422.432 314.738Z" fill="url(#paint4_linear_451_492)"/>
<defs>
<linearGradient id="paint0_linear_451_492" x1="265.06" y1="0" x2="265.06" y2="633.997" gradientUnits="userSpaceOnUse">
<stop stop-color="#E8DCB5"/>
<stop offset="0.628138" stop-color="#C2A97D"/>
</linearGradient>
<linearGradient id="paint1_linear_451_492" x1="19.0999" y1="501.239" x2="19.0999" y2="541.459" gradientUnits="userSpaceOnUse">
<stop stop-color="#E8DCB5"/>
<stop offset="0.628138" stop-color="#C2A97D"/>
</linearGradient>
<linearGradient id="paint2_linear_451_492" x1="336.358" y1="550.672" x2="336.358" y2="591.055" gradientUnits="userSpaceOnUse">
<stop stop-color="#E8DCB5"/>
<stop offset="0.628138" stop-color="#C2A97D"/>
</linearGradient>
<linearGradient id="paint3_linear_451_492" x1="81.8075" y1="86.9883" x2="81.8075" y2="127.021" gradientUnits="userSpaceOnUse">
<stop stop-color="#E8DCB5"/>
<stop offset="0.628138" stop-color="#C2A97D"/>
</linearGradient>
<linearGradient id="paint4_linear_451_492" x1="425.457" y1="299.708" x2="425.457" y2="322.593" gradientUnits="userSpaceOnUse">
<stop stop-color="#E8DCB5"/>
<stop offset="0.628138" stop-color="#C2A97D"/>
</linearGradient>
</defs>
</svg>
