<svg width="266" height="33" viewBox="0 0 266 33" fill="none" xmlns="http://www.w3.org/2000/svg">
<path d="M10.5279 12.6274C10.6918 13.0169 10.7412 13.4354 10.6718 13.8455C10.6057 14.2968 10.4147 14.7277 10.115 15.1014C9.79072 15.5099 9.36271 15.8488 8.86375 16.0921C8.29143 16.3662 7.63932 16.4903 6.98689 16.4494C6.31455 16.4201 5.65829 16.2611 5.06624 15.9838C4.40722 15.6699 3.83675 15.2336 3.39583 14.7062C2.87801 14.0917 2.49036 13.4025 2.25095 12.6708C1.96861 11.7756 1.89629 10.8405 2.03824 9.92071C2.18814 8.36682 2.80496 6.87386 3.82751 5.58992C4.84057 4.35279 6.1376 3.30974 7.63754 2.52591C9.24376 1.68927 10.9856 1.06522 12.8052 0.674492C14.7024 0.260054 16.6482 0.0348373 18.6047 0.0032255C20.5374 -0.0259623 22.4673 0.143029 24.3541 0.506675C26.1191 0.833404 27.8198 1.38048 29.4029 2.13072C30.8271 2.81284 32.0664 3.75046 33.0377 4.88076C33.9805 5.9994 34.5065 7.34025 34.5455 8.72433C34.585 9.55745 34.4097 10.3877 34.0325 11.155C33.6638 11.91 33.1379 12.6 32.4809 13.1905C31.7974 13.809 31.0031 14.3281 30.1286 14.7279C29.2122 15.1486 28.2333 15.4582 27.2194 15.6482C28.7594 15.8596 30.2027 16.4326 31.3923 17.3047C32.4829 18.0999 33.3405 19.1072 33.8948 20.2442C34.4197 21.3546 34.6341 22.5565 34.5204 23.7522C34.4154 24.9681 33.9287 26.136 33.1128 27.1302C32.1952 28.2184 30.9781 29.0912 29.5718 29.6691C27.7572 30.3955 25.7705 30.7423 23.7723 30.6814C22.8085 30.6871 21.8479 30.587 20.9132 30.3837C20.1086 30.212 19.3328 29.9518 18.6047 29.6095C17.9687 29.3185 17.3902 28.9421 16.8905 28.4944C16.4708 28.1284 16.154 27.6839 15.9645 27.1951C15.8454 26.9055 15.7965 26.5978 15.8206 26.2911C15.8418 26.0542 15.9253 25.8245 16.0646 25.6198C16.167 25.4599 16.3245 25.3317 16.5152 25.2531C16.7059 25.1745 16.9202 25.1494 17.1282 25.1813C17.141 25.6117 17.2672 26.0339 17.4973 26.4156C17.7595 26.8758 18.1304 27.2834 18.5859 27.612C19.1348 28.006 19.7747 28.2939 20.4627 28.4565C21.3654 28.6589 22.306 28.7013 23.228 28.581C24.4799 28.4774 25.6725 28.0702 26.6689 27.4063C27.573 26.7972 28.3101 26.0226 28.8273 25.138C29.334 24.2688 29.6239 23.3171 29.6781 22.3447C29.7509 21.4066 29.5777 20.4665 29.1714 19.5946C28.7537 18.7376 28.0826 17.9908 27.2257 17.4292C26.2486 16.7978 25.0723 16.439 23.8536 16.4006C23.3521 16.3775 22.8491 16.3974 22.3521 16.4602C21.7703 16.5306 21.1572 16.6226 20.4753 16.7363C19.7933 16.85 19.1865 16.9799 18.5358 17.1315C17.8852 17.283 17.2846 17.4509 16.7904 17.6187C15.6267 21.9819 14.0168 25.2914 11.9606 27.547C9.90437 29.8026 7.37686 30.7771 4.37806 30.4703C3.23989 30.4144 2.15522 30.0337 1.29375 29.3876C0.632813 28.871 0.192073 28.1768 0.0425098 27.4171C-0.0794257 26.6763 0.062426 25.9209 0.449163 25.2517C0.857854 24.526 1.5126 23.9255 2.32602 23.5302C2.74745 23.3296 3.23157 23.25 3.70864 23.3028C4.24251 23.3461 4.57408 23.4652 4.70338 23.6601C4.46056 23.7034 4.23119 23.791 4.03055 23.917C3.8299 24.043 3.66258 24.2046 3.53973 24.3909C3.25678 24.7703 3.08301 25.2028 3.03297 25.6523C2.98677 26.055 3.08741 26.4601 3.32076 26.8108C3.44159 26.9908 3.61505 27.1401 3.82372 27.2436C4.03238 27.3472 4.26888 27.4014 4.50944 27.4008C5.37408 27.4321 6.22406 27.2003 6.91182 26.7458C7.72103 26.2024 8.39729 25.5253 8.90129 24.7537C9.56667 23.759 10.1198 22.7111 10.5529 21.6247C11.0938 20.2817 11.5552 18.9157 11.9355 17.5321C12.582 15.2981 13.1951 13.3673 13.7749 11.7396C14.2569 10.3519 14.8808 9.004 15.6392 7.71202C16.1464 6.80479 16.8641 5.99766 17.7476 5.34091C18.5173 4.82313 19.4692 4.54985 20.444 4.56679C21.0947 4.54443 21.7411 4.66748 22.3208 4.92408C22.7432 5.10776 23.0967 5.39116 23.3406 5.7415C22.6235 5.8594 21.9497 6.12493 21.3762 6.51564C20.7537 7.00125 20.2569 7.5953 19.9185 8.25878C19.4087 9.24998 18.9903 10.2745 18.6672 11.3228C18.2501 12.586 17.7809 14.1811 17.2596 16.1083C18.2272 15.9748 19.2699 15.7943 20.3877 15.567C21.52 15.3288 22.5085 15.096 23.3469 14.8741C25.0883 14.4489 26.6588 13.6129 27.8826 12.4596C28.8002 11.5828 29.3548 10.4668 29.4592 9.28734C29.5381 8.29241 29.2512 7.30137 28.6396 6.45608C27.9984 5.58465 27.1442 4.84549 26.1371 4.29069C24.9963 3.65551 23.7551 3.16682 22.4522 2.83988C21.0503 2.46147 19.605 2.21642 18.1417 2.10906C16.6803 2.01033 15.2106 2.05939 13.7624 2.25523C12.4062 2.42862 11.0892 2.78289 9.85849 3.30543C8.7302 3.78447 7.73713 4.47191 6.94936 5.31925C6.15866 6.18848 5.68594 7.24221 5.59176 8.3454C5.52167 8.98419 5.61129 9.62854 5.85452 10.2347C6.07523 10.7887 6.44143 11.2909 6.92433 11.7017C7.39052 12.0953 7.95589 12.39 8.57597 12.5625C9.20615 12.7447 9.88341 12.7673 10.5279 12.6274Z" fill="url(#paint0_linear_38_181)"/>
<path d="M137.986 7.17067C137.225 7.28962 136.513 7.5789 135.921 8.00976C135.259 8.55227 134.738 9.21125 134.395 9.94237C133.838 11.0627 133.392 12.2217 133.062 13.407C132.645 14.8506 132.134 16.6767 131.529 18.8854C130.366 23.3064 128.758 26.6574 126.706 28.9383C124.654 31.2192 122.089 32.2062 119.011 31.8994C117.874 31.8436 116.792 31.4628 115.933 30.8168C115.275 30.298 114.835 29.6049 114.681 28.8463C114.559 28.1049 114.703 27.3489 115.094 26.6809C115.501 25.954 116.156 25.353 116.971 24.9594C117.392 24.7584 117.877 24.6788 118.354 24.732C118.883 24.7753 119.215 24.8944 119.348 25.0893C119.105 25.1326 118.875 25.2201 118.673 25.3461C118.471 25.472 118.303 25.6336 118.179 25.8201C117.901 26.2017 117.728 26.6331 117.672 27.0815C117.618 27.4972 117.722 27.9168 117.966 28.2778C118.086 28.4582 118.26 28.6078 118.468 28.7114C118.677 28.8151 118.914 28.869 119.155 28.8679C120.016 28.8958 120.862 28.6664 121.551 28.2183C122.362 27.6744 123.038 26.9951 123.54 26.2207C124.208 25.2272 124.761 24.1791 125.192 23.0917C125.735 21.7495 126.197 20.3834 126.574 18.9991C127.225 16.7652 127.84 14.8344 128.42 13.2067C128.893 11.8168 129.511 10.4669 130.266 9.17367C130.769 8.25701 131.49 7.4419 132.38 6.7809C133.147 6.26312 134.097 5.98976 135.07 6.00678C135.721 5.98611 136.367 6.10907 136.947 6.36407C137.373 6.54425 137.733 6.82355 137.986 7.17067ZM125.123 14.0566C125.319 14.4386 125.386 14.8609 125.317 15.2747C125.246 15.7257 125.053 16.156 124.754 16.5306C124.428 16.938 124 17.2766 123.503 17.5212C122.93 17.795 122.278 17.9192 121.626 17.8785C120.943 17.8418 120.276 17.6806 119.67 17.4053C119.064 17.1301 118.533 16.7471 118.11 16.2816C117.605 15.715 117.241 15.0644 117.04 14.3706C116.788 13.4855 116.731 12.5673 116.871 11.6639C117.007 10.2245 117.539 8.83428 118.423 7.60916C119.298 6.42107 120.428 5.38848 121.751 4.56679C123.137 3.70656 124.666 3.03475 126.287 2.57464C129.706 1.57751 133.338 1.24662 136.922 1.60562C138.637 1.77822 140.32 2.14214 141.927 2.68831C143.863 3.31064 145.618 4.29174 147.07 5.56287C148.393 6.7499 149.453 8.1371 150.198 9.65546C150.946 11.1832 151.396 12.8076 151.53 14.4626C151.679 16.1464 151.582 17.8397 151.243 19.5026C150.907 21.1573 150.32 22.7663 149.497 24.2881C148.715 25.7567 147.684 27.1161 146.438 28.3211C145.25 29.4629 143.826 30.4028 142.24 31.0928C140.626 31.7829 138.847 32.1352 137.047 32.1214C136.175 32.1336 135.306 32.0201 134.476 31.7858C133.794 31.5879 133.149 31.3052 132.562 30.9467C132.064 30.6384 131.629 30.2617 131.273 29.8315C130.974 29.4669 130.746 29.0629 130.597 28.6351C130.472 28.3468 130.423 28.0379 130.453 27.7311C130.475 27.495 130.556 27.2659 130.691 27.0598C130.805 26.8931 130.975 26.7608 131.179 26.6809C131.362 26.6134 131.564 26.5927 131.761 26.6213C131.767 27.0631 131.882 27.4987 132.099 27.8989C132.33 28.3369 132.659 28.7307 133.068 29.0574C133.515 29.4054 134.036 29.6756 134.601 29.8532C135.246 30.0515 135.938 30.1091 136.616 30.021C138.28 29.8695 139.831 29.216 140.995 28.175C142.319 27.0113 143.38 25.6434 144.123 24.1419C144.969 22.4707 145.54 20.7049 145.818 18.8963C146.126 17.049 146.1 15.1717 145.743 13.3312C145.404 11.5673 144.671 9.8774 143.585 8.35623C142.512 6.85294 140.952 5.65567 139.099 4.91325C137.897 4.42354 136.639 4.04433 135.346 3.78183C134.008 3.50434 132.641 3.34832 131.267 3.31628C129.948 3.28541 128.63 3.3853 127.338 3.61401C126.136 3.81843 124.982 4.19343 123.922 4.72379C122.924 5.23387 122.069 5.92903 121.419 6.75924C120.732 7.66387 120.322 8.70552 120.231 9.78538C120.162 10.4246 120.254 11.0689 120.5 11.6747C120.718 12.2282 121.083 12.7303 121.563 13.1417C122.023 13.5315 122.579 13.8258 123.19 14.0025C123.815 14.1813 124.486 14.2001 125.123 14.0566Z" fill="url(#paint1_linear_38_181)"/>
<path d="M51.9941 30.4703C51.4468 30.4688 50.91 30.3392 50.4408 30.0952C49.9716 29.8512 49.5875 29.502 49.329 29.0844C48.6709 28.0533 48.2962 26.9048 48.2342 25.7281C48.0511 22.653 48.859 19.5943 50.5677 16.8933C51.4248 15.5387 52.5589 14.33 53.9148 13.3258C55.2442 12.3342 56.8971 11.725 58.6445 11.5827C59.8531 11.4328 61.0861 11.5713 62.2105 11.9832C63.1396 12.2716 63.9098 12.8512 64.3689 13.6073C64.5761 13.9892 64.691 14.4037 64.7067 14.8253C64.7425 15.2866 64.6435 15.7483 64.419 16.1679C64.1734 16.6074 63.7633 16.9623 63.2553 17.1748C62.5376 17.4474 61.7399 17.5211 60.9718 17.3859C61.0154 17.0949 60.986 16.7992 60.8856 16.519C60.7852 16.2387 60.6162 15.9805 60.39 15.7619C60.1212 15.5418 59.7972 15.3784 59.4435 15.2845C59.0897 15.1906 58.7156 15.1687 58.3504 15.2205C57.3392 15.3342 56.4055 15.7496 55.7103 16.3952C54.843 17.1439 54.1205 18.0085 53.5707 18.9558C52.9614 19.9959 52.4671 21.0834 52.0942 22.2039C51.731 23.2378 51.4879 24.3005 51.3685 25.3762C51.2586 26.1823 51.3073 26.9986 51.5124 27.7906C51.7064 28.4348 52.0942 28.7542 52.6761 28.7542C53.358 28.7542 54.0524 28.3753 54.7656 27.6228C55.5346 26.7832 56.1993 25.876 56.7489 24.9161C57.3711 23.8617 57.9225 22.7772 58.4005 21.668C58.8885 20.5636 59.2764 19.6758 59.5641 19.0045C59.6479 18.7802 59.8003 18.5797 60.0052 18.4243C60.2101 18.269 60.4598 18.1645 60.7278 18.1221C61.3095 18.0073 61.9168 18.0373 62.4795 18.2087C63.0394 18.362 63.5353 18.6537 63.906 19.0478C64.0887 19.238 64.2061 19.4686 64.2448 19.7136C64.2835 19.9586 64.242 20.2081 64.1249 20.4337C63.8059 21.1862 63.4055 22.0577 62.9362 22.9943C62.467 23.9308 62.0791 24.8403 61.7726 25.701C61.4935 26.3979 61.3457 27.129 61.3347 27.8664C61.3201 27.987 61.3375 28.1089 61.3853 28.2229C61.4332 28.3369 61.5103 28.44 61.6109 28.5245C61.7115 28.6089 61.8329 28.6725 61.9661 28.7104C62.0992 28.7483 62.2405 28.7596 62.3794 28.7434C62.7745 28.7111 63.1583 28.6112 63.5084 28.4495C63.8585 28.2878 64.168 28.0675 64.419 27.8014C65.1678 27.1362 65.8423 26.4112 66.4335 25.636C67.0288 24.8599 67.5698 24.0537 68.0538 23.2216C68.5105 22.4367 68.8171 21.8899 68.9797 21.5976C69.0856 21.3477 69.2496 21.1193 69.4615 20.9263C69.577 20.7987 69.741 20.7105 69.9244 20.6773C70.037 20.6773 70.1121 20.7531 70.1434 20.9047C70.1543 21.1467 70.0872 21.3867 69.9494 21.5976C69.8181 21.825 69.6366 22.1985 69.3926 22.7344C69.1486 23.2704 68.8484 23.8658 68.4917 24.5371C68.1351 25.2084 67.716 25.9013 67.2405 26.6159C66.7728 27.3061 66.237 27.96 65.6389 28.5702C65.0968 29.1275 64.4647 29.6143 63.7621 30.0156C63.1147 30.3867 62.3552 30.5845 61.5786 30.584C60.8919 30.6168 60.2138 30.4385 59.6642 30.0805C59.1954 29.7456 58.8353 29.3109 58.6195 28.8192C58.3894 28.2891 58.2666 27.7288 58.2566 27.1626C58.2386 26.5797 58.2783 25.9965 58.3755 25.4195C58.0639 26.1282 57.6916 26.8158 57.2619 27.4766C56.8758 28.0839 56.3936 28.6414 55.8292 29.1332C55.3229 29.5774 54.7325 29.9436 54.0837 30.2159C53.423 30.4514 52.7043 30.5389 51.9941 30.4703Z" fill="url(#paint2_linear_38_181)"/>
<path d="M86.5347 21.4839C86.8537 20.9425 87.1603 20.6123 87.4793 20.5419C87.7984 20.4716 87.7922 20.7855 87.4793 21.4839C86.8698 22.9632 86.0119 24.3568 84.9331 25.6198C84.0047 26.7015 82.9103 27.6686 81.6798 28.4943C80.6082 29.2094 79.4018 29.7589 78.1138 30.1184C76.9647 30.4453 75.7559 30.5866 74.5478 30.5352C73.4563 30.4898 72.3892 30.2405 71.4197 29.8044C70.4519 29.3612 69.6395 28.7012 69.0673 27.8934C68.4291 27.0208 68.0926 26.0083 68.0976 24.9756C68.0706 23.7827 68.2498 22.593 68.6294 21.446C69.0415 20.1792 69.6275 18.9597 70.3749 17.8135C71.1145 16.6578 72.0183 15.5867 73.0651 14.625C74.0305 13.7347 75.1541 12.9836 76.3934 12.4001C77.5177 11.8598 78.7936 11.6011 80.0783 11.653C81.7466 11.7396 82.9603 12.1745 83.7194 12.9576C84.4596 13.7321 84.8703 14.7028 84.883 15.7077C84.9033 16.8074 84.6382 17.897 84.1073 18.8962C83.6255 19.8942 82.8772 20.7791 81.9238 21.4785C81.2826 21.9509 80.5147 22.2766 79.6904 22.4258C79.0041 22.5577 78.2887 22.5202 77.6258 22.3176C77.0572 22.1433 76.5769 21.8024 76.2682 21.354C76.1159 21.119 76.0262 20.8576 76.0056 20.5888C75.985 20.3199 76.0342 20.0506 76.1494 19.8003C76.5682 19.8052 76.984 19.7374 77.3719 19.6007C77.7599 19.464 78.1122 19.2612 78.4079 19.0045C79.0811 18.4692 79.618 17.8184 79.9844 17.0935C80.3225 16.4634 80.4483 15.7635 80.3473 15.0743C80.3063 14.7808 80.1528 14.5077 79.9112 14.2986C79.6696 14.0896 79.3539 13.9567 79.0147 13.9212C78.4743 13.831 77.9183 13.8368 77.3806 13.9382C76.8429 14.0397 76.3346 14.2346 75.8866 14.5113C74.916 15.1028 74.1049 15.8693 73.5092 16.7579C72.8443 17.7349 72.3609 18.7963 72.0766 19.9031C71.7774 20.982 71.7033 22.0985 71.8576 23.1999C71.991 24.1762 72.4374 25.1007 73.1464 25.8688C73.5235 26.2508 73.9876 26.5614 74.5096 26.7812C75.0317 27.0011 75.6006 27.1253 76.1806 27.1464C77.3995 27.2684 78.6341 27.1838 79.8155 26.8974C80.8427 26.6331 81.8113 26.2214 82.6808 25.6793C83.5203 25.1469 84.2645 24.5103 84.8893 23.79C85.5211 23.0683 86.0721 22.2961 86.5347 21.4839Z" fill="url(#paint3_linear_38_181)"/>
<path d="M108.187 21.4839C107.671 22.6366 106.988 23.728 106.154 24.732C105.305 25.7734 104.327 26.7318 103.239 27.5903C102.231 28.3932 101.106 29.0776 99.8916 29.6258C98.8801 30.1085 97.7494 30.374 96.5946 30.3999C95.6724 30.422 94.7679 30.1782 94.0233 29.707C93.758 29.5471 93.5108 29.3659 93.285 29.1656C92.8804 28.7871 92.5468 28.356 92.2966 27.888C91.8757 27.0839 91.6622 26.2102 91.6709 25.3275C91.6865 24.3201 91.969 23.3292 92.4968 22.4312C93.5007 22.5993 94.534 22.5845 95.531 22.3879C96.446 22.2066 97.3222 21.9015 98.1273 21.4839C98.8818 21.0954 99.5685 20.616 100.167 20.0601C100.695 19.5793 101.136 19.0317 101.474 18.4361C101.742 17.9805 101.891 17.4798 101.912 16.969C101.926 16.7755 101.885 16.5821 101.792 16.4056C101.699 16.2291 101.558 16.075 101.381 15.9567C100.955 15.7348 100.286 15.751 99.3661 16C98.2619 16.3365 97.2286 16.8265 96.3068 17.4508C95.0643 18.2681 93.9255 19.1972 92.9097 20.2225C92.3116 20.8123 91.7658 21.4402 91.2768 22.101C90.7756 22.772 90.3242 23.47 89.9255 24.1906L88.0486 28.765C87.9365 29.0579 87.7919 29.3407 87.6169 29.6095C87.4287 29.9296 87.1318 30.1922 86.7661 30.362C86.5466 30.4612 86.2928 30.4879 86.0522 30.4371C85.8116 30.3863 85.6006 30.2615 85.4585 30.0859C85.0074 29.5102 84.7616 28.8326 84.7516 28.137C84.694 26.9429 84.8739 25.749 85.2834 24.6075C85.446 24.0661 85.6838 23.3461 85.9903 22.4421C86.2969 21.538 86.6535 20.4878 87.0539 19.3564C87.3542 18.5281 87.6795 17.6457 88.0236 16.72C88.1487 16.3844 88.2801 16.0379 88.4177 15.6806C88.9182 14.3652 89.4437 13.0389 89.9943 11.6909C90.4635 10.5432 90.9327 9.48219 91.3894 8.50235C91.6397 8.05303 91.8962 7.61454 92.1589 7.20311C93.9545 5.74689 95.4497 5.92553 96.776 6.94326C96.3589 7.78776 95.9418 8.71347 95.5248 9.72038C94.9805 10.9925 94.4549 12.3026 93.9545 13.6019C93.7042 14.2569 93.479 14.9227 93.2538 15.5832C93.0285 16.2436 91.9337 19.0424 91.9337 19.0424L92.1902 18.7284C93.2239 17.4855 94.3459 16.2995 95.5498 15.1772C96.4836 14.2843 97.496 13.4554 98.5778 12.6978C99.3119 12.2323 100.145 11.8974 101.03 11.7125C101.911 11.5058 102.838 11.4927 103.727 11.6747C104.565 11.8537 105.302 12.2831 105.81 12.8873C106.361 13.5206 106.554 14.4626 106.392 15.7239C106.219 16.8644 105.746 17.9553 105.009 18.9125C104.251 19.9208 103.288 20.8028 102.169 21.5164C101.081 22.2153 99.8734 22.7633 98.5903 23.1404C98.5152 23.1404 98.4401 23.1891 98.3651 23.2054C96.9965 23.5942 95.5545 23.7523 94.1171 23.6709C94.1196 24.0717 94.2021 24.4692 94.3611 24.8456C94.6795 25.6117 95.3272 26.2419 96.1692 26.605C96.2355 26.6382 96.3045 26.6671 96.3756 26.6916C96.7081 26.819 97.0599 26.9046 97.4204 26.9461C97.661 26.9728 97.9035 26.9855 98.1461 26.984C99.072 26.9798 99.9903 26.8388 100.861 26.5671C101.771 26.284 102.629 25.8883 103.408 25.3924C104.207 24.8824 104.939 24.2978 105.591 23.6493C106.237 23.0144 106.768 22.299 107.168 21.5272C107.493 20.9155 107.793 20.6231 108.093 20.6664C108.394 20.7097 108.45 20.9534 108.187 21.4839Z" fill="url(#paint4_linear_38_181)"/>
<path d="M156.617 31.8614C156.068 31.8614 155.53 31.7325 155.059 31.4884C154.589 31.2444 154.204 30.8942 153.945 30.4755C153.286 29.4451 152.913 28.296 152.857 27.1192C152.753 25.6465 152.89 24.1685 153.263 22.7288C153.646 21.1717 154.293 19.6721 155.184 18.279C156.041 16.9244 157.175 15.7157 158.531 14.7115C159.86 13.7199 161.513 13.1107 163.261 12.9683C164.469 12.8185 165.702 12.957 166.827 13.3689C167.756 13.6573 168.526 14.2369 168.985 14.993C169.192 15.3754 169.308 15.7893 169.329 16.211C169.363 16.6728 169.262 17.1344 169.035 17.5535C168.79 17.9931 168.379 18.3479 167.871 18.5605C167.154 18.8331 166.356 18.9068 165.588 18.7716C165.634 18.4805 165.606 18.1843 165.505 17.9037C165.405 17.623 165.234 17.3649 165.006 17.1475C164.738 16.9279 164.415 16.7648 164.063 16.6709C163.71 16.577 163.337 16.5549 162.973 16.6062C161.96 16.7213 161.025 17.1364 160.327 17.7809C159.459 18.5284 158.739 19.3933 158.193 20.3415C157.579 21.3803 157.083 22.4681 156.71 23.5896C156.348 24.6236 156.104 25.6862 155.985 26.7619C155.875 27.5679 155.923 28.3843 156.129 29.1763C156.323 29.8205 156.71 30.1399 157.292 30.1399C157.974 30.1399 158.669 29.7609 159.382 29.0085C160.15 28.1672 160.816 27.2602 161.371 26.3017C161.987 25.2457 162.537 24.1614 163.017 23.0536C163.505 21.9493 163.893 21.0615 164.18 20.3902C164.265 20.1655 164.419 19.9648 164.625 19.8094C164.831 19.6541 165.081 19.5499 165.35 19.5078C165.93 19.3958 166.534 19.4258 167.096 19.5944C167.657 19.7488 168.154 20.0402 168.528 20.4335C168.711 20.6239 168.827 20.8548 168.865 21.1C168.903 21.3451 168.86 21.5944 168.741 21.8194C168.422 22.5718 168.022 23.4434 167.552 24.38C167.083 25.3165 166.695 26.226 166.389 27.0867C166.108 27.783 165.962 28.5147 165.957 29.2521C165.942 29.3724 165.958 29.4942 166.005 29.6083C166.052 29.7223 166.129 29.8256 166.229 29.9101C166.329 29.9947 166.45 30.0584 166.583 30.0963C166.716 30.1343 166.857 30.1455 166.996 30.1291C167.391 30.0973 167.775 29.9977 168.125 29.8359C168.475 29.6742 168.785 29.4536 169.035 29.1871C169.784 28.5219 170.458 27.7968 171.05 27.0217C171.646 26.2451 172.189 25.4389 172.676 24.6073C173.127 23.8242 173.433 23.2828 173.596 22.9833C173.706 22.7341 173.872 22.506 174.084 22.312C174.278 22.1442 174.428 22.063 174.541 22.063C174.653 22.063 174.728 22.1388 174.76 22.2903C174.771 22.5324 174.703 22.7724 174.566 22.9833C174.434 23.2106 174.253 23.5896 174.009 24.1201C173.765 24.6506 173.465 25.2515 173.108 25.9228C172.751 26.5941 172.332 27.287 171.857 28.0016C171.389 28.6918 170.853 29.3456 170.255 29.9558C169.713 30.5132 169.081 31 168.378 31.4012C167.731 31.773 166.972 31.9708 166.195 31.9696C165.508 32.0025 164.83 31.8242 164.28 31.4662C163.812 31.1313 163.452 30.6966 163.236 30.2048C163.006 29.6748 162.883 29.1144 162.873 28.5483C162.857 27.9653 162.899 27.3821 162.998 26.8052C162.683 27.5135 162.309 28.201 161.878 28.8623C161.492 29.4695 161.01 30.0271 160.445 30.5188C159.939 30.9631 159.349 31.3293 158.7 31.6015C158.042 31.8389 157.325 31.9283 156.617 31.8614Z" fill="url(#paint5_linear_38_181)"/>
<path d="M179.058 14.2677C178.801 15.2205 178.476 16.3086 178.088 17.5158C177.7 18.723 177.281 19.9898 176.837 21.3053C177.95 19.629 179.214 18.0308 180.615 16.5252C181.534 15.5203 182.64 14.6549 183.887 13.9646C184.819 13.4387 185.871 13.0951 186.972 12.9577C187.791 12.8516 188.628 13.0075 189.324 13.3962C189.649 13.6038 189.916 13.8723 190.105 14.1817C190.293 14.491 190.398 14.8331 190.413 15.1826C190.493 16.0132 190.378 16.8492 190.075 17.6403C189.72 18.6658 189.303 19.6742 188.824 20.6611C188.323 21.7113 187.798 22.7615 187.247 23.8117C186.696 24.8619 186.227 25.8093 185.839 26.6646C185.504 27.3588 185.269 28.0861 185.139 28.83C185.057 29.4038 185.226 29.7449 185.645 29.8586C185.925 29.9031 186.212 29.8963 186.488 29.8384C186.764 29.7806 187.022 29.6731 187.247 29.5229C187.966 29.1085 188.618 28.6134 189.186 28.0505C189.932 27.3324 190.606 26.561 191.201 25.7443C191.875 24.8321 192.467 23.8765 192.971 22.886C193.159 22.4699 193.405 22.0754 193.703 21.7113C193.929 21.4623 194.104 21.3323 194.235 21.3323C194.367 21.3323 194.41 21.4623 194.379 21.7113C194.294 22.118 194.147 22.5131 193.941 22.886C193.685 23.4274 193.265 24.2286 192.69 25.2409C192.079 26.2881 191.372 27.291 190.575 28.24C189.778 29.2132 188.834 30.089 187.766 30.8438C186.842 31.541 185.664 31.9339 184.438 31.9536C184.067 31.9685 183.696 31.9165 183.349 31.8009C183.003 31.6854 182.687 31.5088 182.423 31.2823C181.879 30.7605 181.526 30.1104 181.41 29.4147C181.228 28.4775 181.228 27.5206 181.41 26.5834C181.622 25.3574 181.954 24.1494 182.405 22.9726C182.599 22.4962 182.818 21.9766 183.03 21.419L183.737 19.7949C183.963 19.2806 184.175 18.8097 184.363 18.3874C184.551 17.9652 184.682 17.662 184.751 17.4671C184.125 17.4671 183.343 17.8028 182.373 18.474C181.247 19.2811 180.222 20.1883 179.314 21.1808C178.174 22.4057 177.145 23.7052 176.236 25.0676C175.259 26.5009 174.422 28.002 173.734 29.5554L173.49 30.1455C173.133 31.0116 172.689 31.5476 172.157 31.7695C171.921 31.8683 171.653 31.8948 171.397 31.8446C171.142 31.7944 170.913 31.6706 170.749 31.4934C170.259 30.9264 169.964 30.2507 169.899 29.5446C169.77 28.3545 169.919 27.1543 170.337 26.015C170.499 25.5115 170.768 24.8349 171.137 23.9795C171.506 23.1242 171.944 22.166 172.451 21.105C172.958 20.0439 173.477 18.9017 174.028 17.6837C174.578 16.4656 175.091 15.2097 175.579 13.9267C175.769 13.4106 176.122 12.9509 176.599 12.6004C176.957 12.3133 177.419 12.143 177.907 12.1186C178.112 12.1184 178.315 12.1648 178.494 12.2531C178.673 12.3414 178.822 12.4686 178.926 12.6221C179.205 13.1375 179.252 13.7241 179.058 14.2677Z" fill="url(#paint6_linear_38_181)"/>
<path d="M216.52 23.9687C215.677 24.4151 214.731 24.6943 213.748 24.7861C212.895 24.8606 212.033 24.8038 211.202 24.6183C210.441 24.447 209.714 24.1788 209.044 23.8225C208.464 23.5205 207.941 23.1446 207.492 22.7073C207.428 23.4082 207.46 24.1132 207.586 24.8078C207.704 25.4433 207.952 26.0556 208.318 26.6159C208.665 27.1374 209.146 27.5821 209.726 27.9151C210.368 28.2705 211.1 28.486 211.859 28.5431C213.088 28.6641 214.333 28.5796 215.525 28.294C216.559 28.0321 217.534 27.6203 218.409 27.076C219.249 26.5436 219.993 25.907 220.618 25.1867C221.243 24.4626 221.788 23.6886 222.244 22.8752C222.377 22.6324 222.547 22.4066 222.751 22.2039C222.859 22.075 223.013 21.98 223.189 21.9332C223.301 21.9332 223.377 21.9873 223.408 22.1443C223.417 22.3983 223.35 22.6499 223.214 22.8752C222.571 24.3365 221.697 25.7138 220.618 26.9677C219.684 28.0545 218.581 29.0237 217.339 29.8477C216.254 30.5647 215.041 31.1242 213.748 31.5042C212.62 31.8443 211.426 31.9932 210.232 31.9427C209.141 31.8991 208.073 31.6496 207.104 31.2119C206.136 30.7687 205.324 30.1088 204.752 29.301C204.114 28.4269 203.77 27.4167 203.757 26.3831C203.715 25.1895 203.894 23.9977 204.289 22.8535C204.718 21.5903 205.312 20.3735 206.059 19.2265C206.797 18.0668 207.704 16.9935 208.756 16.0325C209.727 15.1503 210.849 14.4034 212.084 13.8184C213.197 13.2731 214.466 13.0122 215.744 13.0659C216.801 13.0647 217.837 13.3259 218.728 13.8184C219.426 14.2336 219.968 14.8172 220.286 15.4966C220.599 16.2127 220.723 16.9803 220.649 17.7432C220.579 18.573 220.357 19.388 219.992 20.1576C219.621 20.9446 219.131 21.6856 218.534 22.3609C217.987 23.003 217.304 23.5487 216.52 23.9687ZM214.724 15.3071C213.891 15.1927 213.037 15.2964 212.272 15.6048C211.486 15.9266 210.783 16.3834 210.207 16.9474C209.568 17.5659 209.044 18.2673 208.656 19.0262C208.236 19.8237 207.928 20.6614 207.736 21.5218C208.124 21.8311 208.576 22.0736 209.069 22.2364C209.874 22.4737 210.739 22.5168 211.571 22.3609C212.195 22.2924 212.784 22.0749 213.273 21.7329C213.826 21.3663 214.316 20.9345 214.73 20.4499C215.147 19.964 215.496 19.437 215.769 18.88C216.028 18.3732 216.192 17.8342 216.257 17.283C216.319 16.8322 216.217 16.3758 215.963 15.9784C215.829 15.7932 215.648 15.6373 215.433 15.5227C215.218 15.4081 214.976 15.3381 214.724 15.3179V15.3071Z" fill="url(#paint7_linear_38_181)"/>
<path d="M246.65 21.9385C246.465 21.9815 246.302 22.0767 246.187 22.2092C245.987 22.4073 245.831 22.6346 245.724 22.8804C245.356 23.5947 244.938 24.289 244.472 24.9592C244.335 25.1595 244.197 25.3598 244.053 25.5601C243.649 26.1402 243.21 26.7021 242.74 27.2437C242.152 27.9172 241.486 28.5359 240.75 29.0897C240.258 29.5208 239.607 29.789 238.911 29.8476C238.391 29.8476 238.016 29.5499 237.791 28.9652C237.542 28.187 237.444 27.3783 237.503 26.5724C237.555 25.3822 237.71 24.197 237.966 23.0266C238.264 21.5646 238.659 20.1186 239.148 18.6958C239.68 17.1476 240.268 15.5723 240.938 14.0673L242.114 11.4093L242.79 9.8827C243.184 9.01113 243.559 8.22616 243.928 7.52241C242.521 6.28814 240.938 5.9525 238.998 7.52241C238.22 8.7712 237.541 10.0644 236.965 11.393C235.856 13.8924 234.965 16.4602 234.3 19.0748C233.986 20.3154 233.748 21.5695 233.587 22.8317C233.493 23.595 233.437 24.3259 233.424 25.0242V25.6251C233.371 27.2137 233.78 28.7885 234.613 30.2049C234.959 30.7532 235.478 31.2054 236.109 31.5091C236.74 31.8128 237.458 31.9556 238.179 31.921C239.26 31.8945 240.287 31.5064 241.044 30.8383C241.995 30.0676 242.835 29.2006 243.547 28.256C243.759 27.98 243.966 27.7147 244.172 27.4169C244.663 26.7171 245.107 25.9942 245.505 25.2516C246.034 24.2446 246.452 23.4471 246.756 22.8588C246.892 22.6336 246.959 22.3819 246.95 22.128C246.856 21.9872 246.775 21.9385 246.65 21.9385Z" fill="url(#paint8_linear_38_181)"/>
<path d="M234.337 21.9386C234.152 21.9816 233.989 22.0769 233.874 22.2093C233.677 22.4088 233.521 22.6358 233.411 22.8806C233.044 23.5949 232.626 24.2891 232.16 24.9594L231.747 25.5603C231.322 26.1395 230.871 26.7079 230.39 27.2493C229.799 27.9202 229.133 28.5386 228.4 29.0953C227.906 29.5268 227.253 29.7949 226.555 29.8532C226.035 29.8532 225.666 29.5554 225.441 28.9708C225.186 28.1935 225.087 27.3843 225.147 26.578C225.202 25.388 225.357 24.2029 225.61 23.0322C225.91 21.57 226.307 20.1241 226.799 18.7014C227.324 17.1531 227.912 15.5778 228.582 14.0729L229.758 11.4148L230.433 9.88823C230.826 9.01847 231.207 8.23172 231.578 7.52796C230.164 6.29369 228.588 5.95806 226.642 7.52796C225.868 8.77801 225.191 10.0711 224.615 11.3986C223.504 13.8979 222.612 16.4657 221.944 19.0803C221.63 20.321 221.392 21.575 221.231 22.8373C221.137 23.6006 221.087 24.3314 221.074 25.0297C221.074 25.2355 221.074 25.4358 221.074 25.6306C221.023 27.2198 221.434 28.7945 222.269 30.2104C222.614 30.7596 223.133 31.2125 223.764 31.5164C224.396 31.8202 225.114 31.9625 225.835 31.9265C226.914 31.8986 227.939 31.5107 228.694 30.8438C229.643 30.0716 230.483 29.2048 231.197 28.2616C231.409 27.9855 231.61 27.7202 231.822 27.4225C232.315 26.7239 232.76 26.0008 233.155 25.2571C233.685 24.2502 234.102 23.4526 234.406 22.8643C234.539 22.6382 234.606 22.3872 234.6 22.1335C234.55 21.9819 234.462 21.917 234.337 21.9386Z" fill="url(#paint9_linear_38_181)"/>
<path d="M266 22.1823C265.969 22.0307 265.9 21.9549 265.787 21.9549C265.675 21.9549 265.518 22.0361 265.324 22.2039C265.112 22.3979 264.947 22.626 264.836 22.8752C264.674 23.1856 264.367 23.7269 263.917 24.4992C263.429 25.3309 262.886 26.1371 262.29 26.9137C261.699 27.6888 261.024 28.4138 260.276 29.079C260.025 29.3461 259.716 29.5674 259.366 29.73C259.016 29.8927 258.632 29.9934 258.236 30.0264C258.097 30.0419 257.956 30.0299 257.823 29.9912C257.69 29.9526 257.569 29.8884 257.469 29.8034C257.369 29.7185 257.293 29.615 257.246 29.5008C257.199 29.3865 257.182 29.2645 257.197 29.144C257.203 28.4066 257.349 27.6749 257.629 26.9786C257.942 26.1413 258.332 25.2391 258.799 24.2719C259.262 23.3191 259.662 22.4638 259.988 21.7113C260.103 21.4854 260.144 21.2362 260.105 20.9915C260.067 20.7468 259.95 20.5161 259.769 20.3254C259.395 19.9321 258.897 19.6407 258.336 19.4864C257.774 19.3205 257.171 19.2905 256.591 19.3997C256.323 19.4421 256.073 19.5466 255.868 19.7019C255.663 19.8573 255.511 20.0578 255.427 20.2821L254.263 23.0214C253.779 24.1284 253.228 25.2126 252.612 26.2694C252.062 27.2303 251.395 28.1377 250.622 28.9762C249.909 29.7287 249.215 30.1076 248.533 30.1076C247.951 30.1076 247.563 29.7882 247.369 29.144C247.164 28.352 247.115 27.5357 247.225 26.7296C247.345 25.654 247.589 24.5914 247.951 23.5573C248.323 22.4358 248.82 21.348 249.434 20.3092C249.979 19.361 250.7 18.4962 251.567 17.7486C252.266 17.1041 253.201 16.689 254.213 16.5739C254.577 16.5222 254.951 16.5441 255.303 16.638C255.656 16.7319 255.979 16.8953 256.247 17.1153C256.475 17.3328 256.646 17.5908 256.747 17.8712C256.849 18.1517 256.879 18.4479 256.835 18.7393C257.6 18.8733 258.395 18.8015 259.112 18.5336C259.619 18.3179 260.029 17.9616 260.276 17.5213C260.502 17.1021 260.603 16.6405 260.57 16.1787C260.554 15.757 260.439 15.3426 260.232 14.9607C259.768 14.2055 258.997 13.6266 258.067 13.3366C256.943 12.9247 255.71 12.7862 254.501 12.936C252.754 13.0805 251.102 13.6894 249.771 14.6792C248.417 15.6849 247.283 16.8933 246.424 18.2467C245.533 19.639 244.888 21.1389 244.51 22.6965C244.276 23.6268 244.13 24.5718 244.072 25.5224C244.037 26.0435 244.037 26.5658 244.072 27.0869C244.072 27.1952 244.072 27.298 244.103 27.4009C244.194 28.4697 244.555 29.5083 245.161 30.4432C245.42 30.8616 245.805 31.2114 246.275 31.4554C246.745 31.6994 247.284 31.8286 247.832 31.8291C248.542 31.8618 249.25 31.7389 249.89 31.4718C250.54 31.1984 251.132 30.8324 251.642 30.3891C252.203 29.8958 252.683 29.3385 253.068 28.7326C253.498 28.0708 253.872 27.3833 254.188 26.6755C254.089 27.2524 254.047 27.8355 254.063 28.4186C254.072 28.9853 254.197 29.5462 254.432 30.0751C254.646 30.5665 255.004 31.0012 255.471 31.3365C256.022 31.6952 256.703 31.8736 257.391 31.8399C258.168 31.8394 258.927 31.6418 259.575 31.2715C260.277 30.8692 260.909 30.3826 261.452 29.8261C262.052 29.2173 262.588 28.5632 263.053 27.8718C263.535 27.1573 263.96 26.4643 264.305 25.7931C264.649 25.1218 264.93 24.5209 265.199 23.9904C265.468 23.4599 265.631 23.0809 265.756 22.8535C265.907 22.6536 265.992 22.4212 266 22.1823Z" fill="url(#paint10_linear_38_181)"/>
<path d="M215.587 8.64307C215.115 8.51879 214.623 8.46211 214.13 8.47525C213.642 8.47525 212.691 8.47524 211.264 8.43735L206.122 8.30743L204.426 8.22623C204.07 8.22623 203.732 8.22623 203.407 8.22623C203.081 8.22623 202.819 8.19375 202.506 8.1721H202.387C202.475 7.97949 202.542 7.78011 202.587 7.57661C201.179 6.34234 199.597 6.0067 197.657 7.57661C197.576 7.70112 197.501 7.83104 197.419 7.96096C195.017 7.84908 192.621 7.71737 190.231 7.56579C187.841 7.41421 185.587 7.23376 183.468 7.02444C182.43 6.91076 181.773 7.02444 181.504 7.39797C181.369 7.59005 181.31 7.81498 181.336 8.03867C181.362 8.26237 181.471 8.47264 181.648 8.63765C182.155 9.19957 182.812 9.64714 183.562 9.9423C184.603 10.3756 185.758 10.5624 186.909 10.4836L196.206 10.1913C196.012 10.5973 195.818 11.0142 195.624 11.4472C194.111 14.799 193.028 18.2846 192.396 21.8411C191.945 24.5479 191.62 27.7635 193.272 30.2591C193.634 30.8205 194.171 31.2821 194.823 31.5908C195.691 31.9293 196.648 32.0601 197.595 31.9697C198.494 31.9268 199.368 31.6946 200.141 31.2931C200.36 31.1787 200.569 31.0502 200.766 30.9087C201.826 30.1747 202.765 29.3186 203.557 28.3644C204.363 27.4178 205.077 26.4146 205.69 25.3653C206.291 24.344 206.737 23.5247 207.029 22.9076C207.165 22.6824 207.232 22.4307 207.223 22.1768C207.192 22.0198 207.117 21.9494 207.004 21.9656C206.823 22.0165 206.663 22.1103 206.541 22.2363C206.329 22.4292 206.165 22.6577 206.059 22.9076C205.676 23.6433 205.228 24.3527 204.72 25.0297C204.464 25.3815 204.201 25.728 203.92 26.0636C203.638 26.3993 203.407 26.6645 203.138 26.9569L202.731 27.3791C202.054 28.0804 201.281 28.7075 200.429 29.2468C199.793 29.7044 198.977 29.9314 198.151 29.8802H198.026H197.932C197.657 29.8106 197.404 29.6848 197.196 29.5134C196.988 29.3419 196.831 29.1298 196.737 28.8949C196.554 28.486 196.432 28.0584 196.375 27.6227C196.329 27.2632 196.306 26.9017 196.306 26.54C196.325 25.3769 196.463 24.2175 196.719 23.0754C196.944 21.9927 197.232 20.91 197.563 19.8273C197.895 18.7446 198.352 17.6619 198.771 16.5792C199.19 15.4965 199.653 14.4138 200.022 13.3311C200.391 12.2484 200.91 11.2848 201.373 10.2671C201.387 10.2277 201.416 10.1934 201.455 10.1697C201.492 10.15 201.536 10.1405 201.58 10.1426C203.557 10.1426 205.534 10.0181 207.511 9.96396L212.672 9.8232L214.092 9.7853C214.619 9.78274 215.142 9.71157 215.644 9.57418C215.969 9.4605 216.125 9.33598 216.107 9.19523C216.088 9.05448 215.944 8.75675 215.587 8.64307ZM184.726 8.9408C183.868 8.9408 183.168 8.75133 183.168 8.51855C183.168 8.28577 183.868 8.0963 184.726 8.0963C185.583 8.0963 186.29 8.28577 186.29 8.51855C186.29 8.75133 185.589 8.94622 184.726 8.94622V8.9408Z" fill="url(#paint11_linear_38_181)"/>
<path d="M49.9483 20.5039C49.7632 20.5494 49.6005 20.6464 49.4854 20.78C49.2853 20.9776 49.1284 21.2051 49.0224 21.4513C48.652 22.1645 48.2342 22.8586 47.7712 23.5301C47.6336 23.7304 47.4959 23.9307 47.352 24.1255C46.9347 24.7092 46.4816 25.273 45.9944 25.8145C45.4089 26.4909 44.742 27.1115 44.005 27.666C43.5209 28.0988 42.8766 28.3708 42.1844 28.4347C41.6651 28.4347 41.2898 28.1423 41.0645 27.5523C40.8115 26.7747 40.7141 25.9655 40.7768 25.1595C40.8301 23.9696 40.9827 22.7846 41.2335 21.6137C41.5366 20.1611 41.9335 18.7242 42.4221 17.31C42.9539 15.7617 43.542 14.1864 44.2114 12.676L45.3876 10.0234C45.6128 9.51455 45.8318 9.00028 46.0632 8.49141C46.4574 7.62526 46.8328 6.8403 47.2019 6.13655C45.7942 4.90227 44.2114 4.56664 42.272 6.13655C41.4935 7.38534 40.8142 8.67854 40.2387 10.0072C39.1299 12.5066 38.239 15.0743 37.5736 17.6889C37.2596 18.9277 37.0215 20.1799 36.8604 21.4404C36.7665 22.2092 36.7102 22.94 36.6977 23.6329V24.2392C36.6453 25.8261 37.054 27.3989 37.8864 28.8136C38.2325 29.3625 38.751 29.8154 39.3821 30.1201C40.0131 30.4247 40.7309 30.5686 41.4524 30.5351C42.5339 30.5103 43.5617 30.1219 44.3178 29.4524C45.2687 28.6837 46.1089 27.8185 46.8202 26.8756C47.033 26.5941 47.2394 26.3342 47.4459 26.0365C47.9353 25.3372 48.3781 24.6142 48.7722 23.8711C49.3102 22.8642 49.7231 22.063 50.0234 21.4783C50.1599 21.2514 50.2266 20.9979 50.2174 20.7421C50.1548 20.5635 50.0484 20.4931 49.9483 20.5039Z" fill="url(#paint12_linear_38_181)"/>
<defs>
<linearGradient id="paint0_linear_38_181" x1="-27.0781" y1="-63.6593" x2="43.6219" y2="109.12" gradientUnits="userSpaceOnUse">
<stop stop-color="#FFF8A1"/>
<stop offset="1" stop-color="#866D48"/>
</linearGradient>
<linearGradient id="paint1_linear_38_181" x1="66.2083" y1="-101.83" x2="136.908" y2="70.9448" gradientUnits="userSpaceOnUse">
<stop stop-color="#FFF8A1"/>
<stop offset="1" stop-color="#866D48"/>
</linearGradient>
<linearGradient id="paint2_linear_38_181" x1="4.29686" y1="-76.5001" x2="74.9969" y2="96.2797" gradientUnits="userSpaceOnUse">
<stop stop-color="#FFF8A1"/>
<stop offset="1" stop-color="#866D48"/>
</linearGradient>
<linearGradient id="paint3_linear_38_181" x1="19.9687" y1="-82.9097" x2="90.6689" y2="89.8649" gradientUnits="userSpaceOnUse">
<stop stop-color="#FFF8A1"/>
<stop offset="1" stop-color="#866D48"/>
</linearGradient>
<linearGradient id="paint4_linear_38_181" x1="35.2212" y1="-89.1514" x2="105.921" y2="83.6232" gradientUnits="userSpaceOnUse">
<stop stop-color="#FFF8A1"/>
<stop offset="1" stop-color="#866D48"/>
</linearGradient>
<linearGradient id="paint5_linear_38_181" x1="89.1747" y1="-111.228" x2="159.875" y2="61.5521" gradientUnits="userSpaceOnUse">
<stop stop-color="#FFF8A1"/>
<stop offset="1" stop-color="#866D48"/>
</linearGradient>
<linearGradient id="paint6_linear_38_181" x1="103.983" y1="-117.291" x2="174.683" y2="55.4892" gradientUnits="userSpaceOnUse">
<stop stop-color="#FFF8A1"/>
<stop offset="1" stop-color="#866D48"/>
</linearGradient>
<linearGradient id="paint7_linear_38_181" x1="130.284" y1="-128.053" x2="200.984" y2="44.7271" gradientUnits="userSpaceOnUse">
<stop stop-color="#FFF8A1"/>
<stop offset="1" stop-color="#866D48"/>
</linearGradient>
<linearGradient id="paint8_linear_38_181" x1="153.701" y1="-137.635" x2="224.401" y2="35.1452" gradientUnits="userSpaceOnUse">
<stop stop-color="#FFF8A1"/>
<stop offset="1" stop-color="#866D48"/>
</linearGradient>
<linearGradient id="paint9_linear_38_181" x1="143.635" y1="-133.515" x2="214.335" y2="39.2649" gradientUnits="userSpaceOnUse">
<stop stop-color="#FFF8A1"/>
<stop offset="1" stop-color="#866D48"/>
</linearGradient>
<linearGradient id="paint10_linear_38_181" x1="163.736" y1="-141.743" x2="234.436" y2="31.0365" gradientUnits="userSpaceOnUse">
<stop stop-color="#FFF8A1"/>
<stop offset="1" stop-color="#866D48"/>
</linearGradient>
<linearGradient id="paint11_linear_38_181" x1="125.148" y1="-125.947" x2="195.848" y2="46.8329" gradientUnits="userSpaceOnUse">
<stop stop-color="#FFF8A1"/>
<stop offset="1" stop-color="#866D48"/>
</linearGradient>
<linearGradient id="paint12_linear_38_181" x1="-6.42002" y1="-72.1153" x2="64.2801" y2="100.664" gradientUnits="userSpaceOnUse">
<stop stop-color="#FFF8A1"/>
<stop offset="1" stop-color="#866D48"/>
</linearGradient>
</defs>
</svg>
