<svg width="309" height="601" viewBox="0 0 309 601" fill="none" xmlns="http://www.w3.org/2000/svg">
<path d="M99.2156 262.55C92.7156 262.08 86.5956 261.69 80.4756 261.15C78.5056 260.98 76.5256 260.54 74.6156 260.01C65.0756 257.35 60.2656 251.58 60.2456 241.59C60.2256 233.62 60.5456 225.57 61.6656 217.69C64.0356 200.89 67.0356 184.19 69.7156 167.44C69.9156 166.17 69.9656 164.72 69.5456 163.54C66.2056 154.15 69.5356 146.44 75.9056 139.87C79.3456 136.32 83.4356 133.27 87.6456 130.66C93.1456 127.24 99.0656 124.49 104.796 121.42C107.726 119.85 110.706 118.33 113.516 116.55C116.776 114.49 117.156 112.33 115.196 108.95C114.866 108.38 114.456 107.84 114.056 107.31C99.4156 88.3502 96.6556 67.1002 102.086 44.3602C104.356 34.8702 108.706 26.2502 114.116 18.1502C122.766 5.20015 135.236 -0.269799 150.396 0.0102013C167.516 0.330201 179.266 9.89019 188.446 23.2502C193.126 30.0702 195.606 37.8702 197.066 45.9802C199.276 58.2302 199.496 70.4702 196.876 82.7002C195.076 91.1102 191.746 98.8602 187.046 106.04C183.966 110.75 184.386 112.41 189.686 114.71C196.916 117.85 203.816 121.6 209.656 126.88C213.966 130.76 217.926 135.08 221.666 139.52C224.876 143.33 226.626 147.75 224.906 152.98C224.476 154.3 224.796 155.95 225.056 157.41C227.846 173.18 229.586 189.07 229.646 205.08C229.696 218.22 229.366 231.38 228.546 244.49C227.756 257.23 224.626 260.35 212.006 263.31C208.926 264.03 205.796 264.52 202.706 265.17C200.786 265.57 198.896 266.08 197.176 266.49C197.036 267.28 196.836 267.65 196.946 267.91C206.086 289.94 212.876 312.77 220.136 335.44C229.076 363.36 237.436 391.43 243.136 420.24C246.956 439.53 250.216 458.89 251.666 478.52C253.096 497.88 258.366 516.09 267.466 533.32C273.786 545.29 278.346 558.02 280.386 571.51C280.636 573.15 280.886 574.82 280.866 576.47C280.806 580.93 278.436 583.4 273.956 583.02C269.166 582.62 264.446 581.43 259.666 580.85C238.976 578.35 218.786 579.62 199.656 588.94C193.976 591.71 188.166 594.27 182.276 596.56C169.876 601.39 157.326 601.86 144.666 597.34C132.906 593.15 120.816 589.75 109.406 584.79C95.2456 578.63 81.6356 579.08 67.8356 585.07C64.1756 586.66 60.6356 588.53 57.0256 590.23C50.6356 593.24 44.1156 595.63 36.8456 594.09C31.2956 592.91 28.4056 589.25 28.2556 583.55C28.1456 579.19 29.6756 575.4 31.7956 571.76C32.7956 570.04 33.8956 568.34 35.1856 566.82C45.9056 554.15 50.4656 538.93 53.0756 523C55.4456 508.51 55.8056 493.86 56.2756 479.21C56.8056 462.91 57.8956 446.62 58.8656 430.34C59.4956 419.7 60.2256 409.07 61.1256 398.45C63.8256 366.37 67.9456 334.54 79.0456 304.05C83.6256 291.49 89.3656 279.49 96.6156 268.24C97.4256 266.98 98.1656 265.68 98.8756 264.36C99.0956 263.95 99.0756 263.42 99.2456 262.53L99.2156 262.55ZM121.456 260.08C117.566 260.51 114.086 260.72 110.706 261.38C109.666 261.58 108.596 262.85 107.976 263.88C105.756 267.59 103.756 271.43 101.606 275.19C98.6356 280.39 95.2456 285.39 92.6756 290.78C80.7556 315.72 75.0756 342.39 71.6256 369.59C69.7856 384.12 68.4256 398.72 67.3056 413.33C65.8356 432.42 64.6356 451.55 63.6756 470.67C62.7456 489.13 62.9356 507.66 59.5556 525.93C56.5456 542.19 51.3956 557.51 40.1256 570.21C37.9656 572.65 36.2756 575.69 35.0456 578.73C32.9456 583.96 34.5656 586.48 40.0656 587.66C44.5856 588.63 48.6356 587.12 52.5856 585.26C58.0056 582.71 63.3256 579.92 68.8056 577.51C81.8756 571.75 95.0856 571.1 108.656 576.1C122.556 581.22 136.616 585.92 150.636 590.71C156.526 592.73 162.556 593.59 168.826 592.49C176.796 591.09 184.046 587.79 191.426 584.7C199.396 581.36 207.406 577.86 215.716 575.63C232.746 571.07 250.006 571.58 267.196 575.22C269.206 575.65 271.266 575.84 274.086 576.25C273.506 572.83 273.156 570.25 272.606 567.72C269.816 554.79 264.656 542.67 259.446 530.61C252.326 514.13 247.676 497.12 246.116 479.15C244.126 456.23 239.676 433.68 234.436 411.3C223.196 363.35 206.946 317.03 188.996 271.26C188.466 269.9 187.756 268.6 187.036 267.08C165.456 268.04 144.046 268.88 122.436 267.08C122.106 264.77 121.826 262.83 121.436 260.08H121.456ZM76.9356 160.33C80.5856 162.06 84.4756 161.63 88.2356 161.58C97.7456 161.44 107.286 161.49 116.596 163.48C124.226 165.11 131.646 167.72 139.196 169.75C157.686 174.74 175.816 173.5 193.546 166.36C201.006 163.36 207.976 159.45 214.266 154.43C218.666 150.92 218.846 148.35 215.446 143.88C209.716 136.35 202.786 130.2 194.406 125.76C191.466 124.2 188.416 122.84 185.466 121.3C176.446 116.59 174.856 110.66 180.166 102.1C181.916 99.2702 183.736 96.4402 185.046 93.4002C193.346 74.0402 192.956 54.4502 185.676 34.9702C182.196 25.6602 175.686 18.5702 167.356 13.1002C153.476 3.98017 131.126 6.36017 120.806 22.3502C118.376 26.1202 115.886 29.9302 114.086 34.0202C103.746 57.5102 104.186 80.2302 119.486 101.73C120.826 103.62 122.096 105.63 123.006 107.75C125.466 113.49 124.056 118.65 118.966 122.25C116.396 124.07 113.576 125.55 110.786 127.04C104.466 130.41 97.9856 133.49 91.7956 137.08C88.2256 139.15 84.8756 141.73 81.8056 144.5C77.3356 148.53 75.0356 153.54 76.9456 160.33H76.9356ZM193.136 175.67C190.596 176.29 188.716 176.72 186.856 177.22C174.856 180.47 162.686 182.27 150.306 180.15C143.766 179.03 137.316 177.27 130.876 175.63C124.756 174.07 118.746 171.99 112.576 170.67C107.956 169.69 103.206 168.6 97.7456 169.61C103.966 187.78 105.726 206.48 108.256 225.41C110.276 225.41 111.916 225.5 113.536 225.4C130.646 224.3 147.756 223.27 164.846 221.94C168.216 221.68 170.976 221.57 173.316 224.47C174.006 225.32 175.646 225.88 176.796 225.81C180.946 225.53 185.066 224.92 189.206 224.45C191.276 224.21 192.046 222.98 191.916 221.01C191.816 219.51 191.676 218.02 191.686 216.52C191.736 206.38 191.726 196.24 191.936 186.1C192.006 182.84 192.656 179.6 193.126 175.67H193.136ZM218.086 161.9C214.026 164.43 210.826 166.86 207.266 168.52C203.636 170.21 202.316 172.94 201.466 176.55C198.526 189.01 198.166 201.58 199.236 214.26C199.486 217.24 199.656 220.24 199.646 223.23C199.636 226.95 197.616 229.53 194.306 230.96C192.656 231.67 190.816 232.05 189.016 232.31C171.366 234.91 153.586 235.71 135.776 236.23C133.186 236.31 130.606 236.52 127.466 236.7C128.286 244.67 129.046 252.03 129.826 259.57C132.576 259.79 134.716 260.16 136.856 260.1C156.976 259.52 177.096 258.95 197.206 258.18C203.696 257.93 210.126 257.01 216.106 254.11C218.386 253 219.896 251.55 220.156 248.92C220.736 243.13 221.726 237.37 221.976 231.57C222.776 212.42 221.996 193.3 219.886 174.25C219.456 170.34 218.766 166.46 218.096 161.91L218.086 161.9ZM77.1656 168.68C76.6056 171.03 76.0556 172.93 75.6956 174.86C74.4456 181.57 73.1456 188.26 72.0856 195C69.8156 209.47 67.5056 223.94 67.5156 238.65C67.5256 249.14 70.1756 252.26 80.4656 254.01C81.7756 254.23 83.1056 254.44 84.4356 254.44C90.7556 254.44 97.1056 254.66 103.406 254.26C109.146 253.9 114.836 252.86 120.966 252.06C120.346 245.38 120.356 239.32 118.716 233.11C112.646 233.11 107.006 233.22 101.366 233.06C98.5556 232.98 95.7456 232.52 92.9656 232.07C89.8356 231.56 87.5756 228.76 88.7556 225.46C89.2556 224.06 89.4456 222.55 89.8456 221.11C91.3956 215.5 93.1156 209.93 94.4756 204.27C95.2856 200.9 96.2056 197.34 95.9056 193.96C95.1556 185.49 92.5356 177.42 89.4056 169.3C85.4156 169.09 81.6456 168.89 77.1756 168.66L77.1656 168.68ZM99.8356 225.24C100.106 222.92 100.406 221.14 99.1356 219.19C97.5356 222.257 97.7689 224.274 99.8356 225.24Z" fill="url(#paint0_linear_451_478)"/>
<path d="M284.926 342.439C281.416 342.009 278.456 341.769 275.536 341.269C273.216 340.869 270.496 340.139 270.496 337.339C270.496 334.539 273.246 333.809 275.536 333.359C278.446 332.789 281.416 332.539 284.906 332.079C284.906 330.519 284.736 328.889 284.946 327.309C285.266 324.859 285.566 322.329 286.436 320.039C286.866 318.889 288.516 317.519 289.636 317.499C290.746 317.479 292.416 318.789 292.916 319.919C293.836 321.999 294.216 324.359 294.546 326.649C294.786 328.279 294.596 329.969 294.596 332.269C296.126 332.369 297.716 332.349 299.256 332.619C301.686 333.059 304.246 333.339 306.466 334.339C309.646 335.769 309.686 338.999 306.476 340.279C303.776 341.359 300.686 341.459 297.756 341.949C296.946 342.089 296.106 342.079 294.606 342.189C294.606 343.819 294.806 345.429 294.566 346.969C294.116 349.729 293.826 352.639 292.696 355.139C291.296 358.229 288.086 358.129 286.626 355.029C285.666 352.979 285.306 350.589 284.976 348.309C284.716 346.529 284.926 344.689 284.926 342.449V342.439Z" fill="url(#paint1_linear_451_478)"/>
<path d="M24.0559 480.169C26.9359 480.399 29.6059 480.369 32.1459 480.889C34.6759 481.409 37.6459 481.859 38.2059 485.159C38.5359 487.109 36.4559 488.579 32.2459 489.329C29.6659 489.789 27.0259 489.889 23.7759 490.209C23.7759 492.299 23.9959 494.429 23.7159 496.499C23.4159 498.759 23.0258 501.149 22.0058 503.149C20.5658 505.979 17.6459 505.989 16.2159 503.169C15.1959 501.159 14.8058 498.769 14.4758 496.509C14.1958 494.579 14.4158 492.569 14.4158 490.319C11.1858 489.939 8.27587 489.649 5.37587 489.219C3.02587 488.869 0.665861 488.249 0.0558613 485.499C-0.364139 483.599 1.60585 481.809 5.23585 481.089C8.12585 480.519 11.1058 480.419 14.1358 480.099C14.3558 476.979 14.3859 474.009 14.8059 471.099C15.3659 467.169 17.0059 465.149 19.1259 465.209C21.1559 465.269 23.0559 467.579 23.5259 471.159C23.9059 474.069 23.8859 477.039 24.0459 480.169H24.0559Z" fill="url(#paint2_linear_451_478)"/>
<path d="M43.2257 74.94C40.1857 74.66 37.5657 74.5 34.9557 74.16C31.2457 73.68 28.7657 72.06 28.6757 70.21C28.5957 68.38 31.1257 66.42 34.6157 65.74C35.9157 65.49 37.2557 65.43 38.5757 65.36C39.8857 65.3 41.2057 65.35 42.9657 65.35C43.0657 63.87 43.0557 62.61 43.2657 61.39C43.7757 58.32 43.9157 55.07 45.0657 52.24C46.3357 49.11 49.5457 49.16 51.0857 52.2C52.0257 54.06 52.4157 56.28 52.6757 58.38C52.9357 60.47 52.7357 62.62 52.7357 65.11C54.9557 65.23 56.7357 65.26 58.4957 65.43C59.9757 65.58 61.4857 65.72 62.8857 66.17C64.9357 66.83 67.3557 67.62 67.1157 70.32C66.8857 72.9 64.4257 73.45 62.3457 73.96C60.9057 74.31 59.3857 74.36 57.9057 74.48C56.4357 74.6 54.9557 74.65 52.9857 74.75C52.9057 76.88 52.9757 78.82 52.7157 80.73C52.4057 83 52.1057 85.36 51.2257 87.45C50.7557 88.58 49.0757 89.91 47.9857 89.88C46.8657 89.85 45.2057 88.45 44.8257 87.31C43.9557 84.68 43.6557 81.84 43.2557 79.07C43.0757 77.81 43.2257 76.5 43.2257 74.94Z" fill="url(#paint3_linear_451_478)"/>
<path d="M251.376 71.9299C255.006 73.8899 253.466 77.45 254.686 80.39C255.736 80.61 257.076 80.6799 258.226 81.1799C259.466 81.7199 261.396 82.58 261.486 83.45C261.686 85.53 259.596 85.74 257.976 86.02C256.866 86.21 255.756 86.3499 254.746 86.4999C253.326 89.3799 255.196 93.2699 251.446 95.0399C247.666 93.2799 249.456 89.4199 248.266 86.6499C245.866 85.4699 242.436 86.8099 240.716 83.6199C242.106 80.0199 246.106 81.9699 248.416 80.0499C249.336 77.5199 247.886 74.0199 251.376 71.9199V71.9299Z" fill="url(#paint4_linear_451_478)"/>
<defs>
<linearGradient id="paint0_linear_451_478" x1="154.558" y1="0" x2="154.558" y2="600.472" gradientUnits="userSpaceOnUse">
<stop stop-color="#E0D2A9"/>
<stop offset="1" stop-color="#B5986A"/>
</linearGradient>
<linearGradient id="paint1_linear_451_478" x1="289.681" y1="317.499" x2="289.681" y2="357.406" gradientUnits="userSpaceOnUse">
<stop stop-color="#E0D2A9"/>
<stop offset="1" stop-color="#B5986A"/>
</linearGradient>
<linearGradient id="paint2_linear_451_478" x1="19.1199" y1="465.208" x2="19.1199" y2="505.278" gradientUnits="userSpaceOnUse">
<stop stop-color="#E0D2A9"/>
<stop offset="1" stop-color="#B5986A"/>
</linearGradient>
<linearGradient id="paint3_linear_451_478" x1="47.903" y1="49.9062" x2="47.903" y2="89.8805" gradientUnits="userSpaceOnUse">
<stop stop-color="#E0D2A9"/>
<stop offset="1" stop-color="#B5986A"/>
</linearGradient>
<linearGradient id="paint4_linear_451_478" x1="251.108" y1="71.9199" x2="251.108" y2="95.0399" gradientUnits="userSpaceOnUse">
<stop stop-color="#E0D2A9"/>
<stop offset="1" stop-color="#B5986A"/>
</linearGradient>
</defs>
</svg>
