<svg width="429" height="527" viewBox="0 0 429 527" fill="none" xmlns="http://www.w3.org/2000/svg">
<path d="M341.936 388.898H137.935L75.1062 102.067H39.62C37.599 102.067 35.6609 100.957 34.2318 98.9816C32.8028 97.0062 32 94.327 32 91.5334C32 88.7397 32.8028 86.0605 34.2318 84.0851C35.6609 82.1098 37.599 81 39.62 81H86.4155L149.23 367.822H331.144L381.753 170.004C382.052 168.642 382.547 167.377 383.21 166.286C383.872 165.195 384.688 164.302 385.607 163.659C386.527 163.017 387.531 162.639 388.559 162.548C389.587 162.457 390.618 162.655 391.589 163.131C392.56 163.606 393.451 164.349 394.209 165.314C394.967 166.279 395.575 167.446 395.997 168.746C396.419 170.045 396.646 171.449 396.664 172.873C396.682 174.297 396.491 175.711 396.103 177.03L341.936 388.898Z" fill="url(#paint0_linear_1546_390)"/>
<path d="M359.99 181.424L319.621 342.818H162.498L127.922 181.424H359.99ZM370.871 170.71H117.544L156.712 353.533H325.138L370.871 170.71Z" fill="url(#paint1_linear_1546_390)"/>
<path d="M312.566 427.028C312.566 430.838 313.384 434.563 314.915 437.731C316.447 440.899 318.623 443.368 321.17 444.826C323.716 446.284 326.518 446.666 329.222 445.923C331.925 445.179 334.409 443.344 336.358 440.65C338.307 437.956 339.634 434.523 340.172 430.786C340.71 427.049 340.434 423.176 339.379 419.655C338.324 416.135 336.538 413.126 334.246 411.009C331.954 408.893 329.259 407.763 326.503 407.763C322.807 407.763 319.262 409.792 316.648 413.405C314.035 417.018 312.566 421.918 312.566 427.028Z" fill="url(#paint2_linear_1546_390)"/>
<path d="M147.975 427.028C147.974 430.84 148.79 434.568 150.322 437.739C151.853 440.91 154.03 443.382 156.578 444.842C159.126 446.302 161.929 446.685 164.635 445.943C167.34 445.2 169.825 443.365 171.776 440.67C173.726 437.975 175.055 434.54 175.594 430.801C176.132 427.062 175.857 423.186 174.801 419.663C173.746 416.141 171.959 413.13 169.666 411.012C167.373 408.893 164.677 407.763 161.919 407.763C160.088 407.761 158.275 408.259 156.583 409.226C154.892 410.194 153.354 411.613 152.059 413.402C150.765 415.191 149.737 417.315 149.037 419.653C148.336 421.991 147.975 424.497 147.975 427.028Z" fill="url(#paint3_linear_1546_390)"/>
<path d="M388.938 153.446H117.544C115.561 153.364 113.68 152.218 112.299 150.25C110.918 148.283 110.146 145.649 110.146 142.908C110.146 140.167 110.918 137.534 112.299 135.566C113.68 133.599 115.561 132.453 117.544 132.37H388.938C390.92 132.453 392.802 133.599 394.183 135.566C395.564 137.534 396.336 140.167 396.336 142.908C396.336 145.649 395.564 148.283 394.183 150.25C392.802 152.218 390.92 153.364 388.938 153.446Z" fill="url(#paint4_linear_1546_390)"/>
<path d="M174.904 274.575C176.623 277.568 178.771 280.038 181.213 281.829C184.376 284.085 187.626 286.096 190.95 287.854C194.564 289.919 197.412 291.702 199.494 293.201C201.477 294.6 203.251 296.505 204.721 298.816C206.132 301.099 206.881 304.022 206.825 307.023C206.825 312.203 205.002 317.125 201.356 321.789C197.291 326.795 192.55 330.641 187.406 333.104C181.965 335.925 176.205 337.387 170.394 337.422C164.937 337.422 160.487 336.151 157.043 333.609C153.6 331.067 151.094 327.988 149.527 324.372C148.068 321.238 147.258 317.612 147.182 313.887C147.144 312.335 147.381 310.794 147.872 309.397C148.028 308.891 148.287 308.458 148.618 308.15C148.948 307.842 149.335 307.673 149.734 307.662C149.734 309.626 150.478 311.723 151.961 313.972C153.444 316.222 155.974 318.148 159.546 319.759C163.118 321.37 167.821 322.17 173.676 322.17C178.31 322.231 182.935 321.592 187.468 320.264C191.605 318.993 194.851 317.236 197.205 314.992C199.559 312.749 200.742 310.245 200.756 307.481C200.771 306.503 200.595 305.537 200.245 304.686C199.895 303.835 199.386 303.131 198.77 302.648C196.373 300.84 193.873 299.307 191.295 298.063C186.082 295.298 181.993 292.938 179.027 290.98C172.931 286.951 168.481 282.747 165.677 278.369C162.873 273.99 161.47 268.29 161.47 261.268C161.47 250.903 164.277 240.255 169.89 229.324C175.382 218.541 182.272 209.258 190.212 201.947C198.147 194.639 205.16 190.982 211.252 190.975C214.591 190.956 217.875 192.149 220.775 194.436C223.608 196.584 226.03 199.632 227.843 203.329C229.525 206.58 230.456 210.458 230.512 214.454C230.512 219.754 228.809 226.261 225.402 233.976C222.125 241.474 218.029 248.227 213.259 253.994C208.569 259.638 204.462 262.459 200.936 262.459C200.012 262.53 199.092 262.232 198.288 261.601C197.998 261.377 197.757 261.051 197.588 260.655C197.42 260.26 197.331 259.81 197.329 259.352C199.894 259.352 203.101 256.762 206.949 251.583C210.906 246.199 214.287 240.061 216.989 233.357C219.83 226.398 221.253 220.555 221.258 215.826C221.307 214.639 221.178 213.451 220.877 212.337C220.577 211.222 220.113 210.207 219.513 209.354C218.348 207.8 216.569 207.018 214.162 207.018C209.105 207.018 203.253 210.129 196.605 216.351C189.995 222.508 184.199 230.189 179.469 239.057C174.697 247.954 172.311 256.101 172.311 263.498C172.218 267.495 173.134 271.411 174.904 274.575Z" fill="url(#paint5_linear_1546_390)"/>
<path d="M263.819 261.163C261.254 268.598 258.769 276.802 256.365 285.776C253.96 294.749 252.597 300.621 252.275 303.392C255.563 300.398 259.109 295.708 262.916 289.322C266.754 282.869 270.176 275.963 273.142 268.684C275.835 262.371 277.878 255.569 279.211 248.475C279.55 248.461 279.885 248.584 280.174 248.83C280.463 249.075 280.694 249.433 280.838 249.857C281.23 250.986 281.415 252.23 281.376 253.48C281.376 258.437 279.473 265.662 275.666 275.157C272.036 284.308 267.658 292.854 262.619 300.627C257.728 308.12 253.76 311.863 250.717 311.856C249.442 311.781 248.193 311.34 247.048 310.56C245.634 309.687 244.379 308.383 243.38 306.747C242.313 304.982 241.755 302.735 241.814 300.437C241.814 298.136 242.336 294.625 243.38 289.903C239.168 297.513 234.524 304.647 229.491 311.237C225.046 316.956 221.699 319.816 219.451 319.816C218.147 319.702 216.885 319.135 215.782 318.167C214.223 316.853 212.955 314.974 212.114 312.733C211.003 309.763 210.466 306.447 210.555 303.106C210.555 294.933 212.718 285.147 217.044 273.746C221.148 262.765 226.553 252.812 233.036 244.3C239.366 236.039 245.38 231.908 251.076 231.908C252.884 231.852 254.677 232.384 256.31 233.462C257.608 234.302 258.778 235.476 259.758 236.922C260.564 238.19 260.964 239.162 260.964 239.858C260.964 239.972 260.882 240.029 260.723 240.029C254.627 240.029 248.554 244.087 242.504 252.202C236.261 260.666 231.074 270.5 227.154 281.305C222.979 292.591 220.534 302.378 219.816 310.665C223.738 306.178 228.848 299.013 235.146 289.169C241.444 279.325 246.756 270.257 251.082 261.964C254.843 250.563 257.44 244.862 258.875 244.862C260.289 244.924 261.687 245.304 263.012 245.987C264.469 246.676 265.894 247.484 267.281 248.408C268.564 249.266 269.205 249.819 269.205 250.048C268.184 250.048 266.389 253.753 263.819 261.163Z" fill="url(#paint6_linear_1546_390)"/>
<path d="M284.445 294.431C288.757 286.89 292.635 278.893 296.044 270.514C299.492 262.049 301.737 254.709 302.781 248.494C303.119 248.482 303.453 248.606 303.74 248.851C304.028 249.097 304.258 249.453 304.402 249.876C304.799 251.002 304.987 252.247 304.946 253.499C304.946 258.913 302.781 267.003 298.45 277.768C294.32 288.156 289.423 297.925 283.838 306.919C278.432 315.555 274.163 319.873 271.032 319.873C268.467 319.873 266.525 318.895 265.205 316.937C263.88 314.973 263.167 312.368 263.219 309.683C263.219 303.925 265.585 292.21 270.315 274.537C275.046 256.864 280.135 239.851 285.583 223.5C291.035 207.149 294.283 198.973 295.327 198.973C296.783 199.038 298.223 199.414 299.595 200.088C301.119 200.777 302.605 201.614 304.043 202.595C304.748 203.001 305.414 203.523 306.029 204.149C305.137 204.149 302.271 211.375 297.43 225.826C292.589 240.277 287.638 256.187 282.576 273.555C277.519 290.942 274.234 303.436 272.722 311.037C276.248 307.452 280.156 301.917 284.445 294.431Z" fill="url(#paint7_linear_1546_390)"/>
<path d="M315.711 300.475C323.109 293.266 329.78 284.73 335.55 275.09C341.527 265.183 345.154 256.318 346.432 248.495C347.871 248.495 348.59 250.334 348.59 254.014C348.59 261.392 345.667 270.318 339.819 280.791C333.992 291.229 327.106 300.45 319.373 308.168C311.599 315.94 305.185 319.826 300.133 319.826C294.92 319.826 290.932 318.237 288.169 315.06C285.406 311.882 284.027 307.25 284.031 301.161C284.031 293.097 286.134 283.511 290.341 272.402C294.326 261.7 299.59 252.006 305.912 243.728C312.086 235.734 317.977 231.733 323.586 231.727C324.99 231.645 326.391 231.972 327.697 232.687C329.004 233.401 330.188 234.487 331.171 235.874C332.478 236.944 333.542 238.499 334.24 240.363C335.137 242.763 335.572 245.442 335.502 248.142C335.502 253.55 334.123 259.219 331.365 265.148C328.682 270.959 325.237 276.025 321.207 280.085C317.193 284.114 313.465 286.132 310.022 286.138C308.167 286.112 306.331 285.611 304.608 284.661C303.026 283.966 301.666 282.534 300.761 280.609C299.123 285.138 297.756 289.844 296.671 294.679C295.831 298.17 295.346 301.805 295.23 305.48C295.178 306.883 295.387 308.281 295.837 309.54C296.005 309.997 296.263 310.377 296.582 310.637C296.901 310.897 297.267 311.026 297.637 311.008C302.432 311.015 308.456 307.504 315.711 300.475ZM312.339 270.858C315.926 267.322 318.988 262.866 321.359 257.732C323.723 252.951 325.265 247.486 325.869 241.755C321.538 244.062 317.35 248.323 313.304 254.538C309.102 261.049 305.487 268.242 302.54 275.958C305.611 275.958 308.877 274.258 312.339 270.858Z" fill="url(#paint8_linear_1546_390)"/>
<path d="M372.655 412.276C369.886 412.063 367.655 411.985 365.451 411.685C364.287 411.52 363.041 411.181 362.082 410.503C361.169 409.863 359.923 408.613 360.004 407.77C360.12 406.598 361.142 404.989 362.136 404.572C364.313 403.661 366.715 403.313 369.035 402.867C370.155 402.654 371.329 402.731 372.861 402.654C372.861 400.347 372.682 398.264 372.915 396.229C373.148 394.185 373.47 392.024 374.313 390.221C375.692 387.266 378.569 387.237 379.724 390.27C380.719 392.876 380.898 395.861 381.31 398.7C381.489 399.911 381.337 401.171 381.337 402.848C382.968 402.848 384.285 402.712 385.575 402.877C387.34 403.109 389.222 403.235 390.781 404.03C392.116 404.708 393.791 406.103 394.024 407.45C394.418 409.708 392.358 410.687 390.566 411.065C387.672 411.685 384.733 412.034 381.525 412.538C381.445 413.526 381.364 414.601 381.283 415.677C381.149 417.605 381.158 419.553 380.853 421.443C380.325 424.805 378.891 426.704 377.09 426.791C375.173 426.879 373.632 424.805 373.085 421.191C372.87 419.766 372.888 418.303 372.816 416.859C372.745 415.444 372.7 414.02 372.628 412.276H372.655Z" fill="#E9DDB6"/>
<path d="M70.6488 53.5845C68.3191 53.4301 66.4418 53.3739 64.5871 53.1563C63.607 53.037 62.559 52.7913 61.7523 52.3C60.9833 51.8367 59.9353 50.9313 60.0031 50.3206C60.1011 49.4713 60.9606 48.3061 61.7975 48.0043C63.6296 47.3445 65.6502 47.0918 67.6029 46.7689C68.5453 46.6145 69.533 46.6707 70.8222 46.6145C70.8222 44.944 70.6714 43.4349 70.8674 41.9609C71.0635 40.4799 71.3349 38.9147 72.0436 37.6091C73.2046 35.4683 75.6248 35.4472 76.5973 37.6442C77.4342 39.5323 77.585 41.6942 77.9318 43.7508C78.0826 44.6282 77.9544 45.5407 77.9544 46.755C79.3266 46.755 80.4349 46.6566 81.5206 46.776C83.0059 46.9444 84.5891 47.0357 85.901 47.6113C87.0244 48.1026 88.4342 49.1134 88.6302 50.089C88.962 51.7245 87.2279 52.4334 85.72 52.7071C83.2848 53.1563 80.8119 53.409 78.1128 53.774C78.0449 54.49 77.9771 55.2691 77.9092 56.0482C77.7961 57.445 77.8037 58.8558 77.5473 60.2245C77.1025 62.6601 75.8962 64.0358 74.3808 64.099C72.7673 64.1622 71.4706 62.6601 71.0107 60.042C70.8297 59.0102 70.8448 57.9503 70.7845 56.9045C70.7242 55.8797 70.6865 54.8479 70.6262 53.5845H70.6488Z" fill="#E9DDB6"/>
<path d="M93.2183 380.981C90.7809 382.409 88.8495 383.618 86.8637 384.675C85.8123 385.23 84.6315 385.723 83.578 385.846C82.5761 385.968 81.0796 385.901 80.8562 385.338C80.5492 384.552 80.8636 382.988 81.5682 382.172C83.1111 380.386 85.0401 378.819 86.8666 377.238C87.7488 376.476 88.7777 375.863 90.0588 374.952C89.2593 373.535 88.3842 372.356 87.8777 370.974C87.3678 369.586 86.8942 368.077 86.9884 366.495C87.1418 363.902 89.587 362.264 91.625 363.477C93.3776 364.518 94.5651 366.251 95.9012 367.764C96.474 368.407 96.7806 369.267 97.3617 370.297C98.7538 369.379 99.8311 368.553 100.99 367.928C102.577 367.077 104.227 366.094 105.833 365.705C107.208 365.369 109.122 365.283 109.788 365.98C110.907 367.145 109.487 368.907 108.088 370.149C105.833 372.16 103.445 374.029 100.881 376.146C101.155 376.798 101.459 377.505 101.763 378.211C102.317 379.472 103 380.664 103.394 381.996C104.109 384.36 103.543 386.335 102.036 387.403C100.429 388.536 98.3951 388.13 96.6756 386.217C95.9983 385.463 95.5064 384.553 94.9447 383.707C94.3931 382.878 93.8611 382.028 93.1953 380.996L93.2183 380.981Z" fill="#E9DDB6"/>
<path d="M344.457 100.56C342.964 101.397 341.787 102.12 340.561 102.721C339.912 103.035 339.171 103.289 338.482 103.275C337.827 103.264 336.827 103.058 336.629 102.606C336.355 101.974 336.426 100.814 336.822 100.264C337.689 99.0614 338.832 98.0656 339.906 97.0485C340.425 96.5586 341.055 96.197 341.825 95.6348C341.169 94.4712 340.483 93.4813 340.025 92.3751C339.563 91.2641 339.115 90.0637 339.038 88.8669C338.911 86.9047 340.391 85.9082 341.852 87.0438C343.108 88.0194 344.051 89.464 345.072 90.7557C345.509 91.3056 345.789 91.9932 346.266 92.839C347.11 92.2823 347.753 91.7641 348.467 91.4068C349.447 90.9215 350.456 90.3427 351.489 90.2114C352.373 90.0978 353.637 90.2299 354.141 90.8299C354.987 91.8344 354.2 93.0317 353.38 93.8341C352.059 95.135 350.638 96.3143 349.121 97.6636C349.361 98.1898 349.625 98.76 349.89 99.3302C350.369 100.349 350.928 101.328 351.308 102.386C351.991 104.263 351.79 105.71 350.883 106.369C349.916 107.068 348.528 106.548 347.217 104.911C346.7 104.265 346.293 103.521 345.845 102.817C345.405 102.128 344.977 101.425 344.443 100.569L344.457 100.56Z" fill="#E9DDB6"/>
<defs>
<linearGradient id="paint0_linear_1546_390" x1="33.9171" y1="7.06634" x2="559.05" y2="327.054" gradientUnits="userSpaceOnUse">
<stop stop-color="#B19264"/>
<stop offset="0.51" stop-color="#F4ECC6"/>
<stop offset="1" stop-color="#B19264"/>
</linearGradient>
<linearGradient id="paint1_linear_1546_390" x1="38.4133" y1="-0.311692" x2="563.543" y2="319.685" gradientUnits="userSpaceOnUse">
<stop stop-color="#B19264"/>
<stop offset="0.51" stop-color="#F4ECC6"/>
<stop offset="1" stop-color="#B19264"/>
</linearGradient>
<linearGradient id="paint2_linear_1546_390" x1="5.6715" y1="53.4228" x2="530.801" y2="373.42" gradientUnits="userSpaceOnUse">
<stop stop-color="#B19264"/>
<stop offset="0.51" stop-color="#F4ECC6"/>
<stop offset="1" stop-color="#B19264"/>
</linearGradient>
<linearGradient id="paint3_linear_1546_390" x1="-62.6393" y1="165.524" x2="462.49" y2="485.521" gradientUnits="userSpaceOnUse">
<stop stop-color="#B19264"/>
<stop offset="0.51" stop-color="#F4ECC6"/>
<stop offset="1" stop-color="#B19264"/>
</linearGradient>
<linearGradient id="paint4_linear_1546_390" x1="76.513" y1="-62.8353" x2="601.643" y2="257.162" gradientUnits="userSpaceOnUse">
<stop stop-color="#B19264"/>
<stop offset="0.51" stop-color="#F4ECC6"/>
<stop offset="1" stop-color="#B19264"/>
</linearGradient>
<linearGradient id="paint5_linear_1546_390" x1="6.6024" y1="51.8874" x2="531.732" y2="371.884" gradientUnits="userSpaceOnUse">
<stop stop-color="#B19264"/>
<stop offset="0.51" stop-color="#F4ECC6"/>
<stop offset="1" stop-color="#B19264"/>
</linearGradient>
<linearGradient id="paint6_linear_1546_390" x1="24.1869" y1="23.0329" x2="549.317" y2="343.03" gradientUnits="userSpaceOnUse">
<stop stop-color="#B19264"/>
<stop offset="0.51" stop-color="#F4ECC6"/>
<stop offset="1" stop-color="#B19264"/>
</linearGradient>
<linearGradient id="paint7_linear_1546_390" x1="48.0398" y1="-16.1075" x2="573.167" y2="303.882" gradientUnits="userSpaceOnUse">
<stop stop-color="#B19264"/>
<stop offset="0.51" stop-color="#F4ECC6"/>
<stop offset="1" stop-color="#B19264"/>
</linearGradient>
<linearGradient id="paint8_linear_1546_390" x1="53.7497" y1="-25.4869" x2="578.886" y2="294.508" gradientUnits="userSpaceOnUse">
<stop stop-color="#B19264"/>
<stop offset="0.51" stop-color="#F4ECC6"/>
<stop offset="1" stop-color="#B19264"/>
</linearGradient>
</defs>
</svg>
